<svg xmlns="http://www.w3.org/2000/svg" xmlns:xlink="http://www.w3.org/1999/xlink">
	<symbol width="16" height="16" id="menu" viewBox="0 0 16 16" fill="none" xmlns="http://www.w3.org/2000/svg">
		<path d="M2 12V10.6667H14V12H2ZM2 8.66667V7.33333H14V8.66667H2ZM2 5.33333V4H14V5.33333H2Z" fill="black" />
	</symbol>
	<symbol
		width="16"
		height="16"
		id="close"
		viewBox="0 0 16 16"
		fill="none"
		xmlns="http://www.w3.org/2000/svg"
	>
		<path
			d="M4.26732 12.6667L3.33398 11.7333L7.06732 7.99999L3.33398 4.26666L4.26732 3.33333L8.00065 7.06666L11.734 3.33333L12.6673 4.26666L8.93398 7.99999L12.6673 11.7333L11.734 12.6667L8.00065 8.93333L4.26732 12.6667Z"
			fill="currentColor"
		/>
	</symbol>
	<symbol id="eye" width="16" height="17" viewBox="0 0 16 17" fill="none" xmlns="http://www.w3.org/2000/svg">
		<path
			d="M7.99935 11.1667C8.83268 11.1667 9.54102 10.875 10.1243 10.2917C10.7077 9.70834 10.9993 9.00001 10.9993 8.16667C10.9993 7.33334 10.7077 6.62501 10.1243 6.04167C9.54102 5.45834 8.83268 5.16667 7.99935 5.16667C7.16602 5.16667 6.45768 5.45834 5.87435 6.04167C5.29102 6.62501 4.99935 7.33334 4.99935 8.16667C4.99935 9.00001 5.29102 9.70834 5.87435 10.2917C6.45768 10.875 7.16602 11.1667 7.99935 11.1667ZM7.99935 9.96667C7.49935 9.96667 7.07435 9.79167 6.72435 9.44167C6.37435 9.09167 6.19935 8.66667 6.19935 8.16667C6.19935 7.66667 6.37435 7.24167 6.72435 6.89167C7.07435 6.54167 7.49935 6.36667 7.99935 6.36667C8.49935 6.36667 8.92435 6.54167 9.27435 6.89167C9.62435 7.24167 9.79935 7.66667 9.79935 8.16667C9.79935 8.66667 9.62435 9.09167 9.27435 9.44167C8.92435 9.79167 8.49935 9.96667 7.99935 9.96667ZM7.99935 13.1667C6.37713 13.1667 4.89935 12.7139 3.56602 11.8083C2.23268 10.9028 1.26602 9.68889 0.666016 8.16667C1.26602 6.64445 2.23268 5.43056 3.56602 4.52501C4.89935 3.61945 6.37713 3.16667 7.99935 3.16667C9.62157 3.16667 11.0993 3.61945 12.4327 4.52501C13.766 5.43056 14.7327 6.64445 15.3327 8.16667C14.7327 9.68889 13.766 10.9028 12.4327 11.8083C11.0993 12.7139 9.62157 13.1667 7.99935 13.1667ZM7.99935 11.8333C9.2549 11.8333 10.4077 11.5028 11.4577 10.8417C12.5077 10.1806 13.3105 9.28889 13.866 8.16667C13.3105 7.04445 12.5077 6.15278 11.4577 5.49167C10.4077 4.83056 9.2549 4.50001 7.99935 4.50001C6.74379 4.50001 5.59102 4.83056 4.54102 5.49167C3.49102 6.15278 2.68824 7.04445 2.13268 8.16667C2.68824 9.28889 3.49102 10.1806 4.54102 10.8417C5.59102 11.5028 6.74379 11.8333 7.99935 11.8333Z"
			fill="currentColor"
		/>
	</symbol>
	<symbol
		width="16"
		height="16"
		viewBox="0 0 16 17"
		fill="none"
		id="arrowTop"
		xmlns="http://www.w3.org/2000/svg"
	>
		<path
			d="M8.66602 5.71634L8.66602 13.833L7.33268 13.833L7.33268 5.71634L3.59935 9.44967L2.66602 8.49967L7.99935 3.16634L13.3327 8.49967L12.3993 9.44967L8.66602 5.71634Z"
			fill="white"
		/>
	</symbol>
	<symbol
		id="arrowTopRight"
		width="16"
		height="17"
		viewBox="0 0 16 17"
		fill="none"
		xmlns="http://www.w3.org/2000/svg"
	>
		<path
			d="M4.70212 12.7426L10.4415 7.0033L10.4415 12.283L11.7732 12.2712L11.7732 4.72877L4.23072 4.72877L4.21893 6.06049L9.49866 6.06049L3.75931 11.7998L4.70212 12.7426Z"
			fill="white"
		/>
	</symbol>

	<!-- Socials -->
	<symbol
		id="phone"
		width="16"
		height="16"
		fill="none"
		viewBox="0 0 16 17"
		xmlns="http://www.w3.org/2000/svg"
	>
		<path
			d="M13.3 14.5C11.9111 14.5 10.5389 14.1972 9.18333 13.5917C7.82778 12.9861 6.59444 12.1278 5.48333 11.0167C4.37222 9.90556 3.51389 8.67222 2.90833 7.31667C2.30278 5.96111 2 4.58889 2 3.2C2 3 2.06667 2.83333 2.2 2.7C2.33333 2.56667 2.5 2.5 2.7 2.5H5.4C5.55556 2.5 5.69444 2.55278 5.81667 2.65833C5.93889 2.76389 6.01111 2.88889 6.03333 3.03333L6.46667 5.36667C6.48889 5.54444 6.48333 5.69444 6.45 5.81667C6.41667 5.93889 6.35556 6.04444 6.26667 6.13333L4.65 7.76667C4.87222 8.17778 5.13611 8.575 5.44167 8.95833C5.74722 9.34167 6.08333 9.71111 6.45 10.0667C6.79444 10.4111 7.15556 10.7306 7.53333 11.025C7.91111 11.3194 8.31111 11.5889 8.73333 11.8333L10.3 10.2667C10.4 10.1667 10.5306 10.0917 10.6917 10.0417C10.8528 9.99167 11.0111 9.97778 11.1667 10L13.4667 10.4667C13.6222 10.5111 13.75 10.5917 13.85 10.7083C13.95 10.825 14 10.9556 14 11.1V13.8C14 14 13.9333 14.1667 13.8 14.3C13.6667 14.4333 13.5 14.5 13.3 14.5ZM4.01667 6.5L5.11667 5.4L4.83333 3.83333H3.35C3.40556 4.28889 3.48333 4.73889 3.58333 5.18333C3.68333 5.62778 3.82778 6.06667 4.01667 6.5ZM9.98333 12.4667C10.4167 12.6556 10.8583 12.8056 11.3083 12.9167C11.7583 13.0278 12.2111 13.1 12.6667 13.1333V11.6667L11.1 11.35L9.98333 12.4667Z"
			fill="currentColor"
		/>
	</symbol>
	<symbol
		id="email"
		width="16"
		height="16"
		fill="none"
		viewBox="0 0 16 17"
		xmlns="http://www.w3.org/2000/svg"
	>
		<path
			d="M2.66732 13.8337C2.30065 13.8337 1.98676 13.7031 1.72565 13.442C1.46454 13.1809 1.33398 12.867 1.33398 12.5003V4.50033C1.33398 4.13366 1.46454 3.81977 1.72565 3.55866C1.98676 3.29755 2.30065 3.16699 2.66732 3.16699H13.334C13.7007 3.16699 14.0145 3.29755 14.2757 3.55866C14.5368 3.81977 14.6673 4.13366 14.6673 4.50033V12.5003C14.6673 12.867 14.5368 13.1809 14.2757 13.442C14.0145 13.7031 13.7007 13.8337 13.334 13.8337H2.66732ZM8.00065 9.16699L2.66732 5.83366V12.5003H13.334V5.83366L8.00065 9.16699ZM8.00065 7.83366L13.334 4.50033H2.66732L8.00065 7.83366ZM2.66732 5.83366V4.50033V12.5003V5.83366Z"
			fill="currentColor"
		/>
	</symbol>
	<symbol
		width="16"
		height="16"
		fill="none"
		id="telegram"
		viewBox="0 0 16 16"
		xmlns="http://www.w3.org/2000/svg"
	>
		<g clip-path="url(#clip0_122_1019)">
			<path
				d="M8.00065 13.333C9.41514 13.333 10.7717 12.7711 11.7719 11.7709C12.7721 10.7707 13.334 9.41416 13.334 7.99967C13.334 6.58519 12.7721 5.22863 11.7719 4.22844C10.7717 3.22824 9.41514 2.66634 8.00065 2.66634C6.58616 2.66634 5.22961 3.22824 4.22941 4.22844C3.22922 5.22863 2.66732 6.58519 2.66732 7.99967C2.66732 9.41416 3.22922 10.7707 4.22941 11.7709C5.22961 12.7711 6.58616 13.333 8.00065 13.333ZM8.00065 14.6663C4.31865 14.6663 1.33398 11.6817 1.33398 7.99967C1.33398 4.31767 4.31865 1.33301 8.00065 1.33301C11.6827 1.33301 14.6673 4.31767 14.6673 7.99967C14.6673 11.6817 11.6827 14.6663 8.00065 14.6663ZM5.92732 8.77967L4.26198 8.26034C3.90198 8.15034 3.89998 7.90234 4.34265 7.72434L10.8313 5.21767C11.208 5.06434 11.4213 5.25834 11.2993 5.74434L10.1947 10.9577C10.1173 11.329 9.89398 11.4177 9.58398 11.2463L7.88332 9.98767L7.09065 10.753C7.00932 10.8317 6.94332 10.899 6.81798 10.9157C6.69332 10.933 6.59065 10.8957 6.51532 10.689L5.93532 8.77501L5.92732 8.78034V8.77967Z"
				fill="currentColor"
			/>
		</g>
		<defs>
			<clipPath id="clip0_122_1019">
				<rect width="16" height="16" fill="white" />
			</clipPath>
		</defs>
	</symbol>
	<symbol
		width="16"
		height="16"
		fill="none"
		id="whatsapp"
		viewBox="0 0 16 16"
		xmlns="http://www.w3.org/2000/svg"
	>
		<g clip-path="url(#clip0_122_1021)">
			<path
				d="M4.83599 12.329L5.31866 12.611C6.13262 13.0857 7.05839 13.3349 8.00066 13.333C9.05549 13.333 10.0866 13.0202 10.9637 12.4342C11.8408 11.8481 12.5244 11.0152 12.928 10.0407C13.3317 9.06611 13.4373 7.99376 13.2315 6.95919C13.0257 5.92463 12.5178 4.97432 11.7719 4.22844C11.026 3.48256 10.0757 2.97461 9.04114 2.76882C8.00658 2.56303 6.93422 2.66865 5.95968 3.07232C4.98514 3.47598 4.15219 4.15957 3.56616 5.03663C2.98012 5.9137 2.66733 6.94484 2.66733 7.99967C2.66733 8.95701 2.91866 9.87501 3.38999 10.6823L3.67133 11.165L3.23599 12.7657L4.83599 12.329ZM1.33666 14.6663L2.23799 11.3543C1.64409 10.3362 1.33206 9.17834 1.33399 7.99967C1.33399 4.31767 4.31866 1.33301 8.00066 1.33301C11.6827 1.33301 14.6673 4.31767 14.6673 7.99967C14.6673 11.6817 11.6827 14.6663 8.00066 14.6663C6.82251 14.6682 5.6651 14.3565 4.64733 13.763L1.33666 14.6663ZM5.59466 4.87167C5.68399 4.86501 5.77399 4.86501 5.86333 4.86901C5.89933 4.87167 5.93533 4.87567 5.97133 4.87967C6.07733 4.89167 6.19399 4.95634 6.23333 5.04567C6.43199 5.49634 6.62533 5.95034 6.81199 6.40567C6.85333 6.50701 6.82866 6.63701 6.74999 6.76367C6.69589 6.84933 6.63737 6.93211 6.57466 7.01167C6.49933 7.10834 6.33733 7.28567 6.33733 7.28567C6.33733 7.28567 6.27133 7.36434 6.29666 7.46234C6.30599 7.49967 6.33666 7.55367 6.36466 7.59901L6.40399 7.66234C6.57466 7.94701 6.80399 8.23567 7.08399 8.50767C7.16399 8.58501 7.24199 8.66434 7.32599 8.73834C7.63799 9.01367 7.99133 9.23834 8.37266 9.40501L8.37599 9.40634C8.43266 9.43101 8.46133 9.44434 8.54399 9.47968C8.58533 9.49701 8.62799 9.51234 8.67133 9.52367C8.71611 9.53508 8.76327 9.53293 8.80682 9.5175C8.85038 9.50207 8.88838 9.47406 8.91599 9.43701C9.39866 8.85234 9.44266 8.81434 9.44666 8.81434V8.81567C9.48019 8.7844 9.52003 8.76066 9.56349 8.74606C9.60696 8.73146 9.65305 8.72632 9.69866 8.73101C9.73866 8.73368 9.77933 8.74101 9.81666 8.75767C10.1707 8.91967 10.75 9.17234 10.75 9.17234L11.138 9.34634C11.2033 9.37768 11.2627 9.45167 11.2647 9.52301C11.2673 9.56767 11.2713 9.63968 11.256 9.77168C11.2347 9.94434 11.1827 10.1517 11.1307 10.2603C11.095 10.3345 11.0478 10.4025 10.9907 10.4617C10.9234 10.5323 10.8497 10.5966 10.7707 10.6537C10.7433 10.6742 10.7155 10.6943 10.6873 10.7137C10.6044 10.7663 10.5192 10.8152 10.432 10.8603C10.2603 10.9515 10.0708 11.0039 9.87666 11.0137C9.75333 11.0203 9.62999 11.0297 9.50599 11.023C9.50066 11.023 9.12733 10.965 9.12733 10.965C8.1795 10.7157 7.30292 10.2487 6.56733 9.60101C6.41666 9.46834 6.27733 9.32567 6.13466 9.18367C5.54133 8.59367 5.09333 7.95701 4.82133 7.35567C4.68211 7.06053 4.6069 6.73928 4.60066 6.41301C4.59791 6.00824 4.73022 5.61412 4.97666 5.29301C5.02533 5.23034 5.07133 5.16501 5.15066 5.08967C5.23533 5.00967 5.28866 4.96701 5.34666 4.93767C5.42378 4.89903 5.5079 4.87635 5.59399 4.87101L5.59466 4.87167Z"
				fill="currentColor"
			/>
		</g>
		<defs>
			<clipPath id="clip0_122_1021">
				<rect width="16" height="16" fill="currentColor" />
			</clipPath>
		</defs>
	</symbol>
	<symbol
		width="16"
		height="16"
		fill="none"
		id="instagram"
		viewBox="0 0 16 16"
		xmlns="http://www.w3.org/2000/svg"
	>
		<g clip-path="url(#clip0_126_384)">
			<path
				d="M8.00065 5.99967C7.47022 5.99967 6.96151 6.21039 6.58644 6.58546C6.21136 6.96053 6.00065 7.46924 6.00065 7.99967C6.00065 8.53011 6.21136 9.03882 6.58644 9.41389C6.96151 9.78896 7.47022 9.99967 8.00065 9.99967C8.53108 9.99967 9.03979 9.78896 9.41487 9.41389C9.78994 9.03882 10.0007 8.53011 10.0007 7.99967C10.0007 7.46924 9.78994 6.96053 9.41487 6.58546C9.03979 6.21039 8.53108 5.99967 8.00065 5.99967ZM8.00065 4.66634C8.88471 4.66634 9.73255 5.01753 10.3577 5.64265C10.9828 6.26777 11.334 7.11562 11.334 7.99967C11.334 8.88373 10.9828 9.73158 10.3577 10.3567C9.73255 10.9818 8.88471 11.333 8.00065 11.333C7.1166 11.333 6.26875 10.9818 5.64363 10.3567C5.01851 9.73158 4.66732 8.88373 4.66732 7.99967C4.66732 7.11562 5.01851 6.26777 5.64363 5.64265C6.26875 5.01753 7.1166 4.66634 8.00065 4.66634ZM12.334 4.49967C12.334 4.72069 12.2462 4.93265 12.0899 5.08893C11.9336 5.24521 11.7217 5.33301 11.5007 5.33301C11.2796 5.33301 11.0677 5.24521 10.9114 5.08893C10.7551 4.93265 10.6673 4.72069 10.6673 4.49967C10.6673 4.27866 10.7551 4.0667 10.9114 3.91042C11.0677 3.75414 11.2796 3.66634 11.5007 3.66634C11.7217 3.66634 11.9336 3.75414 12.0899 3.91042C12.2462 4.0667 12.334 4.27866 12.334 4.49967ZM8.00065 2.66634C6.35132 2.66634 6.08198 2.67101 5.31465 2.70501C4.79198 2.72967 4.44132 2.79967 4.11598 2.92634C3.82665 3.03834 3.61798 3.17234 3.39598 3.39501C3.18732 3.59661 3.02689 3.84273 2.92665 4.11501C2.79998 4.44167 2.72998 4.79167 2.70598 5.31367C2.67132 6.04967 2.66732 6.30701 2.66732 7.99967C2.66732 9.64901 2.67198 9.91834 2.70598 10.6857C2.73065 11.2077 2.80065 11.559 2.92665 11.8837C3.03998 12.1737 3.17332 12.3823 3.39465 12.6037C3.61932 12.8277 3.82798 12.9617 4.11465 13.0723C4.44398 13.1997 4.79465 13.2703 5.31465 13.2943C6.05065 13.329 6.30798 13.333 8.00065 13.333C9.64998 13.333 9.91932 13.3283 10.6867 13.2943C11.208 13.2697 11.5593 13.1997 11.8847 13.0737C12.1733 12.961 12.3833 12.827 12.6047 12.6057C12.8293 12.381 12.9633 12.1723 13.074 11.8857C13.2007 11.557 13.2713 11.2057 13.2953 10.6857C13.33 9.94967 13.334 9.69234 13.334 7.99967C13.334 6.35034 13.3293 6.08101 13.2953 5.31367C13.2707 4.79234 13.2007 4.44034 13.074 4.11501C12.9735 3.84301 12.8134 3.59698 12.6053 3.39501C12.4038 3.18624 12.1577 3.02579 11.8853 2.92567C11.5587 2.79901 11.208 2.72901 10.6867 2.70501C9.95065 2.67034 9.69332 2.66634 8.00065 2.66634ZM8.00065 1.33301C9.81199 1.33301 10.038 1.33967 10.7487 1.37301C11.4587 1.40634 11.942 1.51767 12.3673 1.68301C12.8073 1.85234 13.178 2.08167 13.5487 2.45167C13.8876 2.78494 14.15 3.18807 14.3173 3.63301C14.482 4.05767 14.594 4.54167 14.6273 5.25167C14.6587 5.96234 14.6673 6.18834 14.6673 7.99967C14.6673 9.81101 14.6607 10.037 14.6273 10.7477C14.594 11.4577 14.482 11.941 14.3173 12.3663C14.1504 12.8115 13.8881 13.2148 13.5487 13.5477C13.2153 13.8866 12.8122 14.1488 12.3673 14.3163C11.9427 14.481 11.4587 14.593 10.7487 14.6263C10.038 14.6577 9.81199 14.6663 8.00065 14.6663C6.18932 14.6663 5.96332 14.6597 5.25265 14.6263C4.54265 14.593 4.05932 14.481 3.63398 14.3163C3.18887 14.1493 2.78567 13.887 2.45265 13.5477C2.11359 13.2145 1.85127 12.8113 1.68398 12.3663C1.51865 11.9417 1.40732 11.4577 1.37398 10.7477C1.34265 10.037 1.33398 9.81101 1.33398 7.99967C1.33398 6.18834 1.34065 5.96234 1.37398 5.25167C1.40732 4.54101 1.51865 4.05834 1.68398 3.63301C1.85081 3.18779 2.11319 2.78456 2.45265 2.45167C2.78577 2.1125 3.18894 1.85016 3.63398 1.68301C4.05932 1.51767 4.54198 1.40634 5.25265 1.37301C5.96332 1.34167 6.18932 1.33301 8.00065 1.33301Z"
				fill="currentColor"
			/>
		</g>
		<defs>
			<clipPath id="clip0_126_384">
				<rect width="16" height="16" fill="currentColor" />
			</clipPath>
		</defs>
	</symbol>
	<symbol
		width="16"
		height="16"
		fill="none"
		id="facebook"
		viewBox="0 0 16 16"
		xmlns="http://www.w3.org/2000/svg"
	>
		<g clip-path="url(#clip0_126_386)">
			<path
				d="M9.33268 8.99967H10.9993L11.666 6.33301H9.33268V4.99967C9.33268 4.31301 9.33268 3.66634 10.666 3.66634H11.666V1.42634C11.4487 1.39767 10.628 1.33301 9.76135 1.33301C7.95135 1.33301 6.66602 2.43767 6.66602 4.46634V6.33301H4.66602V8.99967H6.66602V14.6663H9.33268V8.99967Z"
				fill="currentColor"
			/>
		</g>
		<defs>
			<clipPath id="clip0_126_386">
				<rect width="16" height="16" fill="currentColor" />
			</clipPath>
		</defs>
	</symbol>
	<symbol
		width="16"
		height="16"
		fill="none"
		id="linkedin"
		viewBox="0 0 16 16"
		xmlns="http://www.w3.org/2000/svg"
	>
		<g clip-path="url(#clip0_126_388)">
			<path
				d="M4.6276 3.33302C4.62743 3.68665 4.48678 4.02571 4.23661 4.27564C3.98643 4.52556 3.64723 4.66587 3.2936 4.66569C2.93998 4.66551 2.60091 4.52487 2.35099 4.27469C2.10107 4.02452 1.96076 3.68531 1.96094 3.33169C1.96111 2.97807 2.10176 2.639 2.35193 2.38908C2.60211 2.13915 2.94132 1.99885 3.29494 1.99902C3.64856 1.9992 3.98763 2.13985 4.23755 2.39002C4.48747 2.64019 4.62778 2.9794 4.6276 3.33302ZM4.6676 5.65302H2.00094V13.9997H4.6676V5.65302ZM8.88094 5.65302H6.2276V13.9997H8.85427V9.61969C8.85427 7.17969 12.0343 6.95302 12.0343 9.61969V13.9997H14.6676V8.71302C14.6676 4.59969 9.96094 4.75302 8.85427 6.77302L8.88094 5.65302Z"
				fill="currentColor"
			/>
		</g>
		<defs>
			<clipPath id="clip0_126_388">
				<rect width="16" height="16" fill="currentColor" />
			</clipPath>
		</defs>
	</symbol>

	<!-- SKILS -->
	<symbol id="rabbit" viewBox="0 0 48 48" fill="none" xmlns="http://www.w3.org/2000/svg">
		<rect x="0.5" y="0.5" width="47" height="47" rx="23.5" fill="black" />
		<rect x="0.5" y="0.5" width="47" height="47" rx="23.5" stroke="#4C4C4C" />
		<path
			d="M21.5 34C20.25 34 19.1875 33.5625 18.3125 32.6875C17.4375 31.8125 17 30.75 17 29.5C17 28.9167 17.1417 28.3792 17.425 27.8875C17.7083 27.3958 18.2333 26.7667 19 26C19.1 25.9 19.1958 25.7958 19.2875 25.6875C19.3792 25.5792 19.5 25.4333 19.65 25.25C18.8 23.95 18.1458 22.5875 17.6875 21.1625C17.2292 19.7375 17 18.35 17 17C17 16.0333 17.175 15.2917 17.525 14.775C17.875 14.2583 18.3667 14 19 14C19.95 14 20.8 14.4583 21.55 15.375C22.3 16.2917 22.8667 17.1333 23.25 17.9C23.4 18.2333 23.5375 18.5708 23.6625 18.9125C23.7875 19.2542 23.9 19.6083 24 19.975C24.1 19.6083 24.2125 19.2542 24.3375 18.9125C24.4625 18.5708 24.6083 18.2333 24.775 17.9C25.1417 17.1333 25.7 16.2917 26.45 15.375C27.2 14.4583 28.05 14 29 14C29.6333 14 30.125 14.2583 30.475 14.775C30.825 15.2917 31 16.0333 31 17C31 18.35 30.7708 19.7375 30.3125 21.1625C29.8542 22.5875 29.2 23.95 28.35 25.25C28.5 25.4333 28.6208 25.5792 28.7125 25.6875C28.8042 25.7958 28.9 25.9 29 26C29.7667 26.7667 30.2917 27.3958 30.575 27.8875C30.8583 28.3792 31 28.9167 31 29.5C31 30.75 30.5625 31.8125 29.6875 32.6875C28.8125 33.5625 27.75 34 26.5 34C25.75 34 25.1458 33.9167 24.6875 33.75L24 33.5L23.3125 33.75C22.8542 33.9167 22.25 34 21.5 34ZM21.5 32C21.8833 32 22.2667 31.9542 22.65 31.8625C23.0333 31.7708 23.3917 31.6333 23.725 31.45C23.5417 31.3667 23.375 31.225 23.225 31.025C23.075 30.825 23 30.65 23 30.5C23 30.3667 23.0958 30.25 23.2875 30.15C23.4792 30.05 23.7167 30 24 30C24.2833 30 24.5208 30.05 24.7125 30.15C24.9042 30.25 25 30.3667 25 30.5C25 30.65 24.925 30.825 24.775 31.025C24.625 31.225 24.4583 31.3667 24.275 31.45C24.6083 31.6333 24.9667 31.7708 25.35 31.8625C25.7333 31.9542 26.1167 32 26.5 32C27.2 32 27.7917 31.7583 28.275 31.275C28.7583 30.7917 29 30.2 29 29.5C29 29.2 28.9167 28.9083 28.75 28.625C28.5833 28.3417 28.3333 28.0583 28 27.775C27.7667 27.575 27.575 27.4 27.425 27.25C27.275 27.1 27.0333 26.8167 26.7 26.4C26.2167 25.8167 25.8167 25.4375 25.5 25.2625C25.1833 25.0875 24.6833 25 24 25C23.3167 25 22.8125 25.0875 22.4875 25.2625C22.1625 25.4375 21.7667 25.8167 21.3 26.4C20.9667 26.8167 20.725 27.1 20.575 27.25C20.425 27.4 20.2333 27.575 20 27.775C19.6667 28.0583 19.4167 28.3417 19.25 28.625C19.0833 28.9083 19 29.2 19 29.5C19 30.2 19.2417 30.7917 19.725 31.275C20.2083 31.7583 20.8 32 21.5 32ZM22.5 28.75C22.3667 28.75 22.25 28.675 22.15 28.525C22.05 28.375 22 28.2 22 28C22 27.8 22.05 27.625 22.15 27.475C22.25 27.325 22.3667 27.25 22.5 27.25C22.6333 27.25 22.75 27.325 22.85 27.475C22.95 27.625 23 27.8 23 28C23 28.2 22.95 28.375 22.85 28.525C22.75 28.675 22.6333 28.75 22.5 28.75ZM25.5 28.75C25.3667 28.75 25.25 28.675 25.15 28.525C25.05 28.375 25 28.2 25 28C25 27.8 25.05 27.625 25.15 27.475C25.25 27.325 25.3667 27.25 25.5 27.25C25.6333 27.25 25.75 27.325 25.85 27.475C25.95 27.625 26 27.8 26 28C26 28.2 25.95 28.375 25.85 28.525C25.75 28.675 25.6333 28.75 25.5 28.75ZM21.075 23.775C21.2583 23.6417 21.4667 23.525 21.7 23.425C21.9333 23.325 22.1917 23.2333 22.475 23.15C22.4417 22.35 22.3208 21.5542 22.1125 20.7625C21.9042 19.9708 21.6417 19.25 21.325 18.6C21.0083 17.9333 20.6583 17.3708 20.275 16.9125C19.8917 16.4542 19.5083 16.1583 19.125 16.025C19.0917 16.125 19.0625 16.2542 19.0375 16.4125C19.0125 16.5708 19 16.7667 19 17C19 18.1333 19.1792 19.2833 19.5375 20.45C19.8958 21.6167 20.4083 22.725 21.075 23.775ZM26.925 23.775C27.5917 22.725 28.1042 21.6167 28.4625 20.45C28.8208 19.2833 29 18.1333 29 17C29 16.7667 28.9875 16.5708 28.9625 16.4125C28.9375 16.2542 28.9083 16.125 28.875 16.025C28.4917 16.1583 28.1083 16.4542 27.725 16.9125C27.3417 17.3708 26.9917 17.9333 26.675 18.6C26.375 19.25 26.1208 19.9708 25.9125 20.7625C25.7042 21.5542 25.575 22.35 25.525 23.15C25.775 23.2167 26.0167 23.3042 26.25 23.4125C26.4833 23.5208 26.7083 23.6417 26.925 23.775Z"
			fill="white"
		/>
	</symbol>
	<symbol id="arrorRight" viewBox="0 0 48 48" fill="none" xmlns="http://www.w3.org/2000/svg">
		<rect x="0.5" y="0.5" width="47" height="47" rx="23.5" fill="black" />
		<rect x="0.5" y="0.5" width="47" height="47" rx="23.5" stroke="#4C4C4C" />
		<path
			d="M16 25L28.175 25L22.575 30.6L24 32L32 24L24 16L22.575 17.4L28.175 23L16 23L16 25Z"
			fill="white"
		/>
	</symbol>
	<symbol
		id="skill1"
		width="24"
		height="24"
		viewBox="0 0 25 24"
		fill="none"
		xmlns="http://www.w3.org/2000/svg"
	>
		<path
			d="M4.5 19H8.5V11H4.5V19ZM10.5 19H14.5V5H10.5V19ZM16.5 19H20.5V13H16.5V19ZM2.5 21V9H8.5V3H16.5V11H22.5V21H2.5Z"
			fill="white"
		/>
	</symbol>
	<symbol
		id="skill2"
		width="24"
		height="24"
		viewBox="0 0 24 24"
		fill="none"
		xmlns="http://www.w3.org/2000/svg"
	>
		<path
			d="M6 22C5.16667 22 4.45833 21.7083 3.875 21.125C3.29167 20.5417 3 19.8333 3 19V16H6V2L7.5 3.5L9 2L10.5 3.5L12 2L13.5 3.5L15 2L16.5 3.5L18 2L19.5 3.5L21 2V19C21 19.8333 20.7083 20.5417 20.125 21.125C19.5417 21.7083 18.8333 22 18 22H6ZM18 20C18.2833 20 18.5208 19.9042 18.7125 19.7125C18.9042 19.5208 19 19.2833 19 19V5H8V16H17V19C17 19.2833 17.0958 19.5208 17.2875 19.7125C17.4792 19.9042 17.7167 20 18 20ZM9 9V7H15V9H9ZM9 12V10H15V12H9ZM17 9C16.7167 9 16.4792 8.90417 16.2875 8.7125C16.0958 8.52083 16 8.28333 16 8C16 7.71667 16.0958 7.47917 16.2875 7.2875C16.4792 7.09583 16.7167 7 17 7C17.2833 7 17.5208 7.09583 17.7125 7.2875C17.9042 7.47917 18 7.71667 18 8C18 8.28333 17.9042 8.52083 17.7125 8.7125C17.5208 8.90417 17.2833 9 17 9ZM17 12C16.7167 12 16.4792 11.9042 16.2875 11.7125C16.0958 11.5208 16 11.2833 16 11C16 10.7167 16.0958 10.4792 16.2875 10.2875C16.4792 10.0958 16.7167 10 17 10C17.2833 10 17.5208 10.0958 17.7125 10.2875C17.9042 10.4792 18 10.7167 18 11C18 11.2833 17.9042 11.5208 17.7125 11.7125C17.5208 11.9042 17.2833 12 17 12ZM6 20H15V18H5V19C5 19.2833 5.09583 19.5208 5.2875 19.7125C5.47917 19.9042 5.71667 20 6 20Z"
			fill="white"
		/>
	</symbol>
	<symbol
		id="skill3"
		width="25"
		height="24"
		viewBox="0 0 25 24"
		fill="none"
		xmlns="http://www.w3.org/2000/svg"
	>
		<path
			d="M1.5 20V17.2C1.5 16.6333 1.64583 16.1125 1.9375 15.6375C2.22917 15.1625 2.61667 14.8 3.1 14.55C4.13333 14.0333 5.18333 13.6458 6.25 13.3875C7.31667 13.1292 8.4 13 9.5 13C10.6 13 11.6833 13.1292 12.75 13.3875C13.8167 13.6458 14.8667 14.0333 15.9 14.55C16.3833 14.8 16.7708 15.1625 17.0625 15.6375C17.3542 16.1125 17.5 16.6333 17.5 17.2V20H1.5ZM19.5 20V17C19.5 16.2667 19.2958 15.5625 18.8875 14.8875C18.4792 14.2125 17.9 13.6333 17.15 13.15C18 13.25 18.8 13.4208 19.55 13.6625C20.3 13.9042 21 14.2 21.65 14.55C22.25 14.8833 22.7083 15.2542 23.025 15.6625C23.3417 16.0708 23.5 16.5167 23.5 17V20H19.5ZM9.5 12C8.4 12 7.45833 11.6083 6.675 10.825C5.89167 10.0417 5.5 9.1 5.5 8C5.5 6.9 5.89167 5.95833 6.675 5.175C7.45833 4.39167 8.4 4 9.5 4C10.6 4 11.5417 4.39167 12.325 5.175C13.1083 5.95833 13.5 6.9 13.5 8C13.5 9.1 13.1083 10.0417 12.325 10.825C11.5417 11.6083 10.6 12 9.5 12ZM19.5 8C19.5 9.1 19.1083 10.0417 18.325 10.825C17.5417 11.6083 16.6 12 15.5 12C15.3167 12 15.0833 11.9792 14.8 11.9375C14.5167 11.8958 14.2833 11.85 14.1 11.8C14.55 11.2667 14.8958 10.675 15.1375 10.025C15.3792 9.375 15.5 8.7 15.5 8C15.5 7.3 15.3792 6.625 15.1375 5.975C14.8958 5.325 14.55 4.73333 14.1 4.2C14.3333 4.11667 14.5667 4.0625 14.8 4.0375C15.0333 4.0125 15.2667 4 15.5 4C16.6 4 17.5417 4.39167 18.325 5.175C19.1083 5.95833 19.5 6.9 19.5 8ZM3.5 18H15.5V17.2C15.5 17.0167 15.4542 16.85 15.3625 16.7C15.2708 16.55 15.15 16.4333 15 16.35C14.1 15.9 13.1917 15.5625 12.275 15.3375C11.3583 15.1125 10.4333 15 9.5 15C8.56667 15 7.64167 15.1125 6.725 15.3375C5.80833 15.5625 4.9 15.9 4 16.35C3.85 16.4333 3.72917 16.55 3.6375 16.7C3.54583 16.85 3.5 17.0167 3.5 17.2V18ZM9.5 10C10.05 10 10.5208 9.80417 10.9125 9.4125C11.3042 9.02083 11.5 8.55 11.5 8C11.5 7.45 11.3042 6.97917 10.9125 6.5875C10.5208 6.19583 10.05 6 9.5 6C8.95 6 8.47917 6.19583 8.0875 6.5875C7.69583 6.97917 7.5 7.45 7.5 8C7.5 8.55 7.69583 9.02083 8.0875 9.4125C8.47917 9.80417 8.95 10 9.5 10Z"
			fill="white"
		/>
	</symbol>
	<symbol
		id="skill4"
		width="24"
		height="24"
		viewBox="0 0 24 24"
		fill="none"
		xmlns="http://www.w3.org/2000/svg"
	>
		<path
			d="M3 21C2.86667 21 2.7375 20.9708 2.6125 20.9125C2.4875 20.8542 2.38333 20.7833 2.3 20.7C2.1 20.5167 2 20.2875 2 20.0125C2 19.7375 2.09167 19.5 2.275 19.3C2.59167 18.9667 2.97083 18.7667 3.4125 18.7C3.85417 18.6333 4.3 18.6417 4.75 18.725C4.88333 18.7583 5.00833 18.7917 5.125 18.825C5.24167 18.8583 5.34167 18.8333 5.425 18.75C5.525 18.65 5.5625 18.525 5.5375 18.375C5.5125 18.225 5.48333 18.0833 5.45 17.95C5.38333 17.5 5.375 17.0542 5.425 16.6125C5.475 16.1708 5.65833 15.7833 5.975 15.45C6.29167 15.1167 6.67083 14.9167 7.1125 14.85C7.55417 14.7833 8 14.7917 8.45 14.875C8.58333 14.9083 8.7125 14.9417 8.8375 14.975C8.9625 15.0083 9.06667 14.9833 9.15 14.9C9.25 14.8 9.28333 14.675 9.25 14.525C9.21667 14.375 9.18333 14.2333 9.15 14.1C9.08333 13.65 9.075 13.2042 9.125 12.7625C9.175 12.3208 9.35833 11.9333 9.675 11.6C9.99167 11.2667 10.3708 11.0667 10.8125 11C11.2542 10.9333 11.7 10.9417 12.15 11.025C12.2833 11.0583 12.4125 11.0917 12.5375 11.125C12.6625 11.1583 12.7667 11.1333 12.85 11.05C12.95 10.95 12.9833 10.825 12.95 10.675C12.9167 10.525 12.8833 10.3833 12.85 10.25C12.7833 9.8 12.7792 9.35417 12.8375 8.9125C12.8958 8.47083 13.0833 8.08333 13.4 7.75C13.7167 7.41667 14.0958 7.21667 14.5375 7.15C14.9792 7.08333 15.425 7.09167 15.875 7.175C16.0083 7.20833 16.1375 7.24167 16.2625 7.275C16.3875 7.30833 16.4917 7.28333 16.575 7.2C16.675 7.1 16.7083 6.975 16.675 6.825C16.6417 6.675 16.6083 6.53333 16.575 6.4C16.5083 5.95 16.5042 5.50417 16.5625 5.0625C16.6208 4.62083 16.8083 4.23333 17.125 3.9C17.4417 3.56667 17.8208 3.36667 18.2625 3.3C18.7042 3.23333 19.15 3.24167 19.6 3.325C19.7333 3.35833 19.8625 3.3875 19.9875 3.4125C20.1125 3.4375 20.2167 3.40833 20.3 3.325C20.4833 3.125 20.7125 3.025 20.9875 3.025C21.2625 3.025 21.5 3.11667 21.7 3.3C21.9 3.48333 22 3.7125 22 3.9875C22 4.2625 21.9083 4.5 21.725 4.7C21.4083 5.03333 21.0292 5.2375 20.5875 5.3125C20.1458 5.3875 19.7 5.38333 19.25 5.3C19.1167 5.26667 18.9875 5.23333 18.8625 5.2C18.7375 5.16667 18.6333 5.19167 18.55 5.275C18.45 5.375 18.4167 5.5 18.45 5.65C18.4833 5.8 18.5167 5.94167 18.55 6.075C18.6167 6.525 18.6208 6.97083 18.5625 7.4125C18.5042 7.85417 18.3167 8.24167 18 8.575C17.6833 8.90833 17.3042 9.10833 16.8625 9.175C16.4208 9.24167 15.975 9.23333 15.525 9.15C15.3917 9.11667 15.2667 9.08333 15.15 9.05C15.0333 9.01667 14.9333 9.04167 14.85 9.125C14.75 9.225 14.7125 9.35 14.7375 9.5C14.7625 9.65 14.7917 9.79167 14.825 9.925C14.8917 10.375 14.9 10.8208 14.85 11.2625C14.8 11.7042 14.6167 12.0917 14.3 12.425C13.9833 12.7417 13.6042 12.9375 13.1625 13.0125C12.7208 13.0875 12.275 13.0833 11.825 13C11.6917 12.9667 11.5667 12.9375 11.45 12.9125C11.3333 12.8875 11.2333 12.9167 11.15 13C11.05 13.1 11.0125 13.2208 11.0375 13.3625C11.0625 13.5042 11.0917 13.6417 11.125 13.775C11.1917 14.225 11.2 14.6708 11.15 15.1125C11.1 15.5542 10.9167 15.9417 10.6 16.275C10.2833 16.6083 9.9 16.8083 9.45 16.875C9 16.9417 8.55 16.9333 8.1 16.85C7.96667 16.8167 7.84167 16.7875 7.725 16.7625C7.60833 16.7375 7.50833 16.7667 7.425 16.85C7.325 16.95 7.29167 17.0708 7.325 17.2125C7.35833 17.3542 7.39167 17.4917 7.425 17.625C7.49167 18.075 7.49583 18.5208 7.4375 18.9625C7.37917 19.4042 7.19167 19.7917 6.875 20.125C6.55833 20.4583 6.17917 20.6583 5.7375 20.725C5.29583 20.7917 4.85 20.7833 4.4 20.7C4.26667 20.6667 4.14167 20.6375 4.025 20.6125C3.90833 20.5875 3.80833 20.6167 3.725 20.7C3.625 20.8 3.5125 20.875 3.3875 20.925C3.2625 20.975 3.13333 21 3 21ZM6 11C4.61667 11 3.4375 10.5125 2.4625 9.5375C1.4875 8.5625 1 7.38333 1 6C1 4.6 1.4875 3.41667 2.4625 2.45C3.4375 1.48333 4.61667 1 6 1C7.4 1 8.58333 1.48333 9.55 2.45C10.5167 3.41667 11 4.6 11 6C11 7.38333 10.5167 8.5625 9.55 9.5375C8.58333 10.5125 7.4 11 6 11ZM6 9C6.85 9 7.5625 8.70833 8.1375 8.125C8.7125 7.54167 9 6.83333 9 6C9 5.15 8.7125 4.4375 8.1375 3.8625C7.5625 3.2875 6.85 3 6 3C5.16667 3 4.45833 3.2875 3.875 3.8625C3.29167 4.4375 3 5.15 3 6C3 6.83333 3.29167 7.54167 3.875 8.125C4.45833 8.70833 5.16667 9 6 9ZM16 23C15.45 23 14.9792 22.8042 14.5875 22.4125C14.1958 22.0208 14 21.55 14 21V16C14 15.45 14.1958 14.9792 14.5875 14.5875C14.9792 14.1958 15.45 14 16 14H21C21.55 14 22.0208 14.1958 22.4125 14.5875C22.8042 14.9792 23 15.45 23 16V21C23 21.55 22.8042 22.0208 22.4125 22.4125C22.0208 22.8042 21.55 23 21 23H16ZM16 21H21V16H16V21Z"
			fill="white"
		/>
	</symbol>
	<symbol
		id="skill5"
		width="24"
		height="24"
		viewBox="0 0 24 24"
		fill="none"
		xmlns="http://www.w3.org/2000/svg"
	>
		<path
			d="M8.6 15.6L5 12L8.6 8.4L10 9.825L7.825 12L10 14.175L8.6 15.6ZM15.4 15.6L14 14.175L16.175 12L14 9.825L15.4 8.4L19 12L15.4 15.6ZM5 21C4.45 21 3.97917 20.8042 3.5875 20.4125C3.19583 20.0208 3 19.55 3 19V15H5V19H9V21H5ZM15 21V19H19V15H21V19C21 19.55 20.8042 20.0208 20.4125 20.4125C20.0208 20.8042 19.55 21 19 21H15ZM3 9V5C3 4.45 3.19583 3.97917 3.5875 3.5875C3.97917 3.19583 4.45 3 5 3H9V5H5V9H3ZM19 9V5H15V3H19C19.55 3 20.0208 3.19583 20.4125 3.5875C20.8042 3.97917 21 4.45 21 5V9H19Z"
			fill="white"
		/>
	</symbol>
	<symbol
		id="skill6"
		width="25"
		height="24"
		viewBox="0 0 25 24"
		fill="none"
		xmlns="http://www.w3.org/2000/svg"
	>
		<path
			d="M17.5 8C17.2167 8 16.9792 7.90417 16.7875 7.7125C16.5958 7.52083 16.5 7.28333 16.5 7C16.5 6.71667 16.5958 6.47917 16.7875 6.2875C16.9792 6.09583 17.2167 6 17.5 6C17.7833 6 18.0208 6.09583 18.2125 6.2875C18.4042 6.47917 18.5 6.71667 18.5 7C18.5 7.28333 18.4042 7.52083 18.2125 7.7125C18.0208 7.90417 17.7833 8 17.5 8ZM9.5 14L12.2 10.5L13.75 12.5L16.05 9.5L19.5 14H9.5ZM4.5 22C3.95 22 3.47917 21.8042 3.0875 21.4125C2.69583 21.0208 2.5 20.55 2.5 20V6H4.5V20H18.5V22H4.5ZM6.5 9.375V4C6.5 3.45 6.69583 2.97917 7.0875 2.5875C7.47917 2.19583 7.95 2 8.5 2H13.5V4H8.5V9.375H6.5ZM8.5 18C7.95 18 7.47917 17.8042 7.0875 17.4125C6.69583 17.0208 6.5 16.55 6.5 16V11.375H8.5V16H13.5V18H8.5ZM15.5 18V16H20.5V11.375H22.5V16C22.5 16.55 22.3042 17.0208 21.9125 17.4125C21.5208 17.8042 21.05 18 20.5 18H15.5ZM20.5 9.375V4H15.5V2H20.5C21.05 2 21.5208 2.19583 21.9125 2.5875C22.3042 2.97917 22.5 3.45 22.5 4V9.375H20.5Z"
			fill="white"
		/>
	</symbol>
	<symbol
		id="skill7"
		width="24"
		height="24"
		viewBox="0 0 24 24"
		fill="none"
		xmlns="http://www.w3.org/2000/svg"
	>
		<path
			d="M3 20V18H5.75L5.35 17.65C4.48333 16.8833 3.875 16.0083 3.525 15.025C3.175 14.0417 3 13.05 3 12.05C3 10.2 3.55417 8.55417 4.6625 7.1125C5.77083 5.67083 7.21667 4.71667 9 4.25V6.35C7.8 6.78333 6.83333 7.52083 6.1 8.5625C5.36667 9.60417 5 10.7667 5 12.05C5 12.8 5.14167 13.5292 5.425 14.2375C5.70833 14.9458 6.15 15.6 6.75 16.2L7 16.45V14H9V20H3ZM12 17C11.7167 17 11.4792 16.9042 11.2875 16.7125C11.0958 16.5208 11 16.2833 11 16C11 15.7167 11.0958 15.4792 11.2875 15.2875C11.4792 15.0958 11.7167 15 12 15C12.2833 15 12.5208 15.0958 12.7125 15.2875C12.9042 15.4792 13 15.7167 13 16C13 16.2833 12.9042 16.5208 12.7125 16.7125C12.5208 16.9042 12.2833 17 12 17ZM11 13V7H13V13H11ZM15 19.75V17.65C16.2 17.2167 17.1667 16.4792 17.9 15.4375C18.6333 14.3958 19 13.2333 19 11.95C19 11.2 18.8583 10.4708 18.575 9.7625C18.2917 9.05417 17.85 8.4 17.25 7.8L17 7.55V10H15V4H21V6H18.25L18.65 6.35C19.4667 7.16667 20.0625 8.05417 20.4375 9.0125C20.8125 9.97083 21 10.95 21 11.95C21 13.8 20.4458 15.4458 19.3375 16.8875C18.2292 18.3292 16.7833 19.2833 15 19.75Z"
			fill="white"
		/>
	</symbol>
	<symbol
		id="skill8"
		width="24"
		height="24"
		viewBox="0 0 24 24"
		fill="none"
		xmlns="http://www.w3.org/2000/svg"
	>
		<path
			d="M6 20C5.16667 20 4.45833 19.7083 3.875 19.125C3.29167 18.5417 3 17.8333 3 17C3 16.1667 3.29167 15.4583 3.875 14.875C4.45833 14.2917 5.16667 14 6 14C6.83333 14 7.54167 14.2917 8.125 14.875C8.70833 15.4583 9 16.1667 9 17C9 17.8333 8.70833 18.5417 8.125 19.125C7.54167 19.7083 6.83333 20 6 20ZM18 20C17.1667 20 16.4583 19.7083 15.875 19.125C15.2917 18.5417 15 17.8333 15 17C15 16.1667 15.2917 15.4583 15.875 14.875C16.4583 14.2917 17.1667 14 18 14C18.8333 14 19.5417 14.2917 20.125 14.875C20.7083 15.4583 21 16.1667 21 17C21 17.8333 20.7083 18.5417 20.125 19.125C19.5417 19.7083 18.8333 20 18 20ZM12 10C11.1667 10 10.4583 9.70833 9.875 9.125C9.29167 8.54167 9 7.83333 9 7C9 6.16667 9.29167 5.45833 9.875 4.875C10.4583 4.29167 11.1667 4 12 4C12.8333 4 13.5417 4.29167 14.125 4.875C14.7083 5.45833 15 6.16667 15 7C15 7.83333 14.7083 8.54167 14.125 9.125C13.5417 9.70833 12.8333 10 12 10Z"
			fill="currentColor"
		/>
	</symbol>
	<symbol
		id="skill9"
		width="25"
		height="24"
		viewBox="0 0 25 24"
		fill="none"
		xmlns="http://www.w3.org/2000/svg"
	>
		<path
			d="M12.775 15.525C13.9417 15.525 14.9333 15.15 15.75 14.4C16.5667 13.65 16.975 12.7417 16.975 11.675C16.975 10.725 16.6708 9.92083 16.0625 9.2625C15.4542 8.60417 14.7167 8.275 13.85 8.275C13.0667 8.275 12.4042 8.525 11.8625 9.025C11.3208 9.525 11.05 10.1417 11.05 10.875C11.05 11.1917 11.1125 11.5 11.2375 11.8C11.3625 12.1 11.5417 12.375 11.775 12.625L13.2 11.2C13.15 11.1667 13.1125 11.125 13.0875 11.075C13.0625 11.025 13.05 10.9667 13.05 10.9C13.05 10.7167 13.125 10.5708 13.275 10.4625C13.425 10.3542 13.6167 10.3 13.85 10.3C14.1833 10.3 14.4583 10.4375 14.675 10.7125C14.8917 10.9875 15 11.3167 15 11.7C15 12.2167 14.7875 12.6542 14.3625 13.0125C13.9375 13.3708 13.4167 13.55 12.8 13.55C12.0167 13.55 11.3542 13.2333 10.8125 12.6C10.2708 11.9667 10 11.1917 10 10.275C10 9.79167 10.0917 9.32917 10.275 8.8875C10.4583 8.44583 10.7167 8.05833 11.05 7.725L9.625 6.3C9.09167 6.81667 8.68333 7.41667 8.4 8.1C8.11667 8.78333 7.975 9.5 7.975 10.25C7.975 11.7167 8.44167 12.9625 9.375 13.9875C10.3083 15.0125 11.4417 15.525 12.775 15.525ZM6.5 22V17.7C5.55 16.8333 4.8125 15.8208 4.2875 14.6625C3.7625 13.5042 3.5 12.2833 3.5 11C3.5 8.5 4.375 6.375 6.125 4.625C7.875 2.875 10 2 12.5 2C14.5833 2 16.4292 2.6125 18.0375 3.8375C19.6458 5.0625 20.6917 6.65833 21.175 8.625L22.475 13.75C22.5583 14.0667 22.5 14.3542 22.3 14.6125C22.1 14.8708 21.8333 15 21.5 15H19.5V18C19.5 18.55 19.3042 19.0208 18.9125 19.4125C18.5208 19.8042 18.05 20 17.5 20H15.5V22H13.5V18H17.5V13H20.2L19.25 9.125C18.8667 7.60833 18.05 6.375 16.8 5.425C15.55 4.475 14.1167 4 12.5 4C10.5667 4 8.91667 4.675 7.55 6.025C6.18333 7.375 5.5 9.01667 5.5 10.95C5.5 11.95 5.70417 12.9 6.1125 13.8C6.52083 14.7 7.1 15.5 7.85 16.2L8.5 16.8V22H6.5Z"
			fill="white"
		/>
	</symbol>
	<symbol
		id="skill10"
		width="24"
		height="24"
		viewBox="0 0 24 24"
		fill="none"
		xmlns="http://www.w3.org/2000/svg"
	>
		<path
			d="M12 22C11.5667 22 11.175 21.8958 10.825 21.6875C10.475 21.4792 10.2 21.2 10 20.85C9.45 20.85 8.97917 20.6542 8.5875 20.2625C8.19583 19.8708 8 19.4 8 18.85V15.3C7.01667 14.65 6.22917 13.7917 5.6375 12.725C5.04583 11.6583 4.75 10.5 4.75 9.25C4.75 7.23333 5.45417 5.52083 6.8625 4.1125C8.27083 2.70417 9.98333 2 12 2C14.0167 2 15.7292 2.70417 17.1375 4.1125C18.5458 5.52083 19.25 7.23333 19.25 9.25C19.25 10.5333 18.9542 11.7 18.3625 12.75C17.7708 13.8 16.9833 14.65 16 15.3V18.85C16 19.4 15.8042 19.8708 15.4125 20.2625C15.0208 20.6542 14.55 20.85 14 20.85C13.8 21.2 13.525 21.4792 13.175 21.6875C12.825 21.8958 12.4333 22 12 22ZM10 18.85H14V17.95H10V18.85ZM10 16.95H14V16H10V16.95ZM9.8 14H11.25V11.3L9.05 9.1L10.1 8.05L12 9.95L13.9 8.05L14.95 9.1L12.75 11.3V14H14.2C15.1 13.5667 15.8333 12.9292 16.4 12.0875C16.9667 11.2458 17.25 10.3 17.25 9.25C17.25 7.78333 16.7417 6.54167 15.725 5.525C14.7083 4.50833 13.4667 4 12 4C10.5333 4 9.29167 4.50833 8.275 5.525C7.25833 6.54167 6.75 7.78333 6.75 9.25C6.75 10.3 7.03333 11.2458 7.6 12.0875C8.16667 12.9292 8.9 13.5667 9.8 14Z"
			fill="white"
		/>
	</symbol>
	<symbol
		id="skill11"
		width="24"
		height="24"
		viewBox="0 0 24 24"
		fill="none"
		xmlns="http://www.w3.org/2000/svg"
	>
		<g clip-path="url(#clip0_240_379)">
			<path
				d="M8.75 22.4248C7.98333 22.4248 7.29583 22.2248 6.6875 21.8248C6.07917 21.4248 5.60833 20.8748 5.275 20.1748C5.00833 20.5248 4.67083 20.7956 4.2625 20.9873C3.85417 21.179 3.43333 21.2748 3 21.2748C2.15 21.2748 1.4375 20.9831 0.8625 20.3998C0.2875 19.8165 0 19.1081 0 18.2748C0 17.5581 0.233333 16.9123 0.7 16.3373C1.16667 15.7623 1.75833 15.4331 2.475 15.3498C2.24167 15.0165 2.0625 14.6623 1.9375 14.2873C1.8125 13.9123 1.75 13.5165 1.75 13.0998C1.75 12.4331 1.92083 11.8081 2.2625 11.2248C2.60417 10.6415 3.08333 10.1665 3.7 9.7998C3.78333 10.0998 3.89583 10.4206 4.0375 10.7623C4.17917 11.104 4.34167 11.3998 4.525 11.6498C4.29167 11.8331 4.10833 12.054 3.975 12.3123C3.84167 12.5706 3.775 12.8415 3.775 13.1248C3.775 14.0581 4.15833 14.6331 4.925 14.8498C5.69167 15.0665 6.41667 15.2415 7.1 15.3748L7.575 16.1748C7.39167 16.7081 7.23333 17.1623 7.1 17.5373C6.96667 17.9123 6.9 18.2498 6.9 18.5498C6.9 19.0498 7.07917 19.4873 7.4375 19.8623C7.79583 20.2373 8.23333 20.4248 8.75 20.4248C9.38333 20.4248 9.90833 20.1415 10.325 19.5748C10.7417 19.0081 11.0833 18.3415 11.35 17.5748C11.6167 16.8081 11.8208 16.0331 11.9625 15.2498C12.1042 14.4665 12.2167 13.8665 12.3 13.4498L14.25 13.9748C14.1 14.7248 13.9167 15.5831 13.7 16.5498C13.4833 17.5165 13.1792 18.4373 12.7875 19.3123C12.3958 20.1873 11.8792 20.9248 11.2375 21.5248C10.5958 22.1248 9.76667 22.4248 8.75 22.4248ZM3 19.2748C3.28333 19.2748 3.52083 19.179 3.7125 18.9873C3.90417 18.7956 4 18.5581 4 18.2748C4 17.9915 3.90417 17.754 3.7125 17.5623C3.52083 17.3706 3.28333 17.2748 3 17.2748C2.71667 17.2748 2.47917 17.3706 2.2875 17.5623C2.09583 17.754 2 17.9915 2 18.2748C2 18.5581 2.09583 18.7956 2.2875 18.9873C2.47917 19.179 2.71667 19.2748 3 19.2748ZM10.1 15.3248C9.33333 14.6415 8.6375 14.004 8.0125 13.4123C7.3875 12.8206 6.85 12.2456 6.4 11.6873C5.95 11.129 5.60417 10.5706 5.3625 10.0123C5.12083 9.45397 5 8.8748 5 8.2748C5 7.19147 5.37083 6.27897 6.1125 5.5373C6.85417 4.79564 7.76667 4.4248 8.85 4.4248C8.91667 4.4248 8.975 4.42897 9.025 4.4373C9.075 4.44564 9.13333 4.4498 9.2 4.4498C9.13333 4.28314 9.08333 4.11647 9.05 3.9498C9.01667 3.78314 9 3.60814 9 3.4248C9 2.59147 9.29167 1.88314 9.875 1.2998C10.4583 0.716471 11.1667 0.424805 12 0.424805C12.8333 0.424805 13.5417 0.716471 14.125 1.2998C14.7083 1.88314 15 2.59147 15 3.4248C15 3.60814 14.9833 3.77897 14.95 3.9373C14.9167 4.09564 14.8667 4.25814 14.8 4.4248H15.15C16.15 4.4248 17 4.74564 17.7 5.3873C18.4 6.02897 18.8167 6.8248 18.95 7.7748C18.65 7.7248 18.3125 7.6998 17.9375 7.6998C17.5625 7.6998 17.2167 7.71647 16.9 7.7498C16.7833 7.36647 16.5708 7.0498 16.2625 6.7998C15.9542 6.5498 15.5833 6.4248 15.15 6.4248C14.5667 6.4248 14.1125 6.59564 13.7875 6.9373C13.4625 7.27897 13.0167 7.7748 12.45 8.4248H11.525C10.9417 7.74147 10.4875 7.2373 10.1625 6.9123C9.8375 6.5873 9.4 6.4248 8.85 6.4248C8.31667 6.4248 7.875 6.5998 7.525 6.9498C7.175 7.2998 7 7.74147 7 8.2748C7 8.65814 7.10833 9.05397 7.325 9.46231C7.54167 9.87064 7.84583 10.304 8.2375 10.7623C8.62917 11.2206 9.10417 11.7081 9.6625 12.2248C10.2208 12.7415 10.8417 13.2998 11.525 13.8998L10.1 15.3248ZM12 4.4248C12.2833 4.4248 12.5208 4.32897 12.7125 4.1373C12.9042 3.94564 13 3.70814 13 3.4248C13 3.14147 12.9042 2.90397 12.7125 2.7123C12.5208 2.52064 12.2833 2.4248 12 2.4248C11.7167 2.4248 11.4792 2.52064 11.2875 2.7123C11.0958 2.90397 11 3.14147 11 3.4248C11 3.70814 11.0958 3.94564 11.2875 4.1373C11.4792 4.32897 11.7167 4.4248 12 4.4248ZM15.225 22.4248C14.8583 22.4248 14.4958 22.3748 14.1375 22.2748C13.7792 22.1748 13.4333 22.0165 13.1 21.7998C13.2833 21.5665 13.4667 21.2915 13.65 20.9748C13.8333 20.6581 14 20.3665 14.15 20.0998C14.3333 20.2165 14.5167 20.2998 14.7 20.3498C14.8833 20.3998 15.0667 20.4248 15.25 20.4248C15.7833 20.4248 16.2292 20.2373 16.5875 19.8623C16.9458 19.4873 17.125 19.0415 17.125 18.5248C17.125 18.2081 17.0583 17.8665 16.925 17.4998C16.7917 17.1331 16.6333 16.6831 16.45 16.1498L16.925 15.3498C17.625 15.2165 18.3542 15.0415 19.1125 14.8248C19.8708 14.6081 20.25 14.0331 20.25 13.0998C20.25 12.4331 20.0042 11.9498 19.5125 11.6498C19.0208 11.3498 18.4833 11.1998 17.9 11.1998C17.2 11.1998 16.3833 11.3331 15.45 11.5998C14.5167 11.8665 13.425 12.2081 12.175 12.6248L11.65 10.6748C12.95 10.2581 14.1083 9.90814 15.125 9.6248C16.1417 9.34147 17.075 9.19981 17.925 9.19981C19.075 9.19981 20.0833 9.54147 20.95 10.2248C21.8167 10.9081 22.25 11.8665 22.25 13.0998C22.25 13.5165 22.1875 13.9123 22.0625 14.2873C21.9375 14.6623 21.7583 15.0165 21.525 15.3498C22.2417 15.4331 22.8333 15.7623 23.3 16.3373C23.7667 16.9123 24 17.5581 24 18.2748C24 19.1081 23.7125 19.8165 23.1375 20.3998C22.5625 20.9831 21.85 21.2748 21 21.2748C20.5667 21.2748 20.1458 21.179 19.7375 20.9873C19.3292 20.7956 18.9917 20.5248 18.725 20.1748C18.3917 20.8748 17.9208 21.4248 17.3125 21.8248C16.7042 22.2248 16.0083 22.4248 15.225 22.4248ZM21.025 19.2748C21.3083 19.2748 21.5417 19.179 21.725 18.9873C21.9083 18.7956 22 18.5581 22 18.2748C22 17.9915 21.9042 17.7498 21.7125 17.5498C21.5208 17.3498 21.2833 17.2498 21 17.2498C20.7167 17.2498 20.4792 17.3456 20.2875 17.5373C20.0958 17.729 20 17.9665 20 18.2498C20 18.5331 20.1 18.7748 20.3 18.9748C20.5 19.1748 20.7417 19.2748 21.025 19.2748Z"
				fill="white"
			/>
		</g>
		<defs>
			<clipPath id="clip0_240_379">
				<rect width="24" height="24" fill="white" />
			</clipPath>
		</defs>
	</symbol>
	<symbol
		id="skill12"
		width="24"
		height="24"
		viewBox="0 0 24 24"
		fill="none"
		xmlns="http://www.w3.org/2000/svg"
	>
		<path
			d="M6.8 20C6.3 20 5.875 19.825 5.525 19.475C5.175 19.125 5 18.7 5 18.2C5 17.85 5.1 17.5208 5.3 17.2125C5.5 16.9042 5.76667 16.6833 6.1 16.55L10 15V12.75C9.1 13.8 8.05417 14.6042 6.8625 15.1625C5.67083 15.7208 4.38333 16 3 16V14C4.13333 14 5.1625 13.7667 6.0875 13.3C7.0125 12.8333 7.85 12.1667 8.6 11.3L9.95 9.7C10.15 9.46667 10.3833 9.29167 10.65 9.175C10.9167 9.05833 11.2 9 11.5 9H12.5C12.8 9 13.0833 9.05833 13.35 9.175C13.6167 9.29167 13.85 9.46667 14.05 9.7L15.4 11.3C16.15 12.1667 16.9875 12.8333 17.9125 13.3C18.8375 13.7667 19.8667 14 21 14V16C19.6167 16 18.3292 15.7208 17.1375 15.1625C15.9458 14.6042 14.9 13.8 14 12.75V15L17.9 16.55C18.2333 16.6833 18.5 16.9042 18.7 17.2125C18.9 17.5208 19 17.85 19 18.2C19 18.7 18.825 19.125 18.475 19.475C18.125 19.825 17.7 20 17.2 20H10V19.5C10 19.0667 10.1417 18.7083 10.425 18.425C10.7083 18.1417 11.0667 18 11.5 18H14.5C14.65 18 14.7708 17.9542 14.8625 17.8625C14.9542 17.7708 15 17.65 15 17.5C15 17.35 14.9542 17.2292 14.8625 17.1375C14.7708 17.0458 14.65 17 14.5 17H11.5C10.8 17 10.2083 17.2417 9.725 17.725C9.24167 18.2083 9 18.8 9 19.5V20H6.8ZM12 8C11.45 8 10.9792 7.80417 10.5875 7.4125C10.1958 7.02083 10 6.55 10 6C10 5.45 10.1958 4.97917 10.5875 4.5875C10.9792 4.19583 11.45 4 12 4C12.55 4 13.0208 4.19583 13.4125 4.5875C13.8042 4.97917 14 5.45 14 6C14 6.55 13.8042 7.02083 13.4125 7.4125C13.0208 7.80417 12.55 8 12 8Z"
			fill="white"
		/>
	</symbol>
	<symbol
		id="skill13"
		width="24"
		height="24"
		viewBox="0 0 24 24"
		fill="none"
		xmlns="http://www.w3.org/2000/svg"
	>
		<path
			d="M12 22C10.6167 22 9.31667 21.7375 8.1 21.2125C6.88333 20.6875 5.825 19.975 4.925 19.075C4.025 18.175 3.3125 17.1167 2.7875 15.9C2.2625 14.6833 2 13.3833 2 12C2 10.6167 2.2625 9.31667 2.7875 8.1C3.3125 6.88333 4.025 5.825 4.925 4.925C5.825 4.025 6.88333 3.3125 8.1 2.7875C9.31667 2.2625 10.6167 2 12 2C13.3833 2 14.6833 2.2625 15.9 2.7875C17.1167 3.3125 18.175 4.025 19.075 4.925C19.975 5.825 20.6875 6.88333 21.2125 8.1C21.7375 9.31667 22 10.6167 22 12C22 13.3833 21.7375 14.6833 21.2125 15.9C20.6875 17.1167 19.975 18.175 19.075 19.075C18.175 19.975 17.1167 20.6875 15.9 21.2125C14.6833 21.7375 13.3833 22 12 22ZM17 9.5L18.35 9.05L18.75 7.7C18.2167 6.9 17.575 6.2125 16.825 5.6375C16.075 5.0625 15.25 4.63333 14.35 4.35L13 5.3V6.7L17 9.5ZM7 9.5L11 6.7V5.3L9.65 4.35C8.75 4.63333 7.925 5.0625 7.175 5.6375C6.425 6.2125 5.78333 6.9 5.25 7.7L5.65 9.05L7 9.5ZM5.95 17.2L7.1 17.1L7.85 15.75L6.4 11.4L5 10.9L4 11.65C4 12.7333 4.15 13.7208 4.45 14.6125C4.75 15.5042 5.25 16.3667 5.95 17.2ZM12 20C12.4333 20 12.8583 19.9667 13.275 19.9C13.6917 19.8333 14.1 19.7333 14.5 19.6L15.2 18.1L14.55 17H9.45L8.8 18.1L9.5 19.6C9.9 19.7333 10.3083 19.8333 10.725 19.9C11.1417 19.9667 11.5667 20 12 20ZM9.75 15H14.25L15.65 11L12 8.45L8.4 11L9.75 15ZM18.05 17.2C18.75 16.3667 19.25 15.5042 19.55 14.6125C19.85 13.7208 20 12.7333 20 11.65L19 10.95L17.6 11.4L16.15 15.75L16.9 17.1L18.05 17.2Z"
			fill="black"
		/>
	</symbol>
	<symbol
		id="skill14"
		width="24"
		height="24"
		viewBox="0 0 24 24"
		fill="none"
		xmlns="http://www.w3.org/2000/svg"
	>
		<path
			d="M12 21L5 17.2V11.2L1 9L12 3L23 9V17H21V10.1L19 11.2V17.2L12 21ZM12 12.7L18.85 9L12 5.3L5.15 9L12 12.7ZM12 18.725L17 16.025V12.25L12 15L7 12.25V16.025L12 18.725Z"
			fill="black"
		/>
	</symbol>
	<symbol
		id="skill15"
		width="24"
		height="24"
		viewBox="0 0 24 24"
		fill="none"
		xmlns="http://www.w3.org/2000/svg"
	>
		<path
			d="M15 21L9 18.9L4.35 20.7C4.01667 20.8333 3.70833 20.7958 3.425 20.5875C3.14167 20.3792 3 20.1 3 19.75V5.75C3 5.53333 3.0625 5.34167 3.1875 5.175C3.3125 5.00833 3.48333 4.88333 3.7 4.8L9 3L15 5.1L19.65 3.3C19.9833 3.16667 20.2917 3.20417 20.575 3.4125C20.8583 3.62083 21 3.9 21 4.25V18.25C21 18.4667 20.9375 18.6583 20.8125 18.825C20.6875 18.9917 20.5167 19.1167 20.3 19.2L15 21ZM14 18.55V6.85L10 5.45V17.15L14 18.55ZM16 18.55L19 17.55V5.7L16 6.85V18.55ZM5 18.3L8 17.15V5.45L5 6.45V18.3Z"
			fill="black"
		/>
	</symbol>

	<!-- APPS -->
	<symbol
		id="appDecMobile"
		width="177"
		height="40"
		viewBox="0 0 177 40"
		fill="none"
		xmlns="http://www.w3.org/2000/svg"
	>
		<path
			d="M75.6014 1.00001L137.082 1.00009C158.576 1.00012 176 18.4241 176 39.9176H0.255859L54.8572 6.79944C61.1116 3.00588 68.2865 1 75.6014 1.00001Z"
			fill="#F7F5F7"
		/>
		<path
			d="M176 39.5V39.5C176 18.237 158.763 1.00012 137.5 1.00009L75.5349 1.00001C68.2619 1 61.1265 2.98295 54.8963 6.73554L0.5 39.5"
			stroke="#BFBFBF"
			stroke-linecap="round"
		/>
	</symbol>
	<symbol
		id="appDecDesktop"
		width="272"
		height="55"
		viewBox="0 0 272 55"
		fill="none"
		xmlns="http://www.w3.org/2000/svg"
	>
		<path
			d="M88.1027 1H231.5C253.591 1 271.5 18.9086 271.5 41V53.9552H1L64.8886 8.42538C71.6658 3.59566 79.7807 1 88.1027 1Z"
			fill="#F7F5F7"
		/>
		<path
			fill-rule="evenodd"
			clip-rule="evenodd"
			d="M64.597 8.0182C71.4589 3.1281 79.6752 0.5 88.1013 0.5H231.498C253.866 0.5 271.998 18.6325 271.998 41V53.4552C271.998 53.7313 271.775 53.9552 271.498 53.9552C271.222 53.9552 270.998 53.7313 270.998 53.4552V41C270.998 19.1848 253.313 1.5 231.498 1.5H88.1013C79.8833 1.5 71.8698 4.06321 65.1774 8.83257L1.48732 54.0256C1.26243 54.1852 0.950796 54.1326 0.790764 53.908C0.630274 53.6828 0.683074 53.3701 0.908608 53.2101L64.597 8.0182Z"
			fill="#BFBFBF"
		/>
	</symbol>
	<symbol id="jira" width="48" height="48" viewBox="0 0 48 48" fill="none" xmlns="http://www.w3.org/2000/svg">
		<rect width="48" height="48" rx="24" fill="black" />
		<g clip-path="url(#clip0_100_592)">
			<path
				d="M33.6565 23.4468L25.1526 14.9429L24.3286 14.1189L17.9271 20.5204L14.9998 23.4468C14.8536 23.5938 14.7715 23.7927 14.7715 24C14.7715 24.2073 14.8536 24.4062 14.9998 24.5532L20.8482 30.4015L24.3286 33.8811L30.7293 27.4796L30.829 27.3808L33.6565 24.5576C33.7298 24.4848 33.788 24.3983 33.8277 24.303C33.8673 24.2077 33.8878 24.1055 33.8878 24.0022C33.8878 23.899 33.8673 23.7967 33.8277 23.7014C33.788 23.6061 33.7298 23.5196 33.6565 23.4468ZM24.3286 26.922L21.4066 24L24.3286 21.078L27.2497 24L24.3286 26.922Z"
				fill="#2684FF"
			/>
			<path
				d="M24.3288 21.0781C23.4099 20.1594 22.8918 18.9143 22.8879 17.6148C22.8839 16.3154 23.3943 15.0672 24.3077 14.1428L17.9141 20.5338L21.3936 24.0133L24.3288 21.0781Z"
				fill="url(#paint0_linear_100_592)"
			/>
			<path
				d="M27.2572 23.9919L24.3281 26.9219C25.2506 27.8446 25.7688 29.0958 25.7688 30.4005C25.7688 31.7053 25.2506 32.9565 24.3281 33.8792L30.7394 27.4715L27.2572 23.9919Z"
				fill="url(#paint1_linear_100_592)"
			/>
		</g>
		<defs>
			<linearGradient
				id="paint0_linear_100_592"
				x1="23.8057"
				y1="18.1217"
				x2="19.7253"
				y2="22.2012"
				gradientUnits="userSpaceOnUse"
			>
				<stop offset="0.18" stop-color="#0052CC" />
				<stop offset="1" stop-color="#2684FF" />
			</linearGradient>
			<linearGradient
				id="paint1_linear_100_592"
				x1="24.8857"
				y1="29.843"
				x2="28.9581"
				y2="25.7714"
				gradientUnits="userSpaceOnUse"
			>
				<stop offset="0.18" stop-color="#0052CC" />
				<stop offset="1" stop-color="#2684FF" />
			</linearGradient>
			<clipPath id="clip0_100_592">
				<rect width="18.888" height="20" fill="white" transform="translate(15 14)" />
			</clipPath>
		</defs>
	</symbol>
	<symbol
		id="slack"
		width="48"
		height="48"
		viewBox="0 0 48 48"
		fill="none"
		xmlns="http://www.w3.org/2000/svg"
	>
		<rect x="0.5" y="0.5" width="47" height="47" rx="23.5" fill="#F7F5F7" />
		<rect x="0.5" y="0.5" width="47" height="47" rx="23.5" stroke="#BFBFBF" />
		<g clip-path="url(#clip0_100_597)">
			<path
				fill-rule="evenodd"
				clip-rule="evenodd"
				d="M21.3329 14C20.2273 14.0008 19.3326 14.898 19.3334 16.0036C19.3326 17.1092 20.2281 18.0064 21.3337 18.0072H23.334V16.0044C23.3349 14.8988 22.4393 14.0016 21.3329 14C21.3337 14 21.3337 14 21.3329 14ZM21.3329 19.344H16.0003C14.8948 19.3448 13.9992 20.242 14 21.3476C13.9984 22.4532 14.8939 23.3504 15.9995 23.352H21.3329C22.4385 23.3512 23.334 22.454 23.3332 21.3484C23.334 20.242 22.4385 19.3448 21.3329 19.344Z"
				fill="#36C5F0"
			/>
			<path
				fill-rule="evenodd"
				clip-rule="evenodd"
				d="M33.9992 21.3476C34.0001 20.242 33.1045 19.3448 31.9989 19.344C30.8933 19.3448 29.9978 20.242 29.9986 21.3476V23.352H31.9989C33.1045 23.3512 34.0001 22.454 33.9992 21.3476ZM28.6659 21.3476V16.0036C28.6667 14.8988 27.7719 14.0016 26.6663 14C25.5608 14.0008 24.6652 14.898 24.666 16.0036V21.3476C24.6644 22.4532 25.56 23.3504 26.6655 23.352C27.7711 23.3512 28.6667 22.454 28.6659 21.3476Z"
				fill="#2EB67D"
			/>
			<path
				fill-rule="evenodd"
				clip-rule="evenodd"
				d="M26.6663 34.0401C27.7719 34.0393 28.6675 33.1421 28.6667 32.0365C28.6675 30.9309 27.7719 30.0337 26.6663 30.0329H24.666V32.0365C24.6652 33.1413 25.5608 34.0385 26.6663 34.0401ZM26.6663 28.6953H31.9997C33.1053 28.6944 34.0009 27.7972 34.0001 26.6917C34.0017 25.5861 33.1061 24.6889 32.0005 24.6873H26.6672C25.5616 24.6881 24.666 25.5853 24.6668 26.6909C24.666 27.7972 25.5608 28.6944 26.6663 28.6953Z"
				fill="#ECB22E"
			/>
			<path
				fill-rule="evenodd"
				clip-rule="evenodd"
				d="M14 26.6916C13.9992 27.7972 14.8948 28.6944 16.0003 28.6952C17.1059 28.6944 18.0015 27.7972 18.0007 26.6916V24.688H16.0003C14.8948 24.6888 13.9992 25.586 14 26.6916ZM19.3334 26.6916V32.0356C19.3318 33.1412 20.2273 34.0384 21.3329 34.04C22.4385 34.0392 23.334 33.142 23.3332 32.0364V26.6932C23.3349 25.5876 22.4393 24.6904 21.3337 24.6888C20.2273 24.6888 19.3326 25.586 19.3334 26.6916Z"
				fill="#E01E5A"
			/>
		</g>
		<defs>
			<clipPath id="clip0_100_597">
				<rect width="20" height="20.04" fill="white" transform="translate(14 14)" />
			</clipPath>
		</defs>
	</symbol>
	<symbol
		id="trello"
		width="48"
		height="48"
		viewBox="0 0 48 48"
		fill="none"
		xmlns="http://www.w3.org/2000/svg"
	>
		<rect width="48" height="48" rx="24" fill="#0091E6" />
		<rect width="48" height="48" rx="24" fill="url(#paint0_linear_100_604)" />
		<path
			fill-rule="evenodd"
			clip-rule="evenodd"
			d="M32.0469 14H15.9531C14.8744 14 14 14.8744 14 15.9531V32.0469C14 33.1256 14.8744 34 15.9531 34H32.0469C33.1256 34 34 33.1256 34 32.0469V15.9531C34 14.8744 33.1256 14 32.0469 14ZM30.4625 16.6H26.2375C25.7197 16.6 25.3 17.0197 25.3 17.5375V24.4125C25.3 24.9303 25.7197 25.35 26.2375 25.35H30.4625C30.9803 25.35 31.4 24.9303 31.4 24.4125V17.5375C31.4 17.0197 30.9803 16.6 30.4625 16.6ZM17.5375 16.6H21.7625C22.2803 16.6 22.7 17.0197 22.7 17.5375V29.4125C22.7 29.9303 22.2803 30.35 21.7625 30.35H17.5375C17.0197 30.35 16.6 29.9303 16.6 29.4125V17.5375C16.6 17.0197 17.0197 16.6 17.5375 16.6Z"
			fill="url(#paint1_linear_100_604)"
		/>
		<path
			fill-rule="evenodd"
			clip-rule="evenodd"
			d="M32.0469 14H15.9531C14.8744 14 14 14.8744 14 15.9531V32.0469C14 33.1256 14.8744 34 15.9531 34H32.0469C33.1256 34 34 33.1256 34 32.0469V15.9531C34 14.8744 33.1256 14 32.0469 14ZM30.4625 16.6H26.2375C25.7197 16.6 25.3 17.0197 25.3 17.5375V24.4125C25.3 24.9303 25.7197 25.35 26.2375 25.35H30.4625C30.9803 25.35 31.4 24.9303 31.4 24.4125V17.5375C31.4 17.0197 30.9803 16.6 30.4625 16.6ZM17.5375 16.6H21.7625C22.2803 16.6 22.7 17.0197 22.7 17.5375V29.4125C22.7 29.9303 22.2803 30.35 21.7625 30.35H17.5375C17.0197 30.35 16.6 29.9303 16.6 29.4125V17.5375C16.6 17.0197 17.0197 16.6 17.5375 16.6Z"
			fill="white"
		/>
		<defs>
			<linearGradient
				id="paint0_linear_100_604"
				x1="2400"
				y1="0"
				x2="2400"
				y2="4800"
				gradientUnits="userSpaceOnUse"
			>
				<stop stop-color="#0091E6" />
				<stop offset="1" stop-color="#0079BF" />
			</linearGradient>
			<linearGradient
				id="paint1_linear_100_604"
				x1="1014"
				y1="14"
				x2="1014"
				y2="2014"
				gradientUnits="userSpaceOnUse"
			>
				<stop stop-color="#0091E6" />
				<stop offset="1" stop-color="#0079BF" />
			</linearGradient>
		</defs>
	</symbol>
	<symbol
		id="teamGantt"
		width="48"
		height="48"
		viewBox="0 0 48 48"
		fill="none"
		xmlns="http://www.w3.org/2000/svg"
	>
		<rect x="0.5" y="0.5" width="47" height="47" rx="23.5" fill="#F7F5F7" />
		<rect x="0.5" y="0.5" width="47" height="47" rx="23.5" stroke="#BFBFBF" />
		<path
			d="M36.7857 20H10.2143C10.0804 20 10 19.873 10 19.746V14.254C10 14.0952 10.1071 14 10.2143 14H36.7857C36.8929 14 37 14.127 37 14.254V19.746C37 19.9048 36.8929 20 36.7857 20Z"
			fill="#62BDD5"
		/>
		<path
			d="M36.7884 27H17.2116C17.1058 27 17 26.8743 17 26.7487V21.2513C17 21.0942 17.1058 21 17.2116 21H36.7884C36.8942 21 37 21.1257 37 21.2513V26.7487C37 26.8743 36.8942 27 36.7884 27Z"
			fill="#A2BF55"
		/>
		<path
			d="M36.7782 33H23.2218C23.1109 33 23 32.8931 23 32.7861V28.2139C23 28.1069 23.0832 28 23.2218 28H36.7782C36.8891 28 37 28.1069 37 28.2139V32.7861C37 32.9198 36.9168 33 36.7782 33Z"
			fill="#B86FD7"
		/>
	</symbol>
	<symbol
		id="workSection"
		width="48"
		height="48"
		viewBox="0 0 48 48"
		fill="none"
		xmlns="http://www.w3.org/2000/svg"
	>
		<rect width="48" height="48" rx="24" fill="#77BB00" />
		<circle cx="24.858" cy="24.0001" r="10.2857" fill="#77BB00" />
		<path
			d="M24 12C17.3733 12 12 17.372 12 24C12 30.628 17.3733 36 24 36C30.6266 36 36 30.628 36 24C36 17.372 30.6266 12 24 12ZM31.22 22.3893C30.608 22.932 29.2346 23.0039 29.0947 23.116C28.9346 23.2426 28.888 23.48 28.888 24.1347V27.7466C28.884 29.5267 27.4346 30.9746 25.6586 30.976H25.4813C24.6973 30.9746 23.9254 30.6773 23.34 30.1573C22.752 30.6787 21.9787 30.9746 21.1973 30.976H21.02C19.2427 30.9746 17.7933 29.5267 17.7907 27.7466V22.1894C17.7907 21.5894 18.28 21.1013 18.88 21.1013C19.4786 21.1013 19.9654 21.5907 19.9654 22.1894V27.7466C19.9667 28.3174 20.4506 28.8014 21.02 28.8014H21.1987C21.7693 28.8 22.252 28.3174 22.2533 27.7454V25.3947C22.2533 24.7947 22.7413 24.3067 23.3413 24.3067C23.9413 24.3067 24.428 24.796 24.428 25.3947V27.7466C24.4294 28.3174 24.912 28.8014 25.4827 28.8014H25.66C26.228 28.8 26.712 28.3173 26.7133 27.744V21.636C26.7133 20.2547 27.192 19.0733 28.0427 18.288C29.2213 17.1987 31.748 17.232 32.232 17.8494C32.7307 18.488 32.404 21.3373 31.22 22.3893Z"
			fill="white"
		/>
	</symbol>
	<symbol id="miro" width="48" height="48" viewBox="0 0 48 48" fill="none" xmlns="http://www.w3.org/2000/svg">
		<rect width="48" height="48" rx="24" fill="#FFD02F" />
		<path
			d="M28.6351 14H25.7081L28.146 18.284L22.7811 14H19.854L22.5365 19.2387L16.927 14H14L16.927 20.6667L14 34H16.927L22.5365 19.712L19.854 34H22.7811L28.146 18.7653L25.7081 34H28.6351L34 17.3294L28.6351 14Z"
			fill="#050038"
		/>
	</symbol>
	<symbol id="gpt" width="48" height="48" viewBox="0 0 48 48" fill="none" xmlns="http://www.w3.org/2000/svg">
		<rect width="48" height="48" rx="24" fill="#74AA9C" />
		<path
			d="M22.3708 13.3187C20.0344 13.3187 17.9587 14.823 17.2354 17.0446L16.9746 18.5701V23.6266C16.9746 23.8795 17.1044 24.104 17.3215 24.234L21.3867 26.5798V19.6313H21.3879V19.3016L25.5026 16.9217C25.9005 16.691 26.3338 16.5334 26.7826 16.451L26.3864 15.1054C25.3645 13.9615 23.9025 13.3116 22.3708 13.3187ZM22.3708 14.7072L22.3638 14.7142C23.3042 14.7142 24.2081 15.0392 24.9315 15.6407C24.902 15.6549 24.8442 15.6915 24.8017 15.7128L20.5477 18.166C20.3306 18.2889 20.2008 18.5205 20.2008 18.7734V24.5318L18.3706 23.4753V18.7155C18.3694 16.5045 20.1595 14.7107 22.3708 14.7072Z"
			fill="white"
		/>
		<path
			d="M32.1727 17.6799C31.0045 15.6537 28.6657 14.6057 26.3828 15.0891L24.9331 15.6258L20.5603 18.154C20.3416 18.2804 20.2123 18.5053 20.2085 18.7586L20.2124 23.457L26.2215 19.9828L26.2221 19.9838L26.5072 19.8189L30.6227 22.1975C31.0211 22.4272 31.3741 22.7242 31.6697 23.0722L32.6353 22.0559C33.1136 20.5977 32.9446 19.0047 32.1727 17.6799ZM30.9719 18.3742L30.9622 18.3716C31.4325 19.1872 31.6034 20.1336 31.4449 21.0617C31.4179 21.0432 31.3573 21.0114 31.3177 20.9852L27.0692 18.5225C26.8543 18.3956 26.5891 18.3989 26.3704 18.5253L21.3906 21.4045L21.3891 19.289L25.5054 16.9091C27.4168 15.8026 29.8632 16.4582 30.9719 18.3742Z"
			fill="white"
		/>
		<path
			d="M33.3018 28.3613C34.47 26.335 34.207 23.7827 32.6474 22.0446L31.4585 21.0556L27.0857 18.5274C26.867 18.401 26.6079 18.4013 26.387 18.5246L22.3257 20.8772L28.3348 24.3515L28.3342 24.3525L28.6193 24.5173L28.6201 29.2758C28.6207 29.7362 28.5403 30.1908 28.3871 30.6212L29.7489 30.9505C31.2491 30.6362 32.5421 29.6932 33.3018 28.3613ZM32.1011 27.667L32.0985 27.6574C31.6282 28.473 30.8953 29.0944 30.0134 29.421C30.0159 29.3883 30.0131 29.3199 30.016 29.2724L30.0215 24.3565C30.0237 24.1068 29.8883 23.8784 29.6696 23.7519L24.6898 20.8727L26.5185 19.8137L30.6348 22.1936C32.5474 23.2981 33.2037 25.7475 32.1011 27.667Z"
			fill="white"
		/>
		<path
			d="M24.6292 34.6816C26.9656 34.6816 29.0413 33.1773 29.7646 30.9557L30.0254 29.4301V24.3736C30.0254 24.1208 29.8956 23.8962 29.6785 23.7662L25.6133 21.4204V28.369H25.6121V28.6986L21.4974 31.0786C21.0995 31.3093 20.6662 31.4669 20.2174 31.5492L20.6136 32.8949C21.6355 34.0387 23.0975 34.6887 24.6292 34.6816ZM24.6292 33.2931L24.6362 33.286C23.6958 33.286 22.7919 32.961 22.0685 32.3595C22.098 32.3454 22.1558 32.3087 22.1983 32.2875L26.4523 29.8343C26.6694 29.7114 26.7992 29.4798 26.7992 29.2269V23.4685L28.6294 24.5249V29.2848C28.6306 31.4957 26.8405 33.2895 24.6292 33.2931Z"
			fill="white"
		/>
		<path
			d="M14.8273 30.3201C15.9955 32.3463 18.3343 33.3943 20.6172 32.9109L22.0669 32.3742L26.4397 29.846C26.6584 29.7196 26.7877 29.4947 26.7915 29.2414L26.7876 24.543L20.7785 28.0172L20.7779 28.0162L20.4928 28.1811L16.3773 25.8025C15.9789 25.5728 15.6259 25.2758 15.3303 24.9278L14.3647 25.9441C13.8864 27.4023 14.0554 28.9953 14.8273 30.3201ZM16.0281 29.6258L16.0378 29.6284C15.5675 28.8128 15.3966 27.8664 15.5551 26.9383C15.5821 26.9568 15.6427 26.9886 15.6823 27.0148L19.9308 29.4775C20.1457 29.6044 20.4109 29.6011 20.6296 29.4747L25.6094 26.5955L25.6109 28.711L21.4946 31.0909C19.5832 32.1974 17.1368 31.5418 16.0281 29.6258Z"
			fill="white"
		/>
		<path
			d="M13.6982 19.6387C12.53 21.665 12.793 24.2173 14.3526 25.9554L15.5415 26.9444L19.9143 29.4726C20.133 29.599 20.3921 29.5987 20.613 29.4754L24.6743 27.1228L18.6652 23.6485L18.6658 23.6475L18.3807 23.4827L18.3799 18.7242C18.3793 18.2638 18.4597 17.8092 18.6129 17.3788L17.2511 17.0495C15.7509 17.3638 14.4579 18.3068 13.6982 19.6387ZM14.8989 20.333L14.9015 20.3426C15.3718 19.527 16.1047 18.9056 16.9866 18.579C16.9841 18.6117 16.9869 18.6801 16.984 18.7276L16.9785 23.6435C16.9763 23.8932 17.1117 24.1216 17.3304 24.2481L22.3102 27.1273L20.4815 28.1863L16.3652 25.8064C14.4526 24.7019 13.7963 22.2525 14.8989 20.333Z"
			fill="white"
		/>
	</symbol>
	<symbol
		id="hotjar"
		width="48"
		height="48"
		viewBox="0 0 48 48"
		fill="none"
		xmlns="http://www.w3.org/2000/svg"
	>
		<rect width="48" height="48" rx="24" fill="#FF3C00" />
		<path
			d="M22.6802 22.4303C24.7842 21.2614 27.6658 19.6601 27.6658 15H24.1765C24.1765 17.6074 22.9072 18.3126 20.9856 19.3801C18.8816 20.5494 16 22.1499 16 26.8105H19.4893C19.4893 24.203 20.7587 23.4978 22.6802 22.4303Z"
			fill="#F7F5F7"
		/>
		<path
			d="M28.7195 21.3594C28.7195 23.9669 27.4501 24.6721 25.5286 25.7394C23.4252 26.9083 20.543 28.5093 20.543 33.1698H24.0321C24.0321 30.5623 25.3015 29.8571 27.223 28.7896C29.327 27.6207 32.2085 26.0199 32.2085 21.3594H28.7195Z"
			fill="#F7F5F7"
		/>
	</symbol>
	<symbol
		id="similarWeb"
		width="48"
		height="48"
		viewBox="0 0 48 48"
		fill="none"
		xmlns="http://www.w3.org/2000/svg"
	>
		<rect width="48" height="48" rx="24" fill="#092540" />
		<path
			d="M32.5197 18.9447C31.5208 17.387 30.0748 16.0857 28.4158 15.4246L27.9247 15.2581C27.3826 15.0905 26.8188 15.0035 26.2515 15C24.4543 15.0083 23 16.4953 23 18.3303C23 19.0946 23.2522 19.7973 23.6751 20.3568L23.472 20.0904C23.5694 20.2352 23.6751 20.3784 23.7975 20.5233C24.3136 21.1477 25.0461 21.7963 25.9951 22.5323C28.3301 24.339 29.8443 25.9426 29.9691 27.9299C29.9991 28.198 30.0174 28.4719 30.0174 28.7492C30.0174 29.7591 29.7976 30.8281 29.4231 31.5799H29.4264C29.4264 31.5799 29.2657 31.8738 29.3664 31.9596C29.4181 32.0037 29.5296 32.037 29.7244 31.918C30.7703 31.2373 31.6706 30.3558 32.3732 29.3245C33.4087 27.7979 33.9739 26.0012 33.9989 24.1567C34.0267 22.312 33.5123 20.4997 32.5197 18.9447Z"
			fill="#F7F5F7"
		/>
		<path
			d="M25.3519 26.0578L23.7122 24.833C20.278 22.5649 18.4918 20.1186 19.4708 17.102C19.5594 16.8275 19.6686 16.5606 19.7937 16.2995V16.2962C19.7937 16.2962 20.0363 15.8358 19.5081 16.063C17.9239 16.8417 16.5869 17.9754 15.6252 19.3557C14.6634 20.7359 14.1091 22.3164 14.0152 23.946C13.8918 26.0251 14.5209 28.0839 15.807 29.8101C16.3263 30.4702 16.9615 31.0489 17.6874 31.5232H17.6846C21.3055 33.9358 24.4112 32.6661 24.4112 32.6661H24.414C25.1842 32.3719 25.8409 31.8777 26.3011 31.246C26.7613 30.6143 27.0045 29.8733 26.9999 29.1166C27.0034 28.5264 26.8564 27.9435 26.5704 27.4131C26.2844 26.8827 25.8671 26.4193 25.351 26.0587L25.3519 26.0578Z"
			fill="#F7F5F7"
		/>
	</symbol>
	<symbol
		id="vsCode"
		width="48"
		height="48"
		viewBox="0 0 48 48"
		fill="none"
		xmlns="http://www.w3.org/2000/svg"
	>
		<rect width="48" height="48" rx="24" fill="#3C99D4" />
		<g clip-path="url(#clip0_100_583)">
			<path
				opacity="0.4"
				d="M14.5717 21.0208C14.5717 21.0208 14.0982 20.6796 14.6663 20.2239L15.99 19.0403C15.99 19.0403 16.3688 18.6418 16.7692 18.989L28.9841 28.2369V32.6715C28.9841 32.6715 28.9781 33.3678 28.0845 33.2909L14.5717 21.0208Z"
				fill="white"
			/>
			<path
				opacity="0.7"
				d="M17.7199 23.8792L14.5715 26.7415C14.5715 26.7415 14.248 26.9822 14.5715 27.4122L16.0333 28.7418C16.0333 28.7418 16.3805 29.1146 16.8934 28.6905L20.2311 26.1596L17.7199 23.8792Z"
				fill="white"
			/>
			<path
				opacity="0.4"
				d="M23.2467 23.9028L29.0207 19.4938L28.9832 15.0829C28.9832 15.0829 28.7367 14.1203 27.9141 14.6213L20.2305 21.6145L23.2467 23.9028Z"
				fill="white"
			/>
			<path
				d="M28.0837 33.2968C28.4191 33.6401 28.8254 33.5276 28.8254 33.5276L33.3251 31.3103C33.9011 30.9178 33.8203 30.4305 33.8203 30.4305V17.1899C33.8203 16.608 33.2245 16.4067 33.2245 16.4067L29.3245 14.5268C28.4723 14.0001 27.9141 14.6215 27.9141 14.6215C27.9141 14.6215 28.6321 14.1046 28.9833 15.0831V32.5906C28.9833 32.7109 28.9576 32.8293 28.9063 32.9358C28.8037 33.143 28.5808 33.3363 28.0462 33.2554L28.0837 33.2968Z"
				fill="white"
			/>
		</g>
		<defs>
			<clipPath id="clip0_100_583">
				<rect width="20" height="19.64" fill="white" transform="translate(14 14)" />
			</clipPath>
		</defs>
	</symbol>
	<symbol id="word" width="48" height="48" viewBox="0 0 48 48" fill="none" xmlns="http://www.w3.org/2000/svg">
		<rect width="48" height="48" rx="24" fill="#2A5699" />
		<g clip-path="url(#clip0_100_545)">
			<path
				d="M24.4523 14H25.8107V15.8605C28.2414 15.8744 30.6698 15.8348 33.0983 15.8744C33.6162 15.8208 34.0228 16.2326 33.9752 16.7628C34.0137 21.3442 33.9661 25.9278 33.9979 30.5092C33.9752 30.979 34.0433 31.4999 33.7774 31.9161C33.4458 32.158 33.0163 32.1278 32.6304 32.1462C30.3562 32.1349 28.0846 32.1395 25.8107 32.1395V34H24.3911C20.9338 33.3535 17.4671 32.7606 14.003 32.1395C14.0006 26.714 14.003 21.2884 14.003 15.8651C17.4851 15.2419 20.9698 14.635 24.4523 14Z"
				fill="white"
			/>
			<path
				d="M25.8117 16.5581H33.308V31.4418H25.8117V29.5814H31.7179V28.6511H25.8117V27.4883H31.7179V26.5581H25.8117V25.3953H31.7179V24.4651H25.8117V23.3023H31.7179V22.3721H25.8117V21.2093H31.7179V20.279H25.8117V19.1162H31.7179V18.186H25.8117V16.5581ZM18.6969 20.6673C19.1285 20.6418 19.5601 20.6232 19.9917 20.6C20.2938 22.1698 20.6027 23.7371 20.9298 25.2999C21.1866 23.6859 21.4707 22.0766 21.7453 20.4651C22.1996 20.4489 22.6539 20.4232 23.1061 20.3953C22.5927 22.6487 22.1429 24.9209 21.5817 27.1603C21.2022 27.3628 20.6343 27.151 20.1846 27.1836C19.8823 25.6442 19.5303 24.1138 19.2599 22.5674C18.9942 24.0697 18.6489 25.5581 18.3445 27.0513C17.9084 27.0281 17.4701 27.0002 17.0314 26.9698C16.6544 24.9233 16.2114 22.8908 15.8594 20.8396C16.2477 20.821 16.6385 20.8046 17.027 20.7907C17.2609 22.272 17.5268 23.7466 17.7312 25.2301C18.052 23.7094 18.3789 22.1884 18.6969 20.6673Z"
				fill="#2A5699"
			/>
		</g>
		<defs>
			<clipPath id="clip0_100_545">
				<rect width="20" height="20" fill="white" transform="translate(14 14)" />
			</clipPath>
		</defs>
	</symbol>
	<symbol
		id="excel"
		width="48"
		height="48"
		viewBox="0 0 48 48"
		fill="none"
		xmlns="http://www.w3.org/2000/svg"
	>
		<rect width="48" height="48" rx="24" fill="#207245" />
		<g clip-path="url(#clip0_100_549)">
			<path
				d="M24.9835 14H26.4003V15.8605C28.788 15.8605 31.1755 15.8651 33.563 15.8534C33.9662 15.8696 34.4098 15.8419 34.7603 16.0767C35.0059 16.4208 34.9775 16.858 34.9941 17.2534C34.9823 21.2906 34.987 25.3256 34.9895 29.3604C34.9777 30.0372 35.0538 30.7278 34.9084 31.3953C34.813 31.8791 34.2167 31.8906 33.8183 31.907C31.3472 31.9139 28.8738 31.9023 26.4003 31.907V34H24.919C21.2839 33.3557 17.6416 32.7606 14.002 32.1395V15.8629C17.6633 15.2419 21.3245 14.6303 24.9835 14Z"
				fill="white"
			/>
			<path
				d="M26.4004 16.5581H34.2716V31.2093H26.4004V29.8139H28.3086V28.186H26.4004V27.2558H28.3086V25.6279H26.4004V24.6976H28.3086V23.0697H26.4004V22.1395H28.3086V20.5116H26.4004V19.5814H28.3086V17.9535H26.4004V16.5581Z"
				fill="#207245"
			/>
			<path d="M29.2617 17.9534H32.601V19.5813H29.2617V17.9534Z" fill="white" />
			<path
				d="M21.0663 20.1324C21.6054 20.0952 22.1469 20.0626 22.6883 20.0371C22.0524 21.3104 21.4108 22.5809 20.7635 23.8486C21.4195 25.151 22.0895 26.444 22.7478 27.7463C22.1736 27.7142 21.5996 27.6785 21.0259 27.6393C20.6204 26.6695 20.1266 25.7324 19.8356 24.7184C19.5114 25.6626 19.0485 26.5532 18.6766 27.479C18.1541 27.4719 17.6316 27.4511 17.1094 27.43C17.7223 26.2604 18.3138 25.0812 18.9458 23.9184C18.4092 22.7206 17.82 21.5463 17.2666 20.3556C17.7914 20.3253 18.3161 20.2952 18.8408 20.2672C19.1961 21.1766 19.5848 22.0741 19.8785 23.0068C20.1932 22.0185 20.6631 21.0883 21.0663 20.1324Z"
				fill="#207245"
			/>
			<path
				d="M29.2617 20.5117H32.601V22.1396H29.2617V20.5117ZM29.2617 23.0699H32.601V24.6978H29.2617V23.0699ZM29.2617 25.628H32.601V27.2559H29.2617V25.628ZM29.2617 28.1861H32.601V29.814H29.2617V28.1861Z"
				fill="white"
			/>
		</g>
		<defs>
			<clipPath id="clip0_100_549">
				<rect width="21" height="20" fill="white" transform="translate(14 14)" />
			</clipPath>
		</defs>
	</symbol>
	<symbol
		id="powerPoint"
		width="48"
		height="48"
		viewBox="0 0 48 48"
		fill="none"
		xmlns="http://www.w3.org/2000/svg"
	>
		<rect width="48" height="48" rx="24" fill="#D24625" />
		<g clip-path="url(#clip0_100_556)">
			<path
				d="M25.0489 14H26.4012V16.093C28.9511 16.107 31.5032 16.0673 34.0506 16.1046C34.5992 16.0534 35.0286 16.4696 34.9738 17.0045C35.0143 21.3487 34.9643 25.6951 34.9977 30.0417C34.9738 30.5114 35.0454 31.0324 34.7687 31.4486C34.4205 31.6951 33.9673 31.6625 33.5593 31.6811C31.1741 31.6696 28.7889 31.6742 26.4012 31.6742V33.9998H24.9178C21.2827 33.3533 17.6404 32.7626 14.0031 32.1393C14.0006 26.7139 14.0031 21.2882 14.0031 15.8649C17.6831 15.2443 21.3636 14.6117 25.0489 14Z"
				fill="white"
			/>
			<path
				d="M26.4005 16.7908H34.2717V30.9768H26.4005V29.1164H32.125V28.1861H26.4005V27.0233H32.125V26.0931H26.403C26.4005 25.6373 26.4005 25.1815 26.3984 24.7257C27.343 25.0116 28.4186 25.0047 29.263 24.4511C30.1766 23.9232 30.6537 22.9162 30.7323 21.9115C29.6853 21.9044 28.6381 21.9069 27.5933 21.9069C27.591 20.8951 27.6052 19.8836 27.572 18.8743C27.1808 18.9487 26.7896 19.0278 26.4007 19.1091L26.4005 16.7908Z"
				fill="#D24625"
			/>
			<path
				d="M28.0733 18.3882C29.7312 18.4626 31.1239 19.823 31.2123 21.4347C30.1651 21.4464 29.1181 21.4418 28.0709 21.4418C28.0709 20.4232 28.0686 19.4046 28.0733 18.3882Z"
				fill="white"
			/>
			<path
				d="M17.8285 20.1443C19.1238 20.2048 20.6933 19.6442 21.7666 20.5908C22.7947 21.8072 22.5228 24.0442 20.9986 24.7724C20.4572 25.042 19.8371 25.0049 19.2478 24.9862C19.2453 25.8955 19.2432 26.8048 19.2453 27.7142C18.7723 27.6741 18.2992 27.6353 17.826 27.5979C17.8047 25.114 17.8001 22.628 17.8285 20.1443Z"
				fill="#D24625"
			/>
			<path
				d="M19.2466 21.4024C19.7166 21.3813 20.2986 21.2978 20.6159 21.7279C20.8878 22.1838 20.8735 22.7838 20.6468 23.2535C20.3749 23.7326 19.7595 23.6861 19.2847 23.7419C19.2346 22.9627 19.2395 22.1836 19.2466 21.4024Z"
				fill="white"
			/>
		</g>
		<defs>
			<clipPath id="clip0_100_556">
				<rect width="21" height="20" fill="white" transform="translate(14 14)" />
			</clipPath>
		</defs>
	</symbol>
	<symbol
		id="figma"
		width="48"
		height="48"
		viewBox="0 0 48 48"
		fill="none"
		xmlns="http://www.w3.org/2000/svg"
	>
		<rect width="48" height="48" rx="24" fill="black" />
		<path
			d="M23.9941 24.0038C23.9941 22.1664 25.4838 20.6692 27.3288 20.6692C29.1662 20.6692 30.6634 22.1588 30.6634 24.0038C30.6634 25.8413 29.1738 27.3385 27.3288 27.3385C25.4913 27.3385 23.9941 25.8413 23.9941 24.0038Z"
			fill="#1ABCFE"
		/>
		<path
			d="M17.332 30.6657C17.332 28.8282 18.8217 27.3311 20.6667 27.3311H24.0013V30.6657C24.0013 32.5031 22.5117 34.0003 20.6667 34.0003C18.8217 34.0003 17.332 32.5107 17.332 30.6657Z"
			fill="#0ACF83"
		/>
		<path
			d="M23.9941 14.0076V20.6693H27.3288C29.1662 20.6693 30.6634 19.1796 30.6634 17.3346C30.6634 15.4972 29.1738 14 27.3288 14H23.9941V14.0076Z"
			fill="#FF7262"
		/>
		<path
			d="M17.332 17.3422C17.332 19.1796 18.8217 20.6768 20.6667 20.6768H24.0013V14.0076H20.6667C18.8217 14.0076 17.332 15.4972 17.332 17.3422Z"
			fill="#F24E1E"
		/>
		<path
			d="M17.332 24.0038C17.332 25.8413 18.8217 27.3385 20.6667 27.3385H24.0013V20.6692H20.6667C18.8217 20.6692 17.332 22.1664 17.332 24.0038Z"
			fill="#A259FF"
		/>
	</symbol>
	<symbol
		id="midjourney"
		width="48"
		height="48"
		viewBox="0 0 48 48"
		fill="none"
		xmlns="http://www.w3.org/2000/svg"
	>
		<rect width="48" height="48" rx="24" fill="#271B3C" />
		<path
			d="M13.7773 33.3633C14.4414 33.3633 15.4375 31.9688 16.5996 31.7695C17.2637 31.7695 17.7617 33.1641 19.4219 33.3633C20.584 33.3633 21.082 31.9688 22.2441 31.9688C23.4062 31.9688 23.9043 33.3633 25.0664 33.3633C26.2285 33.3633 26.7266 31.9688 27.8887 31.9688C29.0508 31.9688 29.5488 33.3633 30.7109 33.3633C31.873 33.3633 32.3711 31.9688 33.5332 31.9688C34.6953 31.9688 35.1934 33.3633 36.3555 33.3633"
			stroke="#2EB4FF"
			stroke-width="1.2"
			stroke-linecap="round"
			stroke-linejoin="round"
		/>
		<path
			d="M16.0494 31.9755L15.2891 30.5212L34.8789 29.2595C33.3383 30.6607 31.3594 31.7962 29.3572 32.7259"
			stroke="#2EB4FF"
			stroke-width="1.2"
			stroke-linecap="round"
			stroke-linejoin="round"
		/>
		<path
			d="M23.0879 16.9744C26.4215 17.9937 31.0832 22.9177 32.6703 28.2103C31.8004 27.8683 31.1496 27.5197 29.9277 27.8318C28.7457 23.532 26.6307 19.4248 23.0879 16.9744Z"
			stroke="#2EB4FF"
			stroke-width="1.2"
			stroke-linecap="round"
			stroke-linejoin="round"
		/>
		<path
			d="M16.8883 14.6201C21.1582 16.4463 27.0152 21.5297 28.091 28.2998C23.167 26.3143 19.4184 27.3734 16.8086 28.9838C20.7896 23.9236 19.0033 18.1695 16.8883 14.6201Z"
			stroke="#2EB4FF"
			stroke-width="1.2"
			stroke-linecap="round"
			stroke-linejoin="round"
		/>
	</symbol>
	<symbol
		id="adobePs"
		width="48"
		height="48"
		viewBox="0 0 48 48"
		fill="none"
		xmlns="http://www.w3.org/2000/svg"
	>
		<rect width="48" height="48" rx="24" fill="#001E36" />
		<g clip-path="url(#clip0_100_573)">
			<path
				d="M16.7188 14.002H30.2812C32.3375 14.002 34 15.6256 34 17.6337V30.3661C34 32.3743 32.3375 33.9979 30.2812 33.9979H16.7188C14.6625 33.9979 13 32.3743 13 30.3661V17.6337C13 15.6256 14.6625 14.002 16.7188 14.002Z"
				fill="#31A8FF"
			/>
			<path
				d="M17.7246 28.0248V19.2317C17.7246 19.1719 17.7509 19.1377 17.8121 19.1377C17.9609 19.1377 18.1009 19.1377 18.3021 19.1292C18.5121 19.1206 18.7309 19.1206 18.9671 19.1121C19.2034 19.1035 19.4571 19.1035 19.7284 19.095C19.9996 19.0864 20.2621 19.0864 20.5246 19.0864C21.2421 19.0864 21.8371 19.1719 22.3271 19.3513C22.7646 19.4966 23.1671 19.7359 23.4996 20.052C23.7796 20.3255 23.9984 20.6588 24.1384 21.0262C24.2696 21.3851 24.3396 21.7525 24.3396 22.1371C24.3396 22.872 24.1646 23.4787 23.8146 23.9572C23.4646 24.4358 22.9746 24.7947 22.4059 24.9997C21.8109 25.2134 21.1546 25.2903 20.4371 25.2903C20.2271 25.2903 20.0871 25.2903 19.9996 25.2817C19.9121 25.2732 19.7896 25.2732 19.6234 25.2732V28.0162C19.6321 28.076 19.5884 28.1273 19.5271 28.1359H17.8296C17.7596 28.1359 17.7246 28.1017 17.7246 28.0248ZM19.6321 20.7869V23.6581C19.7546 23.6667 19.8684 23.6752 19.9734 23.6752H20.4371C20.7784 23.6752 21.1196 23.624 21.4434 23.5214C21.7234 23.4445 21.9684 23.2821 22.1609 23.0685C22.3446 22.8549 22.4321 22.5643 22.4321 22.1884C22.4409 21.9235 22.3709 21.6585 22.2309 21.4278C22.0821 21.2056 21.8721 21.0347 21.6184 20.9407C21.2946 20.8126 20.9446 20.7613 20.5859 20.7698C20.3584 20.7698 20.1571 20.7698 19.9909 20.7784C19.8159 20.7698 19.6934 20.7784 19.6321 20.7869ZM29.7996 23.1369C29.5371 23.0002 29.2571 22.9062 28.9596 22.8463C28.6359 22.778 28.3121 22.7352 27.9796 22.7352C27.8046 22.7267 27.6209 22.7523 27.4546 22.7951C27.3409 22.8207 27.2446 22.8805 27.1834 22.966C27.1396 23.0343 27.1134 23.1198 27.1134 23.1967C27.1134 23.2736 27.1484 23.3505 27.2009 23.4189C27.2796 23.5129 27.3846 23.5898 27.4984 23.6496C27.6996 23.7521 27.9096 23.8461 28.1196 23.9316C28.5921 24.0854 29.0471 24.299 29.4671 24.5554C29.7559 24.7348 29.9921 24.9741 30.1584 25.2646C30.2984 25.5381 30.3684 25.8372 30.3596 26.1448C30.3684 26.5464 30.2459 26.9481 30.0184 27.2813C29.7734 27.6231 29.4321 27.888 29.0384 28.0419C28.6096 28.2213 28.0846 28.3153 27.4546 28.3153C27.0521 28.3153 26.6584 28.2811 26.2646 28.2042C25.9584 28.1529 25.6521 28.0589 25.3721 27.9308C25.3109 27.8966 25.2671 27.8368 25.2759 27.7684V26.2815C25.2759 26.2559 25.2846 26.2217 25.3109 26.2046C25.3371 26.1875 25.3634 26.1961 25.3896 26.2132C25.7309 26.4097 26.0896 26.5464 26.4746 26.6319C26.8071 26.7173 27.1571 26.7601 27.5071 26.7601C27.8396 26.7601 28.0759 26.7173 28.2334 26.6404C28.3734 26.5806 28.4696 26.4353 28.4696 26.2815C28.4696 26.1619 28.3996 26.0508 28.2596 25.9397C28.1196 25.8286 27.8309 25.7005 27.4021 25.5381C26.9559 25.3843 26.5446 25.1792 26.1596 24.9228C25.8884 24.7348 25.6609 24.487 25.4946 24.1965C25.3546 23.923 25.2846 23.624 25.2934 23.3249C25.2934 22.9574 25.3984 22.6071 25.5909 22.2909C25.8096 21.9491 26.1334 21.6756 26.5096 21.5047C26.9209 21.2996 27.4371 21.2056 28.0584 21.2056C28.4171 21.2056 28.7846 21.2313 29.1434 21.2826C29.4059 21.3167 29.6596 21.3851 29.8959 21.4791C29.9309 21.4876 29.9659 21.5218 29.9834 21.556C29.9921 21.5902 30.0009 21.6244 30.0009 21.6585V23.0514C30.0009 23.0856 29.9834 23.1198 29.9571 23.1369C29.8784 23.154 29.8346 23.154 29.7996 23.1369Z"
				fill="#001E36"
			/>
		</g>
		<defs>
			<clipPath id="clip0_100_573">
				<rect width="21" height="20" fill="white" transform="translate(13 14)" />
			</clipPath>
		</defs>
	</symbol>
	<symbol id="msTeams" fill="none" viewBox="0 0 92 92" xmlns="http://www.w3.org/2000/svg">
		<rect fill="#4b53bc" height="91.5618" rx="45.7809" width="91.5618" y=".123047" />
		<g fill="#fff">
			<path
				d="m47.5778 38.0407c4.0298 0 7.2966-3.2697 7.2966-7.3031 0-4.0333-3.2668-7.303-7.2966-7.303s-7.2966 3.2697-7.2966 7.303c0 4.0334 3.2668 7.3031 7.2966 7.3031z"
			/>
			<path
				d="m63.9955 38.5622c3.0221 0 5.472-2.4521 5.472-5.4769s-2.4499-5.4769-5.472-5.4769c-3.0222 0-5.4721 2.4521-5.4721 5.4769s2.4499 5.4769 5.4721 5.4769z"
			/>
			<path
				d="m69.1526 40.127h-9.8279c-.2122 0-.4158.1055-.5658.2933-.1501.1878-.2344.4425-.2344.7081v12.6908c-.0271 1.8367.4509 3.6293 1.3537 5.0776.9029 1.4483 2.1759 2.4643 3.6059 2.878.9108.2392 1.8527.2211 2.7572-.0528.9045-.274 1.7488-.7969 2.4714-1.5308.7227-.7339 1.3055-1.6603 1.706-2.7117s.6086-2.2013.6092-3.3661v-11.6392c0-.6225-.1976-1.2196-.5492-1.6598-.3517-.4401-.8287-.6874-1.3261-.6874z"
			/>
			<path
				d="m60.0853 42.4742v14.8659c.0015 2.7549-.9055 5.4333-2.5804 7.6196-1.6748 2.1862-4.0238 3.758-6.6825 4.4714-2.6586.7134-5.4781.5285-8.021-.526-2.5429-1.0544-4.667-2.9195-6.0426-5.3057-.3008-.5005-.5622-1.0237-.7817-1.5649-.2046-.5102-.3769-1.0329-.5159-1.5648-.2578-1.0233-.389-2.0744-.3909-3.1296v-14.8659c-.0004-.3084.06-.6138.1777-.8987.1177-.285.2904-.5439.5083-.762.2178-.218.4765-.3909.7612-.5087s.5899-.1783.898-.1778h20.3247c.308-.0005.6132.06.8979.1778s.5434.2907.7613.5087c.2178.2181.3905.477.5082.762.1177.2849.1781.5903.1777.8987z"
				stroke="#4b53bc"
				stroke-width="2"
			/>
			<path
				d="m23.0841 33.8672h20.8468c.5528 0 1.0829.2198 1.4737.6109.3908.3912.6104.9218.6104 1.475v20.8654c0 .5532-.2196 1.0838-.6104 1.475s-.9209.6109-1.4737.6109h-20.8468c-.5528 0-1.0829-.2197-1.4737-.6109s-.6104-.9218-.6104-1.475v-20.8654c0-.5532.2196-1.0838.6104-1.475.3908-.3911.9209-.6109 1.4737-.6109z"
				stroke="#4b53bc"
				stroke-width="2"
			/>
		</g>
		<path
			d="m39.7301 41.653h-4.6747v12.5499h-3.0674v-12.5499h-4.7028v-3.0827h12.4449z"
			fill="#4b53bc"
			stroke="#fff"
		/>
	</symbol>

	<!-- PROJECTS -->
	<symbol id="domova" viewBox="0 0 114 76" fill="none" xmlns="http://www.w3.org/2000/svg">
		<rect width="76" height="76" rx="38" fill="#F18500" />
		<rect x="38" width="76" height="76" rx="38" fill="#1B5FC4" />
		<path
			d="M76.9288 47.8344H63.5411V38.4201H66.4496C66.8203 38.4201 66.9914 37.9916 66.7348 37.7427L61.5451 32.7107C60.932 32.1163 59.934 32.1163 59.3209 32.7107L54.1312 37.7427C53.8746 37.9916 54.0599 38.4201 54.4163 38.4201H57.1965V52.5485C57.1965 53.3503 57.8666 54 58.6936 54H82.4607C82.8314 54 83.0025 53.5715 82.7459 53.3226L77.214 47.9588C77.1427 47.8759 77.0429 47.8344 76.9288 47.8344Z"
			fill="white"
		/>
		<path
			d="M94.3477 35.9716C94.3477 35.156 94.0198 34.3818 93.421 33.815L77.9944 18.8572C76.7683 17.6684 74.7722 17.6684 73.5318 18.8572L64.2075 27.8983C64.0506 28.0503 64.0506 28.2992 64.2075 28.4651L68.114 32.2529C68.2708 32.405 68.5275 32.405 68.6986 32.2529L75.756 25.3961H75.7703L88.0031 37.2573V47.819V47.8328H85.1944C84.8237 47.8328 84.6526 48.2614 84.9093 48.5102L90.099 53.5422C90.712 54.1367 91.7101 54.1367 92.3231 53.5422L97.5128 48.5102C97.7695 48.2614 97.5841 47.8328 97.2277 47.8328H94.3477V35.9716Z"
			fill="white"
		/>
	</symbol>
	<symbol id="kachka" viewBox="0 0 114 76" fill="none" xmlns="http://www.w3.org/2000/svg">
		<rect width="76" height="76" rx="38" fill="#FF6400" />
		<rect x="38" width="76" height="76" rx="38" fill="black" />
		<g clip-path="url(#clip0_390_8580)">
			<path
				d="M91.3909 28.5559L95.0267 29.4232C95.9903 29.653 96.9569 29.0542 97.1855 28.0856L97.1867 28.0809C97.4153 27.1123 96.8196 26.1408 95.8559 25.9109L92.2201 25.0437C91.2565 24.8138 90.2899 25.4127 90.0612 26.3813L90.0601 26.386C89.8314 27.3546 90.4272 28.3261 91.3909 28.5559Z"
				fill="#FF6400"
			/>
			<path
				d="M62.4899 40.9638L57.0034 39.0834L54.6673 41.4656L54.677 38.2845L50.0145 36.6866L50 46.3225L54.6577 47.9203L54.6625 45.4553L55.404 44.8902L57.1537 48.7777L62.5626 50.6337L59.4898 44.0475L62.4899 40.9638Z"
				fill="white"
			/>
			<path
				d="M66.3002 40.3305L62.5586 50.6289L67.4101 49.3136L67.7591 48.237L70.6962 47.4381L71.05 48.3198L75.9015 47.0045L72.1356 38.7424L66.2954 40.3257L66.3002 40.3305ZM68.5539 45.1777L69.2276 42.9076L69.9062 44.8074L68.5539 45.1728V45.1777Z"
				fill="white"
			/>
			<path
				d="M82.3997 41.8164C81.3722 42.094 80.8924 41.7433 80.8924 41.0662V40.9639C80.8924 40.2916 81.3722 39.6778 82.3997 39.3952C83.3642 39.1322 83.7374 39.4147 83.8586 39.7996L89.0494 38.3917C88.7973 35.6734 86.9023 34.4848 82.4143 35.7026C77.8245 36.9497 75.7549 39.5316 75.7598 42.1622V42.6445C75.7598 45.2751 77.8293 46.7366 82.424 45.4943C86.912 44.2765 88.807 42.0599 89.0542 39.2052L83.8634 40.6131C83.7471 41.0662 83.3691 41.5484 82.4094 41.8115L82.3997 41.8164Z"
				fill="white"
			/>
			<path
				d="M97.0366 35.3665V38.2845L94.8556 37.6805V34.7673L89.8926 33.3936V42.8053L94.8556 44.179V41.2659L97.0366 41.87V44.7831L102 46.1569V36.7403L97.0366 35.3665Z"
				fill="white"
			/>
		</g>
		<defs>
			<clipPath id="clip0_390_8580">
				<rect width="52" height="25.6338" fill="white" transform="translate(50 25)" />
			</clipPath>
		</defs>
	</symbol>
	<symbol id="sustayn" viewBox="0 0 114 76" fill="none" xmlns="http://www.w3.org/2000/svg">
		<rect width="76" height="76" rx="38" fill="#19A51C" />
		<rect x="38" width="76" height="76" rx="38" fill="#12184C" />
		<path
			d="M73.2297 29.2755C75.6991 34.9989 72.5924 41.7274 72.5924 41.7274C72.5924 41.7274 65.5028 39.1753 62.9537 33.4519C60.4841 27.7287 63.5908 21 63.5908 21C63.5908 21 70.7603 23.5523 73.2297 29.2755Z"
			fill="#19A51C"
		/>
		<path
			d="M90.8337 21.7742C90.8337 21.7742 89.8778 20.8461 87.4083 21.0781C84.5406 21.3875 83.7439 22.9343 83.7439 22.9343L69.9629 54.7215C69.9629 54.7215 70.9189 55.6498 73.3883 55.4176C76.256 55.1083 77.0525 53.5616 77.0525 53.5616L90.8337 21.7742Z"
			fill="white"
		/>
	</symbol>
	<symbol id="derjy" viewBox="0 0 114 76" fill="none" xmlns="http://www.w3.org/2000/svg">
		<rect width="76" height="76" rx="38" fill="#0066FF" />
		<rect x="38" width="76" height="76" rx="38" fill="#D4E5FF" />
		<path
			d="M60.1762 33.8943V28.0186H57.5919L57.5533 28.9957C57.5362 29.5186 57.5019 30.0071 57.4505 30.4614C57.4076 30.9157 57.3433 31.3314 57.2576 31.7086C57.1805 32.0857 57.0733 32.4114 56.9362 32.6857C56.8076 32.9514 56.649 33.1571 56.4605 33.3029L53.7476 32.9814C54.0476 32.99 54.2919 32.8914 54.4805 32.6857C54.6776 32.4714 54.8319 32.1757 54.9433 31.7986C55.0633 31.4214 55.149 30.9757 55.2005 30.4614C55.2605 29.9471 55.3033 29.3857 55.329 28.7771L55.4319 26H62.6833V33.8943H60.1762ZM53.4776 36.8129V32.9814H63.9048V36.8129H61.5776V35H55.8176V36.8129H53.4776ZM67.8873 35.1157C67.0644 35.1157 66.3444 34.9614 65.7273 34.6529C65.1187 34.3357 64.643 33.9071 64.3001 33.3671C63.9658 32.8186 63.7987 32.1971 63.7987 31.5029C63.7987 30.8086 63.9615 30.1914 64.2873 29.6514C64.6215 29.1029 65.0801 28.6786 65.663 28.3786C66.2458 28.07 66.9015 27.9157 67.6301 27.9157C68.3158 27.9157 68.9415 28.0571 69.5073 28.34C70.073 28.6143 70.523 29.0214 70.8573 29.5614C71.1915 30.1014 71.3587 30.7571 71.3587 31.5286C71.3587 31.6143 71.3544 31.7129 71.3458 31.8243C71.3373 31.9357 71.3287 32.0386 71.3201 32.1329H65.8044V30.8471H70.0215L69.0958 31.2071C69.1044 30.89 69.0444 30.6157 68.9158 30.3843C68.7958 30.1529 68.6244 29.9729 68.4015 29.8443C68.1873 29.7157 67.9344 29.6514 67.643 29.6514C67.3515 29.6514 67.0944 29.7157 66.8715 29.8443C66.6573 29.9729 66.4901 30.1571 66.3701 30.3971C66.2501 30.6286 66.1901 30.9029 66.1901 31.22V31.5929C66.1901 31.9357 66.2587 32.2314 66.3958 32.48C66.5415 32.7286 66.7473 32.9214 67.013 33.0586C67.2787 33.1871 67.5958 33.2514 67.9644 33.2514C68.3073 33.2514 68.5987 33.2043 68.8387 33.11C69.0873 33.0071 69.3315 32.8529 69.5715 32.6471L70.8573 33.9843C70.523 34.3529 70.1115 34.6357 69.623 34.8329C69.1344 35.0214 68.5558 35.1157 67.8873 35.1157ZM76.3912 35.1157C75.7997 35.1157 75.294 34.9871 74.874 34.73C74.454 34.4643 74.1326 34.07 73.9097 33.5471C73.6954 33.0157 73.5883 32.3386 73.5883 31.5157C73.5883 30.6843 73.6912 30.0071 73.8969 29.4843C74.1026 28.9529 74.4112 28.5586 74.8226 28.3014C75.2426 28.0443 75.7654 27.9157 76.3912 27.9157C77.0254 27.9157 77.5997 28.0657 78.114 28.3657C78.6369 28.6571 79.0483 29.0729 79.3483 29.6129C79.6569 30.1443 79.8112 30.7786 79.8112 31.5157C79.8112 32.2529 79.6569 32.8914 79.3483 33.4314C79.0483 33.9714 78.6369 34.3871 78.114 34.6786C77.5997 34.97 77.0254 35.1157 76.3912 35.1157ZM72.0069 37.4943V28.0314H74.334V29.2143L74.3212 31.5157L74.4497 33.83V37.4943H72.0069ZM75.8769 33.1743C76.1512 33.1743 76.3954 33.11 76.6097 32.9814C76.8326 32.8529 77.0083 32.6643 77.1369 32.4157C77.274 32.1671 77.3426 31.8671 77.3426 31.5157C77.3426 31.1643 77.274 30.8643 77.1369 30.6157C77.0083 30.3671 76.8326 30.1786 76.6097 30.05C76.3954 29.9214 76.1512 29.8571 75.8769 29.8571C75.6026 29.8571 75.354 29.9214 75.1312 30.05C74.9169 30.1786 74.7412 30.3671 74.604 30.6157C74.4754 30.8643 74.4112 31.1643 74.4112 31.5157C74.4112 31.8671 74.4754 32.1671 74.604 32.4157C74.7412 32.6643 74.9169 32.8529 75.1312 32.9814C75.354 33.11 75.6026 33.1743 75.8769 33.1743ZM88.6134 35L86.9548 31.7471L88.922 30.59L91.5062 35H88.6134ZM85.9134 32.5186V30.6029H88.4205V32.5186H85.9134ZM89.1791 31.7857L86.8777 31.5543L88.7677 28.0314H91.352L89.1791 31.7857ZM82.2362 35H79.3434L81.9148 30.59L83.882 31.7471L82.2362 35ZM86.6334 35H84.2291V28.0314H86.6334V35ZM84.9362 32.5186H82.4291V30.6029H84.9362V32.5186ZM81.6705 31.7857L79.4977 28.0314H82.082L83.9462 31.5543L81.6705 31.7857ZM92.6109 37.61C92.2424 37.61 91.8695 37.55 91.4924 37.43C91.1238 37.3186 90.8238 37.1686 90.5924 36.98L91.4409 35.27C91.5867 35.3986 91.7538 35.4971 91.9424 35.5657C92.1395 35.6429 92.3324 35.6814 92.5209 35.6814C92.7867 35.6814 92.9967 35.6214 93.1509 35.5014C93.3052 35.3814 93.4381 35.1929 93.5495 34.9357L93.8709 34.1257L94.0638 33.8814L96.4295 28.0314H98.7567L95.7481 35.2829C95.5081 35.8829 95.2295 36.35 94.9124 36.6843C94.6038 37.0271 94.2567 37.2671 93.8709 37.4043C93.4938 37.5414 93.0738 37.61 92.6109 37.61ZM93.5624 35.2957L90.4895 28.0314H92.9967L95.2595 33.6629L93.5624 35.2957ZM52.1323 50V43.0314H55.8737C56.7737 43.0314 57.4766 43.19 57.9823 43.5071C58.488 43.8157 58.7409 44.2614 58.7409 44.8443C58.7409 45.4014 58.5051 45.8471 58.0337 46.1814C57.5709 46.5071 56.9451 46.67 56.1566 46.67L56.3751 46.1557C57.2237 46.1557 57.8623 46.3143 58.2909 46.6314C58.728 46.94 58.9466 47.3943 58.9466 47.9943C58.9466 48.6114 58.7066 49.1 58.2266 49.46C57.7551 49.82 57.0309 50 56.0537 50H52.1323ZM54.318 48.4186H55.8351C56.1351 48.4186 56.358 48.3671 56.5037 48.2643C56.6494 48.1529 56.7223 47.99 56.7223 47.7757C56.7223 47.5529 56.6494 47.39 56.5037 47.2871C56.3666 47.1843 56.1523 47.1329 55.8609 47.1329H54.318V48.4186ZM54.318 45.8343H55.6551C55.9466 45.8343 56.1609 45.7829 56.298 45.68C56.4351 45.5686 56.5037 45.41 56.5037 45.2043C56.5037 44.9986 56.4351 44.8486 56.298 44.7543C56.1609 44.6514 55.9466 44.6 55.6551 44.6H54.318V45.8343ZM67.5222 50L65.4008 46.7471L67.3679 45.59L70.4022 50H67.5222ZM62.6365 50V43.0314H65.0793V50H62.6365ZM64.3593 47.5186V45.6029H66.8793V47.5186H64.3593ZM67.6122 46.7857L65.3236 46.5543L67.6636 43.0314H70.2479L67.6122 46.7857ZM71.4657 52.61C71.0971 52.61 70.7243 52.55 70.3471 52.43C69.9786 52.3186 69.6786 52.1686 69.4471 51.98L70.2957 50.27C70.4414 50.3986 70.6086 50.4971 70.7971 50.5657C70.9943 50.6429 71.1871 50.6814 71.3757 50.6814C71.6414 50.6814 71.8514 50.6214 72.0057 50.5014C72.16 50.3814 72.2929 50.1929 72.4043 49.9357L72.7257 49.1257L72.9186 48.8814L75.2843 43.0314H77.6114L74.6029 50.2829C74.3629 50.8829 74.0843 51.35 73.7671 51.6843C73.4586 52.0271 73.1114 52.2671 72.7257 52.4043C72.3486 52.5414 71.9286 52.61 71.4657 52.61ZM72.4171 50.2957L69.3443 43.0314H71.8514L74.1143 48.6629L72.4171 50.2957ZM82.1455 50.1157C81.5541 50.1157 81.0483 49.9871 80.6283 49.73C80.2083 49.4643 79.8869 49.07 79.6641 48.5471C79.4498 48.0157 79.3426 47.3386 79.3426 46.5157C79.3426 45.6843 79.4455 45.0071 79.6512 44.4843C79.8569 43.9529 80.1655 43.5586 80.5769 43.3014C80.9969 43.0443 81.5198 42.9157 82.1455 42.9157C82.7798 42.9157 83.3541 43.0657 83.8683 43.3657C84.3912 43.6571 84.8026 44.0729 85.1026 44.6129C85.4112 45.1443 85.5655 45.7786 85.5655 46.5157C85.5655 47.2529 85.4112 47.8914 85.1026 48.4314C84.8026 48.9714 84.3912 49.3871 83.8683 49.6786C83.3541 49.97 82.7798 50.1157 82.1455 50.1157ZM77.7612 52.4943V43.0314H80.0883V44.2143L80.0755 46.5157L80.2041 48.83V52.4943H77.7612ZM81.6312 48.1743C81.9055 48.1743 82.1498 48.11 82.3641 47.9814C82.5869 47.8529 82.7626 47.6643 82.8912 47.4157C83.0283 47.1671 83.0969 46.8671 83.0969 46.5157C83.0969 46.1643 83.0283 45.8643 82.8912 45.6157C82.7626 45.3671 82.5869 45.1786 82.3641 45.05C82.1498 44.9214 81.9055 44.8571 81.6312 44.8571C81.3569 44.8571 81.1083 44.9214 80.8855 45.05C80.6712 45.1786 80.4955 45.3671 80.3583 45.6157C80.2298 45.8643 80.1655 46.1643 80.1655 46.5157C80.1655 46.8671 80.2298 47.1671 80.3583 47.4157C80.4955 47.6643 80.6712 47.8529 80.8855 47.9814C81.1083 48.11 81.3569 48.1743 81.6312 48.1743ZM89.5929 50.1157C88.8215 50.1157 88.1315 49.9614 87.5229 49.6529C86.9229 49.3443 86.4515 48.92 86.1086 48.38C85.7657 47.8314 85.5943 47.2057 85.5943 46.5029C85.5943 45.8 85.7657 45.1786 86.1086 44.6386C86.4515 44.0986 86.9229 43.6786 87.5229 43.3786C88.1315 43.07 88.8215 42.9157 89.5929 42.9157C90.3815 42.9157 91.0629 43.0829 91.6372 43.4171C92.2115 43.7514 92.6186 44.2229 92.8586 44.8314L90.9686 45.7957C90.8057 45.47 90.6043 45.2343 90.3643 45.0886C90.1243 44.9343 89.8629 44.8571 89.58 44.8571C89.2972 44.8571 89.04 44.9214 88.8086 45.05C88.5772 45.1786 88.3929 45.3671 88.2557 45.6157C88.1272 45.8557 88.0629 46.1514 88.0629 46.5029C88.0629 46.8629 88.1272 47.1671 88.2557 47.4157C88.3929 47.6643 88.5772 47.8529 88.8086 47.9814C89.04 48.11 89.2972 48.1743 89.58 48.1743C89.8629 48.1743 90.1243 48.1014 90.3643 47.9557C90.6043 47.8014 90.8057 47.5614 90.9686 47.2357L92.8586 48.2C92.6186 48.8086 92.2115 49.28 91.6372 49.6143C91.0629 49.9486 90.3815 50.1157 89.5929 50.1157ZM96.7493 50.1157C95.9264 50.1157 95.2064 49.9614 94.5893 49.6529C93.9807 49.3357 93.505 48.9071 93.1621 48.3671C92.8279 47.8186 92.6607 47.1971 92.6607 46.5029C92.6607 45.8086 92.8236 45.1914 93.1493 44.6514C93.4836 44.1029 93.9421 43.6786 94.525 43.3786C95.1079 43.07 95.7636 42.9157 96.4921 42.9157C97.1779 42.9157 97.8036 43.0571 98.3693 43.34C98.935 43.6143 99.385 44.0214 99.7193 44.5614C100.054 45.1014 100.221 45.7571 100.221 46.5286C100.221 46.6143 100.216 46.7129 100.208 46.8243C100.199 46.9357 100.191 47.0386 100.182 47.1329H94.6664V45.8471H98.8836L97.9579 46.2071C97.9664 45.89 97.9064 45.6157 97.7779 45.3843C97.6579 45.1529 97.4864 44.9729 97.2636 44.8443C97.0493 44.7157 96.7964 44.6514 96.505 44.6514C96.2136 44.6514 95.9564 44.7157 95.7336 44.8443C95.5193 44.9729 95.3521 45.1571 95.2321 45.3971C95.1121 45.6286 95.0521 45.9029 95.0521 46.22V46.5929C95.0521 46.9357 95.1207 47.2314 95.2579 47.48C95.4036 47.7286 95.6093 47.9214 95.875 48.0586C96.1407 48.1871 96.4579 48.2514 96.8264 48.2514C97.1693 48.2514 97.4607 48.2043 97.7007 48.11C97.9493 48.0071 98.1936 47.8529 98.4336 47.6471L99.7193 48.9843C99.385 49.3529 98.9736 49.6357 98.485 49.8329C97.9964 50.0214 97.4179 50.1157 96.7493 50.1157Z"
			fill="#00193E"
		/>
	</symbol>
</svg>
