<svg width="1189" height="657" viewBox="0 0 1189 657" fill="none" xmlns="http://www.w3.org/2000/svg">
<g clip-path="url(#clip0_245_568)">
<path opacity="0.010101" d="M1013.55 -34.7703L958.072 -48.3818C902.591 -61.9933 791.628 -89.2163 707.221 72.5086C622.813 234.233 564.96 584.906 459.899 599.671C354.837 614.437 202.567 293.295 103.407 350.049C4.24621 406.803 -41.8044 841.452 -64.8297 1058.78L-87.855 1276.1" stroke="url(#paint0_linear_245_568)" stroke-width="2"/>
<path opacity="0.020202" d="M1018.76 -18.8684L964.037 -33.2972C909.315 -47.726 799.871 -76.5836 713.449 82.0625C627.027 240.709 563.628 586.858 459.3 599.668C354.972 612.478 209.715 291.948 110.503 346.426C11.2905 400.903 -41.8764 830.388 -68.4598 1045.13L-95.0432 1259.87" stroke="url(#paint1_linear_245_568)" stroke-width="2"/>
<path opacity="0.030303" d="M1023.58 -2.96094L969.627 -18.1848C915.675 -33.4086 807.772 -63.8562 719.418 91.6907C631.064 247.237 562.258 588.779 458.699 599.663C355.141 610.548 216.828 290.775 117.614 342.992C18.399 395.209 -41.7181 819.414 -71.7766 1031.52L-101.835 1243.62" stroke="url(#paint2_linear_245_568)" stroke-width="2"/>
<path opacity="0.040404" d="M1028.02 12.9462L974.847 -3.05021C921.677 -19.0466 815.337 -51.0393 725.132 101.39C634.927 253.819 560.857 590.669 458.102 599.659C355.348 608.649 223.909 289.778 124.741 339.75C25.5716 389.723 -41.3277 808.539 -74.7774 1017.95L-108.227 1227.35" stroke="url(#paint3_linear_245_568)" stroke-width="2"/>
<path opacity="0.050505" d="M1032.07 28.8444L979.693 12.0981C927.315 -4.64825 822.559 -38.1409 730.585 111.153C638.61 260.448 559.418 592.529 457.502 599.655C355.586 606.782 230.948 288.954 131.872 336.7C32.797 384.446 -40.7149 797.766 -77.4709 1004.43L-114.227 1211.09" stroke="url(#paint4_linear_245_568)" stroke-width="2"/>
<path opacity="0.0606061" d="M1035.75 44.7232L984.171 27.2496C932.595 9.77602 829.442 -25.1711 735.78 120.974C642.119 267.118 557.947 594.355 456.904 599.65C355.86 604.946 237.944 288.3 139.01 333.838C40.0753 379.376 -39.878 787.098 -79.8546 990.959L-119.831 1194.82" stroke="url(#paint5_linear_245_568)" stroke-width="2"/>
<path opacity="0.0707071" d="M1039.05 60.5751L988.282 42.3971C937.517 24.2191 835.986 -12.1369 740.718 130.845C645.45 273.828 556.445 596.148 456.306 599.645C356.167 603.142 244.895 287.815 146.148 331.165C47.4008 374.515 -38.821 776.541 -81.932 977.554L-125.043 1178.57" stroke="url(#paint6_linear_245_568)" stroke-width="2"/>
<path opacity="0.0808081" d="M1041.97 76.3931L992.024 57.5336C942.079 38.6741 842.188 0.955135 745.396 140.764C648.603 280.572 554.91 597.909 455.707 599.64C356.505 601.372 251.794 287.499 153.28 328.681C54.7662 369.863 -37.5501 766.101 -83.7082 964.219L-129.866 1162.34" stroke="url(#paint7_linear_245_568)" stroke-width="2"/>
<path opacity="0.0909091" d="M1044.52 92.1682L995.404 72.6502C946.286 53.1322 848.051 14.0962 749.816 150.722C651.581 287.348 553.346 599.636 455.11 599.636C356.875 599.636 258.64 287.348 160.405 326.384C62.1698 365.42 -36.0654 755.78 -85.1829 950.959L-134.301 1146.14" stroke="url(#paint8_linear_245_568)" stroke-width="2"/>
<path opacity="0.10101" d="M1046.7 107.891L998.42 87.7372C950.138 67.5838 853.574 27.2771 753.977 160.713C654.38 294.149 551.751 601.327 454.513 599.63C357.275 597.932 265.428 287.359 167.516 324.272C69.6044 361.184 -34.3729 745.581 -86.3616 937.78L-138.35 1129.98" stroke="url(#paint9_linear_245_568)" stroke-width="2"/>
<path opacity="0.111111" d="M1048.51 123.555L1001.07 102.789C953.635 82.0234 858.756 40.4922 757.879 170.732C657.002 300.973 550.126 602.984 453.914 599.624C357.702 596.265 272.154 287.533 174.609 322.345C77.0647 357.157 -32.4769 735.511 -87.2476 924.688L-142.018 1113.87" stroke="url(#paint10_linear_245_568)" stroke-width="2"/>
<path opacity="0.121212" d="M1049.96 139.152L1003.37 117.797C956.783 96.4423 863.602 53.733 761.525 180.774C659.449 307.815 548.475 604.606 453.318 599.619C358.16 594.632 278.818 287.867 181.684 320.602C84.5495 353.338 -30.3774 725.574 -87.8409 911.691L-145.304 1097.81" stroke="url(#paint11_linear_245_568)" stroke-width="2"/>
<path opacity="0.131313" d="M1051.05 154.673L1005.31 132.752C959.579 110.832 868.109 66.9909 764.913 190.831C661.717 314.671 546.796 606.192 452.72 599.614C358.644 593.035 285.413 288.357 188.731 319.041C92.0496 349.725 -28.0828 715.771 -88.149 898.794L-148.215 1081.82" stroke="url(#paint12_linear_245_568)" stroke-width="2"/>
<path opacity="0.141414" d="M1051.78 170.11L1006.9 147.647C962.028 125.184 872.279 80.2584 768.044 200.898C663.81 321.537 545.09 607.741 452.122 599.607C359.154 591.474 291.937 289.002 195.749 317.661C99.5623 346.319 -25.595 706.108 -88.1737 886.003L-150.752 1065.9" stroke="url(#paint13_linear_245_568)" stroke-width="2"/>
<path opacity="0.151515" d="M1052.15 185.458L1008.14 162.475C964.134 139.493 876.115 93.5287 770.922 210.969C665.729 328.409 543.361 609.254 451.526 599.602C359.691 589.949 298.388 289.8 202.736 316.46C107.084 343.12 -22.9163 696.589 -87.9167 873.324L-152.917 1050.06" stroke="url(#paint14_linear_245_568)" stroke-width="2"/>
<path opacity="0.161616" d="M1052.18 200.705L1009.04 177.227C965.897 153.749 879.617 106.793 773.545 221.037C667.473 335.282 541.608 610.729 450.93 599.595C360.252 588.461 304.762 290.747 209.686 315.436C114.61 340.124 -20.0527 687.216 -87.3838 860.761L-154.715 1034.31" stroke="url(#paint15_linear_245_568)" stroke-width="2"/>
<path opacity="0.171717" d="M1051.85 215.848L1009.59 191.898C967.32 167.947 882.787 120.045 775.915 231.1C669.043 342.155 539.83 612.167 450.334 599.589C360.837 587.011 311.055 291.843 216.594 314.589C122.133 337.335 -17.0083 677.994 -86.5788 848.324L-156.149 1018.65" stroke="url(#paint16_linear_245_568)" stroke-width="2"/>
<path opacity="0.181818" d="M1051.18 230.877L1009.79 206.477C968.405 182.076 885.626 133.276 778.033 241.148C670.439 349.021 538.031 613.567 449.737 599.583C361.444 585.598 317.265 293.084 223.458 313.916C129.65 334.748 -13.7872 668.926 -85.5057 836.015L-157.224 1003.1" stroke="url(#paint17_linear_245_568)" stroke-width="2"/>
<path opacity="0.191919" d="M1050.18 245.786L1009.67 220.959C969.157 196.133 888.137 146.48 779.9 251.179C671.663 355.878 536.21 614.929 449.141 599.577C362.073 584.224 323.389 294.468 230.273 313.416C137.156 332.364 -10.3934 660.016 -84.1682 823.842L-157.943 987.668" stroke="url(#paint18_linear_245_568)" stroke-width="2"/>
<path opacity="0.20202" d="M1048.83 260.565L1009.21 235.336C969.577 210.106 890.319 159.647 781.517 261.184C672.714 362.72 534.367 616.252 448.544 599.57C362.721 582.887 329.423 295.991 237.034 313.085C144.645 330.18 -6.83295 651.265 -82.5722 811.808L-158.311 972.351" stroke="url(#paint19_linear_245_568)" stroke-width="2"/>
<path opacity="0.212121" d="M1047.16 275.21L1008.42 249.601C969.671 223.991 892.18 172.772 782.889 271.159C673.598 369.545 532.508 617.537 447.95 599.563C363.392 581.59 335.367 297.652 243.742 312.924C152.118 328.196 -3.10574 642.679 -80.7175 799.92L-158.329 957.162" stroke="url(#paint20_linear_245_568)" stroke-width="2"/>
<path opacity="0.222222" d="M1045.16 289.713L1007.3 263.747C969.44 237.78 893.717 185.848 784.014 281.098C674.311 376.349 530.628 618.782 447.354 599.557C364.079 580.331 341.214 299.447 250.389 312.929C159.564 326.411 0.778511 634.259 -78.614 788.184L-158.007 942.108" stroke="url(#paint21_linear_245_568)" stroke-width="2"/>
<path opacity="0.232323" d="M1042.84 304.067L1005.86 277.766C968.887 251.466 894.934 198.865 784.894 290.996C674.855 383.127 528.73 619.988 446.758 599.55C364.785 579.112 346.964 301.374 256.972 313.098C166.981 324.823 4.81775 626.009 -76.2636 776.603L-157.345 927.196" stroke="url(#paint22_linear_245_568)" stroke-width="2"/>
<path opacity="0.242424" d="M1040.2 318.264L1004.11 291.653C968.019 265.041 895.835 211.819 785.534 300.847C675.234 389.875 526.817 621.154 446.163 599.543C365.508 577.932 352.615 303.43 263.49 313.43C174.365 323.43 9.00825 617.931 -73.6702 765.182L-156.349 912.433" stroke="url(#paint23_linear_245_568)" stroke-width="2"/>
<path opacity="0.252525" d="M1037.26 332.299L1002.05 305.399C966.84 278.5 896.424 224.701 785.937 310.646C675.449 396.591 524.891 622.281 445.57 599.536C366.249 576.791 358.166 305.611 269.94 313.921C181.714 322.23 13.3465 610.029 -70.8374 753.928L-155.021 897.827" stroke="url(#paint24_linear_245_568)" stroke-width="2"/>
<path opacity="0.262626" d="M1034 346.165L999.674 319C965.349 291.834 896.699 237.504 786.099 320.387C675.498 403.27 522.947 623.367 444.974 599.529C367.002 575.69 363.608 307.916 276.313 314.569C189.018 321.223 17.8227 602.303 -67.7752 742.844L-153.373 883.384" stroke="url(#paint25_linear_245_568)" stroke-width="2"/>
<path opacity="0.272727" d="M1030.44 359.856L996.997 332.448C963.554 305.04 896.667 250.223 786.025 330.067C675.384 409.91 520.989 624.415 444.379 599.522C367.769 574.63 368.943 310.342 282.61 315.374C196.276 320.406 22.4354 594.76 -64.4852 731.936L-151.406 869.113" stroke="url(#paint26_linear_245_568)" stroke-width="2"/>
<path opacity="0.282828" d="M1026.59 373.366L994.023 345.736C961.459 318.107 896.331 262.849 785.721 339.678C675.112 416.506 519.021 625.421 443.786 599.515C368.55 573.61 374.17 312.884 288.828 316.33C203.486 319.777 27.1812 587.398 -60.9711 721.208L-149.123 855.018" stroke="url(#paint27_linear_245_568)" stroke-width="2"/>
<path opacity="0.292929" d="M1022.44 386.686L990.755 358.858C959.067 331.031 895.692 275.376 785.186 349.215C674.679 423.053 517.04 626.386 443.191 599.508C369.342 572.629 379.284 315.539 294.961 317.436C210.639 319.334 32.0525 580.22 -57.2407 710.663L-146.534 841.106" stroke="url(#paint28_linear_245_568)" stroke-width="2"/>
<path opacity="0.30303" d="M1018.01 399.814L987.198 371.81C956.385 343.806 894.757 287.798 784.423 358.674C674.089 429.551 515.048 627.312 442.597 599.501C370.146 571.689 384.284 318.305 301.009 318.69C217.734 319.076 37.0463 573.23 -53.2976 700.307L-143.641 827.384" stroke="url(#paint29_linear_245_568)" stroke-width="2"/>
<path opacity="0.313131" d="M1013.3 412.741L983.359 384.583C953.415 356.424 893.528 300.107 783.436 368.051C673.344 435.994 513.048 628.197 442.004 599.494C370.96 570.79 389.168 321.179 306.967 320.089C224.767 318.999 42.1574 566.429 -49.1473 690.144L-140.452 813.859" stroke="url(#paint30_linear_245_568)" stroke-width="2"/>
<path opacity="0.323232" d="M1008.32 425.464L979.241 397.172C950.164 368.881 892.008 312.299 782.227 377.339C672.445 442.379 511.038 629.042 441.41 599.486C371.782 569.931 393.933 324.158 312.833 321.63C231.733 319.101 47.3806 559.819 -44.7954 680.178L-136.971 800.536" stroke="url(#paint31_linear_245_568)" stroke-width="2"/>
<path opacity="0.333333" d="M1003.07 437.974L974.853 409.572C946.637 381.169 890.204 324.364 780.801 386.533C671.397 448.702 509.023 629.845 440.819 599.478C372.615 569.112 398.58 327.236 318.605 323.308C238.63 319.381 52.713 553.401 -40.2453 670.411L-133.204 787.421" stroke="url(#paint32_linear_245_568)" stroke-width="2"/>
<path opacity="0.343434" d="M997.555 450.27L970.195 421.777C942.835 393.285 888.114 336.3 779.155 395.631C670.196 454.962 506.997 630.608 440.224 599.471C373.45 568.334 403.102 330.414 324.275 325.125C245.448 319.836 58.1439 547.178 -35.5084 660.85L-129.161 774.521" stroke="url(#paint33_linear_245_568)" stroke-width="2"/>
<path opacity="0.353535" d="M991.787 462.342L965.277 433.781C938.768 405.22 885.749 348.097 777.299 404.625C668.849 461.153 504.968 631.331 439.631 599.464C374.294 567.597 407.501 333.685 329.846 327.073C252.191 320.462 63.6745 541.151 -30.5839 651.496L-124.842 761.841" stroke="url(#paint34_linear_245_568)" stroke-width="2"/>
<path opacity="0.363636" d="M985.77 474.189L960.105 445.58C934.44 416.971 883.111 359.752 775.234 413.513C667.358 467.274 502.935 632.013 439.04 599.457C375.144 566.9 411.776 337.048 335.314 329.154C258.853 321.259 69.2981 535.323 -25.4792 642.355L-120.257 749.386" stroke="url(#paint35_linear_245_568)" stroke-width="2"/>
<path opacity="0.373737" d="M979.51 485.804L954.683 457.167C929.856 428.531 880.203 371.258 772.963 422.289C665.724 473.32 500.898 632.655 438.448 599.449C375.997 566.244 415.923 340.498 340.675 331.36C265.428 322.222 75.0084 529.692 -20.2014 633.427L-115.411 737.163" stroke="url(#paint36_linear_245_568)" stroke-width="2"/>
<path opacity="0.383838" d="M973.013 497.182L949.017 468.538C925.022 439.895 877.031 382.608 770.49 430.949C663.949 479.289 498.858 633.256 437.856 599.442C376.854 565.628 419.941 344.033 345.927 333.692C271.914 323.35 80.8011 524.263 -14.7555 624.719L-110.312 725.175" stroke="url(#paint37_linear_245_568)" stroke-width="2"/>
<path opacity="0.393939" d="M966.285 508.318L943.113 479.688C919.941 451.058 873.598 393.798 767.816 439.487C662.035 485.177 496.815 633.817 437.263 599.434C377.711 565.052 423.827 347.648 351.067 336.143C278.306 324.639 86.6699 519.034 -9.14834 616.231L-104.967 713.428" stroke="url(#paint38_linear_245_568)" stroke-width="2"/>
<path opacity="0.40404" d="M959.335 519.209L936.979 490.612C914.623 462.015 869.912 404.821 764.949 447.902C659.987 490.983 494.773 634.338 436.673 599.427C378.572 564.517 427.584 351.341 356.094 338.714C284.604 326.086 92.6127 514.008 -3.38308 607.968L-99.3788 701.929" stroke="url(#paint39_linear_245_568)" stroke-width="2"/>
<path opacity="0.414141" d="M952.168 529.85L930.62 501.306C909.072 472.762 865.975 415.674 761.89 456.188C657.805 496.702 492.731 634.819 436.081 599.42C379.432 564.022 431.207 355.108 361.004 341.399C290.801 327.69 98.6216 509.185 2.53174 599.933L-93.5582 690.68" stroke="url(#paint40_linear_245_568)" stroke-width="2"/>
<path opacity="0.424242" d="M944.79 540.236L924.04 511.764C903.291 483.292 861.792 426.349 758.641 464.341C655.491 502.333 490.688 635.26 435.489 599.413C380.29 563.566 434.694 358.945 365.794 344.195C296.894 329.445 104.691 504.566 8.58954 592.127L-87.5121 679.687" stroke="url(#paint41_linear_245_568)" stroke-width="2"/>
<path opacity="0.434343" d="M937.21 550.363L917.251 521.982C897.291 493.602 857.371 436.841 755.211 472.355C653.051 507.87 488.649 635.66 434.899 599.405C381.148 563.15 438.047 362.848 370.465 347.099C302.883 331.349 110.819 500.151 14.7875 584.552L-81.2443 668.953" stroke="url(#paint42_linear_245_568)" stroke-width="2"/>
<path opacity="0.444444" d="M929.433 560.228L910.253 531.958C891.073 503.687 852.714 447.146 751.598 480.23C650.483 513.314 486.611 636.022 434.306 599.398C382.001 562.773 441.262 366.816 375.011 350.108C308.76 333.4 116.997 495.942 21.1156 577.213L-74.766 658.484" stroke="url(#paint43_linear_245_568)" stroke-width="2"/>
<path opacity="0.454545" d="M921.47 569.827L903.06 541.685C884.65 513.543 847.831 457.259 747.814 487.959C647.796 518.66 484.581 636.345 433.718 599.39C382.854 562.436 444.343 370.842 379.436 353.218C314.528 335.593 123.225 491.938 27.5732 570.111L-68.0785 648.283" stroke="url(#paint44_linear_245_568)" stroke-width="2"/>
<path opacity="0.464646" d="M913.322 579.157L895.672 551.162C878.022 523.166 842.722 467.175 743.855 495.54C644.988 523.906 482.553 636.628 433.127 599.383C383.701 562.138 447.283 374.925 383.731 356.426C320.179 337.927 129.492 488.141 34.1485 563.248L-61.195 638.355" stroke="url(#paint45_linear_245_568)" stroke-width="2"/>
<path opacity="0.474747" d="M905 588.214L888.099 560.383C871.198 532.551 837.395 476.889 739.728 502.969C642.062 529.05 480.53 636.873 432.536 599.376C384.541 561.879 450.084 379.06 387.897 359.728C325.711 340.396 135.795 484.55 40.8372 556.626L-54.1206 628.703" stroke="url(#paint46_linear_245_568)" stroke-width="2"/>
<path opacity="0.484848" d="M896.512 596.995L880.349 569.345C864.185 541.696 831.858 486.397 735.441 510.243C639.024 534.089 478.516 637.08 431.947 599.369C385.378 561.658 452.747 383.245 391.935 363.122C331.124 342.998 142.131 481.165 47.6355 550.248L-46.8605 619.331" stroke="url(#paint47_linear_245_568)" stroke-width="2"/>
<path opacity="0.494949" d="M887.861 605.496L872.423 578.045C856.986 550.595 826.111 495.694 730.991 517.357C635.872 539.021 476.507 637.248 431.355 599.362C386.204 561.475 455.265 387.474 395.837 366.602C336.409 345.73 148.491 477.986 54.5317 544.114L-39.4274 610.242" stroke="url(#paint48_linear_245_568)" stroke-width="2"/>
<path opacity="0.50505" d="M879.06 613.715L864.337 586.48C849.613 559.246 820.167 504.776 726.391 524.31C632.615 543.843 474.509 637.379 430.767 599.355C387.025 561.33 457.646 391.745 399.609 370.166C341.571 348.587 154.875 475.013 61.5261 538.226L-31.8223 601.44" stroke="url(#paint49_linear_245_568)" stroke-width="2"/>
<path opacity="0.515152" d="M870.112 621.649L856.09 594.647C842.069 567.644 814.026 513.639 721.639 531.096C629.251 548.553 472.518 637.472 430.177 599.348C387.835 561.223 459.884 396.055 403.243 373.81C346.603 351.566 161.273 472.246 68.6075 532.586L-24.0576 592.927" stroke="url(#paint50_linear_245_568)" stroke-width="2"/>
<path opacity="0.525253" d="M861.027 629.296L847.695 602.542C834.362 575.787 807.698 522.279 716.742 537.714C625.786 553.149 470.539 637.528 429.588 599.341C388.636 561.153 461.981 400.398 406.742 377.531C351.504 354.664 167.683 469.685 75.7723 527.195L-16.1382 584.706" stroke="url(#paint51_linear_245_568)" stroke-width="2"/>
<path opacity="0.535354" d="M851.81 636.654L839.154 610.164C826.498 583.673 801.186 530.692 711.704 544.161C622.222 557.63 468.57 637.549 428.998 599.334C389.426 561.12 463.933 404.773 410.101 381.325C356.269 357.877 174.098 467.329 83.0116 522.055L-8.07424 576.781" stroke="url(#paint52_linear_245_568)" stroke-width="2"/>
<path opacity="0.545455" d="M842.472 643.719L830.479 617.508C818.486 591.296 794.499 538.874 706.531 550.432C618.564 561.991 466.614 637.531 428.41 599.327C390.205 561.122 465.745 409.173 413.323 385.187C360.9 361.2 180.515 465.177 90.3223 517.165L0.129716 569.153" stroke="url(#paint53_linear_245_568)" stroke-width="2"/>
<path opacity="0.555556" d="M833.018 650.491L821.674 624.574C810.33 598.657 787.642 546.822 701.227 556.528C614.812 566.234 464.671 637.479 427.821 599.321C390.972 561.162 467.414 413.598 416.403 389.115C365.392 364.632 186.928 463.229 97.6958 512.527L8.46372 561.826" stroke="url(#paint54_linear_245_568)" stroke-width="2"/>
<path opacity="0.565657" d="M823.455 656.966L812.746 631.358C802.037 605.749 780.62 554.532 695.796 562.443C610.971 570.353 462.741 637.391 427.232 599.313C391.724 561.236 468.939 418.042 419.341 393.104C369.743 368.166 193.331 461.483 105.125 508.141L16.9196 554.8" stroke="url(#paint55_linear_245_568)" stroke-width="2"/>
<path opacity="0.575758" d="M813.793 663.146L803.705 637.86C793.617 612.574 773.442 562.002 690.244 568.176C607.046 574.35 460.826 637.269 426.645 599.308C392.464 561.346 470.323 422.504 422.137 397.152C373.951 371.801 199.721 459.94 112.606 504.01L25.4914 548.08" stroke="url(#paint56_linear_245_568)" stroke-width="2"/>
<path opacity="0.585859" d="M804.038 669.025L794.556 644.075C785.075 619.126 766.112 569.227 684.574 573.724C603.037 578.22 458.925 637.111 426.056 599.301C393.188 561.49 471.563 426.976 424.789 401.253C378.015 375.53 206.092 458.597 120.131 500.131L34.1696 541.664" stroke="url(#paint57_linear_245_568)" stroke-width="2"/>
<path opacity="0.59596" d="M794.197 674.604L785.307 650.005C776.417 625.405 758.637 576.206 678.793 579.085C598.948 581.964 457.04 636.921 425.468 599.294C393.896 561.668 472.66 431.459 427.296 405.405C381.931 379.352 212.439 457.455 127.693 496.506L42.9464 535.557" stroke="url(#paint58_linear_245_568)" stroke-width="2"/>
<path opacity="0.606061" d="M784.28 679.883L775.966 655.646C767.652 631.409 751.025 582.935 672.905 584.257C594.785 585.579 455.172 636.696 424.879 599.288C394.587 561.88 473.615 435.946 429.657 409.604C385.7 383.262 218.757 456.511 135.286 493.135L51.8144 529.76" stroke="url(#paint59_linear_245_568)" stroke-width="2"/>
<path opacity="0.616162" d="M774.293 684.858L766.54 660.996C758.787 637.134 743.282 589.411 666.915 589.237C590.549 589.063 453.322 636.438 424.292 599.281C395.262 562.124 474.428 440.435 431.873 413.845C389.318 387.254 225.042 455.763 142.904 490.017L60.7663 524.272" stroke="url(#paint60_linear_245_568)" stroke-width="2"/>
<path opacity="0.626263" d="M764.244 689.531L757.036 666.057C749.829 642.582 735.413 595.633 660.829 594.025C586.244 592.416 451.49 636.149 423.704 599.276C395.918 562.402 475.1 444.923 433.943 418.125C392.785 391.327 231.289 455.212 150.541 487.154L69.7931 519.096" stroke="url(#paint61_linear_245_568)" stroke-width="2"/>
<path opacity="0.636364" d="M754.143 693.9L747.465 670.824C740.787 647.748 727.43 601.597 654.653 598.616C581.877 595.636 449.68 635.827 423.119 599.269C396.558 562.711 475.633 449.404 435.867 422.44C396.102 395.475 237.496 454.854 158.193 484.543L78.8897 514.232" stroke="url(#paint62_linear_245_568)" stroke-width="2"/>
<path opacity="0.646465" d="M743.994 697.965L737.829 675.299C731.664 652.633 719.334 607.302 648.389 603.012C577.445 598.722 447.887 635.475 422.531 599.263C397.176 563.052 476.023 453.877 437.643 426.786C399.262 399.696 243.653 454.689 165.848 482.186L88.0435 509.682" stroke="url(#paint63_linear_245_568)" stroke-width="2"/>
<path opacity="0.656566" d="M733.805 701.726L728.137 679.481C722.468 657.236 711.132 612.745 642.043 607.209C572.954 601.673 446.113 635.092 421.943 599.258C397.773 563.424 476.273 458.338 439.269 431.16C402.265 403.983 249.756 454.715 173.502 480.08L97.2478 505.446" stroke="url(#paint64_linear_245_568)" stroke-width="2"/>
<path opacity="0.666667" d="M723.585 705.183L718.397 683.369C713.209 661.555 702.833 617.926 635.622 611.207C568.41 604.488 444.362 634.679 421.356 599.253C398.35 563.826 476.385 462.783 440.749 435.559C405.112 408.334 255.804 454.929 181.15 478.227L106.496 501.524" stroke="url(#paint65_linear_245_568)" stroke-width="2"/>
<path opacity="0.676768" d="M713.343 708.335L708.619 686.962C703.894 665.588 694.445 622.841 629.13 615.003C563.814 607.166 442.633 634.237 420.769 599.247C398.905 564.258 476.359 467.208 442.081 439.976C407.802 412.744 261.791 455.33 188.786 476.623L115.781 497.916" stroke="url(#paint66_linear_245_568)" stroke-width="2"/>
<path opacity="0.686869" d="M703.086 711.184L698.808 690.26C694.529 669.337 685.973 627.49 622.573 618.598C559.172 609.705 440.927 633.766 420.183 599.242C399.439 564.718 476.196 471.61 443.265 444.41C410.333 417.209 267.713 455.916 196.403 475.27L125.093 494.623" stroke="url(#paint67_linear_245_568)" stroke-width="2"/>
<path opacity="0.69697" d="M692.821 713.727L688.972 693.263C685.123 672.799 677.425 631.87 615.956 621.987C554.486 612.103 439.245 633.265 419.598 599.235C399.95 565.206 475.898 475.985 444.302 448.854C412.705 421.723 273.565 456.683 203.995 474.163L134.425 491.643" stroke="url(#paint68_linear_245_568)" stroke-width="2"/>
<path opacity="0.707071" d="M682.554 715.97L679.117 695.973C675.68 675.976 668.806 635.982 609.282 625.173C549.759 614.364 437.585 632.739 419.011 599.231C400.437 565.723 475.463 480.331 445.189 453.308C414.915 426.286 279.341 457.632 211.555 473.305L143.768 488.978" stroke="url(#paint69_linear_245_568)" stroke-width="2"/>
<path opacity="0.717172" d="M672.294 717.91L669.251 698.388C666.209 678.867 660.124 639.824 602.559 628.154C544.994 616.484 435.949 632.186 418.424 599.226C400.898 566.266 474.893 484.644 445.928 457.767C416.963 430.89 285.038 458.758 219.076 472.692L153.113 486.626" stroke="url(#paint70_linear_245_568)" stroke-width="2"/>
<path opacity="0.727273" d="M662.051 719.548L659.385 700.51C656.719 681.471 651.387 643.395 595.793 630.928C540.198 618.462 434.339 631.606 417.838 599.221C401.337 566.836 474.193 488.92 446.522 462.226C418.851 435.532 290.654 460.059 226.555 472.322L162.456 484.585" stroke="url(#paint71_linear_245_568)" stroke-width="2"/>
<path opacity="0.737374" d="M651.828 720.887L649.521 702.339C647.215 683.79 642.601 646.694 588.986 633.497C535.371 620.3 432.755 631.002 417.252 599.217C401.749 567.431 473.36 493.158 446.968 466.683C420.576 440.209 296.181 461.533 233.983 472.195L171.786 482.858" stroke="url(#paint72_linear_245_568)" stroke-width="2"/>
<path opacity="0.747475" d="M641.638 721.927L639.672 703.875C637.706 685.824 633.774 649.72 582.147 635.858C530.52 621.995 431.198 630.373 416.667 599.212C402.137 568.051 472.398 497.351 447.268 471.133C422.139 444.914 301.618 463.177 241.358 472.309L181.098 481.44" stroke="url(#paint73_linear_245_568)" stroke-width="2"/>
<path opacity="0.757576" d="M631.481 722.67L629.839 705.121C628.196 687.572 624.91 652.474 575.277 638.011C525.645 623.548 429.665 629.721 416.08 599.208C402.495 568.696 471.305 501.499 447.42 475.572C423.536 449.645 306.957 464.989 248.668 472.66L190.379 480.332" stroke="url(#paint74_linear_245_568)" stroke-width="2"/>
<path opacity="0.767677" d="M621.372 723.116L620.034 706.076C618.696 689.035 616.02 654.954 568.386 639.956C520.753 624.958 428.161 629.044 415.494 599.203C402.828 569.362 470.086 505.596 447.429 479.996C424.772 454.396 312.199 466.963 255.913 473.247L199.626 479.53" stroke="url(#paint75_linear_245_568)" stroke-width="2"/>
<path opacity="0.777778" d="M611.315 723.27L610.263 706.743C609.212 690.215 607.109 657.161 561.477 641.693C515.846 626.226 426.685 628.345 414.909 599.199C403.133 570.053 468.742 509.641 447.293 484.403C425.844 459.165 317.337 469.1 263.084 474.068L208.83 479.036" stroke="url(#paint76_linear_245_568)" stroke-width="2"/>
<path opacity="0.787879" d="M601.318 723.132L600.535 707.123C599.752 691.114 598.186 659.096 554.558 643.224C510.929 627.352 425.239 627.626 414.325 599.195C403.412 570.765 467.276 513.631 447.015 488.788C426.755 463.946 322.37 471.396 270.178 475.121L217.985 478.846" stroke="url(#paint77_linear_245_568)" stroke-width="2"/>
<path opacity="0.79798" d="M591.386 722.704L590.853 707.217C590.32 691.73 589.253 660.757 547.628 644.545C506.003 628.333 423.819 626.884 413.739 599.191C403.66 571.498 465.685 517.56 446.592 493.148C427.5 468.735 327.289 473.847 277.184 476.402L227.079 478.958" stroke="url(#paint78_linear_245_568)" stroke-width="2"/>
<path opacity="0.808081" d="M581.53 721.989L581.228 707.028C580.926 692.067 580.323 662.146 540.698 645.66C501.074 629.174 422.429 626.123 413.155 599.187C403.88 572.251 463.975 521.429 446.029 497.479C428.083 473.528 332.095 476.45 284.102 477.91L236.108 479.371" stroke="url(#paint79_linear_245_568)" stroke-width="2"/>
<path opacity="0.818182" d="M571.754 720.99L571.665 706.558C571.576 692.126 571.398 663.263 533.772 646.567C496.145 629.871 421.069 625.343 412.57 599.184C404.07 573.024 462.146 525.233 445.324 501.777C428.502 478.321 336.783 479.202 290.923 479.642L245.063 480.082" stroke="url(#paint80_linear_245_568)" stroke-width="2"/>
<path opacity="0.828283" d="M562.067 719.708L562.172 705.808C562.278 691.908 562.489 664.108 526.854 647.267C491.22 630.427 419.74 624.545 411.985 599.18C404.23 573.816 460.201 528.968 444.48 506.039C428.76 483.11 341.349 482.099 297.643 481.593L253.937 481.088" stroke="url(#paint81_linear_245_568)" stroke-width="2"/>
<path opacity="0.838384" d="M552.473 718.148L552.755 704.782C553.036 691.416 553.598 664.684 519.949 647.762C486.3 630.841 418.439 623.729 411.399 599.177C404.359 574.626 458.14 532.634 443.497 510.262C428.854 487.89 345.788 485.139 304.255 483.763L262.722 482.387" stroke="url(#paint82_linear_245_568)" stroke-width="2"/>
<path opacity="0.848485" d="M542.984 716.31L543.422 703.48C543.86 690.65 544.737 664.99 513.065 648.051C481.392 631.113 417.171 622.896 410.814 599.174C404.458 575.452 455.967 536.225 442.378 514.441C428.788 492.657 350.1 488.317 310.756 486.146L271.412 483.976" stroke="url(#paint83_linear_245_568)" stroke-width="2"/>
<path opacity="0.858586" d="M533.603 714.201L534.18 701.908C534.757 689.615 535.911 665.029 506.205 648.137C476.5 631.245 415.934 622.048 410.23 599.172C404.527 576.296 453.685 539.741 441.124 518.575C428.562 497.408 354.281 491.631 317.14 488.742L279.999 485.853" stroke="url(#paint84_linear_245_568)" stroke-width="2"/>
<path opacity="0.868687" d="M524.338 711.821L525.035 700.066C525.732 688.31 527.126 664.8 499.375 648.019C471.624 631.237 414.728 621.184 409.645 599.169C404.563 577.154 451.294 543.177 439.735 522.657C428.175 502.137 358.326 495.075 323.401 491.544L288.476 488.013" stroke="url(#paint85_linear_245_568)" stroke-width="2"/>
<path opacity="0.878788" d="M515.194 709.174L515.993 697.957C516.791 686.74 518.388 664.306 492.579 647.698C466.769 631.089 413.553 620.306 409.059 599.166C404.566 578.027 448.796 546.531 438.212 526.686C427.628 506.841 362.231 498.647 329.532 494.55L296.834 490.453" stroke="url(#paint86_linear_245_568)" stroke-width="2"/>
<path opacity="0.888889" d="M506.181 706.265L507.063 695.586C507.944 684.907 509.707 663.549 485.824 647.176C461.941 630.803 412.411 619.415 408.475 599.164C404.539 578.914 446.195 549.801 436.56 530.659C426.925 511.516 365.997 502.344 335.533 497.758L305.069 493.171" stroke="url(#paint87_linear_245_568)" stroke-width="2"/>
<path opacity="0.89899" d="M497.304 703.097L498.25 692.955C499.196 682.814 501.087 662.53 479.114 646.454C457.14 630.379 411.302 618.511 407.89 599.163C404.479 579.814 443.494 552.985 434.779 534.571C426.064 516.158 369.618 506.16 341.396 501.162L313.173 496.163" stroke="url(#paint88_linear_245_568)" stroke-width="2"/>
<path opacity="0.909091" d="M488.57 699.674L489.562 690.068C490.554 680.462 492.537 661.251 472.455 645.534C452.374 629.817 410.227 617.595 407.307 599.16C404.387 580.726 440.694 556.078 432.871 538.419C425.048 520.761 373.094 510.093 347.117 504.758L321.14 499.424" stroke="url(#paint89_linear_245_568)" stroke-width="2"/>
<path opacity="0.919192" d="M479.984 695.999L481.003 686.927C482.022 677.856 484.061 659.713 465.851 644.417C447.642 629.12 409.183 616.669 406.722 599.158C404.261 581.648 437.798 559.079 430.837 542.201C423.877 525.323 376.419 514.137 352.69 508.543L328.961 502.95" stroke="url(#paint90_linear_245_568)" stroke-width="2"/>
<path opacity="0.929293" d="M471.553 692.077L472.582 683.538C473.61 674.999 475.668 657.921 459.309 643.104C442.95 628.288 408.174 615.732 406.139 599.157C404.104 582.581 434.809 561.986 428.681 545.913C422.553 529.84 379.593 518.289 358.112 512.514L336.632 506.739" stroke="url(#paint91_linear_245_568)" stroke-width="2"/>
<path opacity="0.939394" d="M463.283 687.913L464.302 679.904C465.322 671.894 467.362 655.876 452.83 641.599C438.299 627.322 407.198 614.787 405.555 599.155C403.912 583.524 431.728 564.796 426.402 549.551C421.077 534.307 382.611 522.546 363.377 516.665L344.144 510.784" stroke="url(#paint92_linear_245_568)" stroke-width="2"/>
<path opacity="0.949495" d="M455.179 683.511L456.172 676.028C457.164 668.545 459.15 653.58 446.422 639.902C433.694 626.224 406.254 613.833 404.97 599.154C403.686 584.475 428.557 567.507 424.004 553.114C419.45 538.721 385.471 526.902 368.481 520.993L351.491 515.083" stroke="url(#paint93_linear_245_568)" stroke-width="2"/>
<path opacity="0.959596" d="M447.248 678.875L448.196 671.916C449.143 664.956 451.038 651.037 440.089 638.017C429.139 624.996 405.344 612.873 404.385 599.154C403.426 585.434 425.301 570.118 421.488 556.598C417.674 543.078 388.171 531.355 373.419 525.493L358.667 519.632" stroke="url(#paint94_linear_245_568)" stroke-width="2"/>
<path opacity="0.969697" d="M439.497 674.01L440.381 667.569C441.266 661.129 443.035 648.248 433.836 635.942C424.636 623.636 404.469 611.905 403.801 599.152C403.132 586.399 421.963 572.624 418.857 559.998C415.752 547.373 390.709 535.897 378.188 530.16L365.667 524.422" stroke="url(#paint95_linear_245_568)" stroke-width="2"/>
<path opacity="0.979798" d="M431.931 668.921L432.735 662.995C433.539 657.069 435.146 645.218 427.669 633.683C420.191 622.149 403.629 610.932 403.218 599.151C402.806 587.37 418.546 575.025 416.115 563.314C413.685 551.604 393.085 540.528 382.785 534.99L372.485 529.452" stroke="url(#paint96_linear_245_568)" stroke-width="2"/>
<path opacity="0.989899" d="M424.554 663.613L425.259 658.197C425.964 652.781 427.375 641.949 421.589 631.242C415.803 620.536 402.821 609.955 402.632 599.151C402.444 588.346 415.049 577.319 413.261 566.542C411.473 555.766 395.293 545.241 387.202 539.979L379.112 534.716" stroke="url(#paint97_linear_245_568)" stroke-width="2"/>
<path d="M417.373 658.092L417.963 653.18C418.552 648.268 419.731 638.445 415.605 628.621C411.479 618.798 402.048 608.974 402.048 599.151C402.048 589.327 411.479 579.504 410.3 569.68C409.121 559.857 397.333 550.033 391.439 545.121L385.545 540.21" stroke="url(#paint98_linear_245_568)" stroke-width="2"/>
</g>
<defs>
<linearGradient id="paint0_linear_245_568" x1="542.514" y1="1187.51" x2="377.137" y2="10.7914" gradientUnits="userSpaceOnUse">
<stop stop-color="#BFBFBF"/>
<stop offset="1" stop-color="#F7F5F7"/>
</linearGradient>
<linearGradient id="paint1_linear_245_568" x1="530.926" y1="1183.01" x2="387.547" y2="15.2889" gradientUnits="userSpaceOnUse">
<stop stop-color="#BFBFBF"/>
<stop offset="1" stop-color="#F7F5F7"/>
</linearGradient>
<linearGradient id="paint2_linear_245_568" x1="519.518" y1="1178.31" x2="397.773" y2="19.9876" gradientUnits="userSpaceOnUse">
<stop stop-color="#BFBFBF"/>
<stop offset="1" stop-color="#F7F5F7"/>
</linearGradient>
<linearGradient id="paint3_linear_245_568" x1="508.3" y1="1173.42" x2="407.816" y2="24.8851" gradientUnits="userSpaceOnUse">
<stop stop-color="#BFBFBF"/>
<stop offset="1" stop-color="#F7F5F7"/>
</linearGradient>
<linearGradient id="paint4_linear_245_568" x1="497.267" y1="1168.33" x2="417.666" y2="29.9765" gradientUnits="userSpaceOnUse">
<stop stop-color="#BFBFBF"/>
<stop offset="1" stop-color="#F7F5F7"/>
</linearGradient>
<linearGradient id="paint5_linear_245_568" x1="486.43" y1="1163.05" x2="427.325" y2="35.2542" gradientUnits="userSpaceOnUse">
<stop stop-color="#BFBFBF"/>
<stop offset="1" stop-color="#F7F5F7"/>
</linearGradient>
<linearGradient id="paint6_linear_245_568" x1="475.79" y1="1157.59" x2="436.788" y2="40.7142" gradientUnits="userSpaceOnUse">
<stop stop-color="#BFBFBF"/>
<stop offset="1" stop-color="#F7F5F7"/>
</linearGradient>
<linearGradient id="paint7_linear_245_568" x1="465.348" y1="1151.95" x2="446.05" y2="46.3526" gradientUnits="userSpaceOnUse">
<stop stop-color="#BFBFBF"/>
<stop offset="1" stop-color="#F7F5F7"/>
</linearGradient>
<linearGradient id="paint8_linear_245_568" x1="455.11" y1="1146.14" x2="455.11" y2="52.163" gradientUnits="userSpaceOnUse">
<stop stop-color="#BFBFBF"/>
<stop offset="1" stop-color="#F7F5F7"/>
</linearGradient>
<linearGradient id="paint9_linear_245_568" x1="445.078" y1="1140.16" x2="463.965" y2="58.1388" gradientUnits="userSpaceOnUse">
<stop stop-color="#BFBFBF"/>
<stop offset="1" stop-color="#F7F5F7"/>
</linearGradient>
<linearGradient id="paint10_linear_245_568" x1="435.252" y1="1134.02" x2="472.609" y2="64.2768" gradientUnits="userSpaceOnUse">
<stop stop-color="#BFBFBF"/>
<stop offset="1" stop-color="#F7F5F7"/>
</linearGradient>
<linearGradient id="paint11_linear_245_568" x1="425.641" y1="1127.73" x2="481.044" y2="70.5707" gradientUnits="userSpaceOnUse">
<stop stop-color="#BFBFBF"/>
<stop offset="1" stop-color="#F7F5F7"/>
</linearGradient>
<linearGradient id="paint12_linear_245_568" x1="416.241" y1="1121.29" x2="489.264" y2="77.0144" gradientUnits="userSpaceOnUse">
<stop stop-color="#BFBFBF"/>
<stop offset="1" stop-color="#F7F5F7"/>
</linearGradient>
<linearGradient id="paint13_linear_245_568" x1="407.057" y1="1114.7" x2="497.267" y2="83.6025" gradientUnits="userSpaceOnUse">
<stop stop-color="#BFBFBF"/>
<stop offset="1" stop-color="#F7F5F7"/>
</linearGradient>
<linearGradient id="paint14_linear_245_568" x1="398.094" y1="1107.97" x2="505.053" y2="90.3302" gradientUnits="userSpaceOnUse">
<stop stop-color="#BFBFBF"/>
<stop offset="1" stop-color="#F7F5F7"/>
</linearGradient>
<linearGradient id="paint15_linear_245_568" x1="389.352" y1="1101.11" x2="512.617" y2="97.1903" gradientUnits="userSpaceOnUse">
<stop stop-color="#BFBFBF"/>
<stop offset="1" stop-color="#F7F5F7"/>
</linearGradient>
<linearGradient id="paint16_linear_245_568" x1="380.832" y1="1094.12" x2="519.959" y2="104.18" gradientUnits="userSpaceOnUse">
<stop stop-color="#BFBFBF"/>
<stop offset="1" stop-color="#F7F5F7"/>
</linearGradient>
<linearGradient id="paint17_linear_245_568" x1="372.536" y1="1087.01" x2="527.075" y2="111.29" gradientUnits="userSpaceOnUse">
<stop stop-color="#BFBFBF"/>
<stop offset="1" stop-color="#F7F5F7"/>
</linearGradient>
<linearGradient id="paint18_linear_245_568" x1="364.468" y1="1079.78" x2="533.965" y2="118.518" gradientUnits="userSpaceOnUse">
<stop stop-color="#BFBFBF"/>
<stop offset="1" stop-color="#F7F5F7"/>
</linearGradient>
<linearGradient id="paint19_linear_245_568" x1="356.627" y1="1072.44" x2="540.625" y2="125.856" gradientUnits="userSpaceOnUse">
<stop stop-color="#BFBFBF"/>
<stop offset="1" stop-color="#F7F5F7"/>
</linearGradient>
<linearGradient id="paint20_linear_245_568" x1="349.018" y1="1065" x2="547.057" y2="133.299" gradientUnits="userSpaceOnUse">
<stop stop-color="#BFBFBF"/>
<stop offset="1" stop-color="#F7F5F7"/>
</linearGradient>
<linearGradient id="paint21_linear_245_568" x1="341.638" y1="1057.46" x2="553.256" y2="140.842" gradientUnits="userSpaceOnUse">
<stop stop-color="#BFBFBF"/>
<stop offset="1" stop-color="#F7F5F7"/>
</linearGradient>
<linearGradient id="paint22_linear_245_568" x1="334.492" y1="1049.82" x2="559.223" y2="148.477" gradientUnits="userSpaceOnUse">
<stop stop-color="#BFBFBF"/>
<stop offset="1" stop-color="#F7F5F7"/>
</linearGradient>
<linearGradient id="paint23_linear_245_568" x1="327.58" y1="1042.1" x2="564.956" y2="156.2" gradientUnits="userSpaceOnUse">
<stop stop-color="#BFBFBF"/>
<stop offset="1" stop-color="#F7F5F7"/>
</linearGradient>
<linearGradient id="paint24_linear_245_568" x1="320.904" y1="1034.3" x2="570.457" y2="164.004" gradientUnits="userSpaceOnUse">
<stop stop-color="#BFBFBF"/>
<stop offset="1" stop-color="#F7F5F7"/>
</linearGradient>
<linearGradient id="paint25_linear_245_568" x1="314.462" y1="1026.42" x2="575.718" y2="171.884" gradientUnits="userSpaceOnUse">
<stop stop-color="#BFBFBF"/>
<stop offset="1" stop-color="#F7F5F7"/>
</linearGradient>
<linearGradient id="paint26_linear_245_568" x1="308.256" y1="1018.47" x2="580.744" y2="179.836" gradientUnits="userSpaceOnUse">
<stop stop-color="#BFBFBF"/>
<stop offset="1" stop-color="#F7F5F7"/>
</linearGradient>
<linearGradient id="paint27_linear_245_568" x1="302.289" y1="1010.45" x2="585.533" y2="187.85" gradientUnits="userSpaceOnUse">
<stop stop-color="#BFBFBF"/>
<stop offset="1" stop-color="#F7F5F7"/>
</linearGradient>
<linearGradient id="paint28_linear_245_568" x1="296.558" y1="1002.38" x2="590.084" y2="195.923" gradientUnits="userSpaceOnUse">
<stop stop-color="#BFBFBF"/>
<stop offset="1" stop-color="#F7F5F7"/>
</linearGradient>
<linearGradient id="paint29_linear_245_568" x1="291.066" y1="994.253" x2="594.397" y2="204.049" gradientUnits="userSpaceOnUse">
<stop stop-color="#BFBFBF"/>
<stop offset="1" stop-color="#F7F5F7"/>
</linearGradient>
<linearGradient id="paint30_linear_245_568" x1="285.812" y1="986.081" x2="598.472" y2="212.221" gradientUnits="userSpaceOnUse">
<stop stop-color="#BFBFBF"/>
<stop offset="1" stop-color="#F7F5F7"/>
</linearGradient>
<linearGradient id="paint31_linear_245_568" x1="280.797" y1="977.868" x2="602.308" y2="220.434" gradientUnits="userSpaceOnUse">
<stop stop-color="#BFBFBF"/>
<stop offset="1" stop-color="#F7F5F7"/>
</linearGradient>
<linearGradient id="paint32_linear_245_568" x1="276.021" y1="969.62" x2="605.909" y2="228.681" gradientUnits="userSpaceOnUse">
<stop stop-color="#BFBFBF"/>
<stop offset="1" stop-color="#F7F5F7"/>
</linearGradient>
<linearGradient id="paint33_linear_245_568" x1="271.48" y1="961.343" x2="609.267" y2="236.958" gradientUnits="userSpaceOnUse">
<stop stop-color="#BFBFBF"/>
<stop offset="1" stop-color="#F7F5F7"/>
</linearGradient>
<linearGradient id="paint34_linear_245_568" x1="267.179" y1="953.042" x2="612.389" y2="245.258" gradientUnits="userSpaceOnUse">
<stop stop-color="#BFBFBF"/>
<stop offset="1" stop-color="#F7F5F7"/>
</linearGradient>
<linearGradient id="paint35_linear_245_568" x1="263.117" y1="944.725" x2="615.275" y2="253.576" gradientUnits="userSpaceOnUse">
<stop stop-color="#BFBFBF"/>
<stop offset="1" stop-color="#F7F5F7"/>
</linearGradient>
<linearGradient id="paint36_linear_245_568" x1="259.29" y1="936.395" x2="617.923" y2="261.906" gradientUnits="userSpaceOnUse">
<stop stop-color="#BFBFBF"/>
<stop offset="1" stop-color="#F7F5F7"/>
</linearGradient>
<linearGradient id="paint37_linear_245_568" x1="255.7" y1="928.059" x2="620.334" y2="270.242" gradientUnits="userSpaceOnUse">
<stop stop-color="#BFBFBF"/>
<stop offset="1" stop-color="#F7F5F7"/>
</linearGradient>
<linearGradient id="paint38_linear_245_568" x1="252.345" y1="919.722" x2="622.51" y2="278.578" gradientUnits="userSpaceOnUse">
<stop stop-color="#BFBFBF"/>
<stop offset="1" stop-color="#F7F5F7"/>
</linearGradient>
<linearGradient id="paint39_linear_245_568" x1="249.226" y1="911.391" x2="624.452" y2="286.91" gradientUnits="userSpaceOnUse">
<stop stop-color="#BFBFBF"/>
<stop offset="1" stop-color="#F7F5F7"/>
</linearGradient>
<linearGradient id="paint40_linear_245_568" x1="246.339" y1="903.072" x2="626.16" y2="295.23" gradientUnits="userSpaceOnUse">
<stop stop-color="#BFBFBF"/>
<stop offset="1" stop-color="#F7F5F7"/>
</linearGradient>
<linearGradient id="paint41_linear_245_568" x1="243.683" y1="894.768" x2="627.635" y2="303.535" gradientUnits="userSpaceOnUse">
<stop stop-color="#BFBFBF"/>
<stop offset="1" stop-color="#F7F5F7"/>
</linearGradient>
<linearGradient id="paint42_linear_245_568" x1="241.261" y1="886.485" x2="628.88" y2="311.816" gradientUnits="userSpaceOnUse">
<stop stop-color="#BFBFBF"/>
<stop offset="1" stop-color="#F7F5F7"/>
</linearGradient>
<linearGradient id="paint43_linear_245_568" x1="239.065" y1="878.231" x2="629.894" y2="320.07" gradientUnits="userSpaceOnUse">
<stop stop-color="#BFBFBF"/>
<stop offset="1" stop-color="#F7F5F7"/>
</linearGradient>
<linearGradient id="paint44_linear_245_568" x1="237.101" y1="870.009" x2="630.682" y2="328.291" gradientUnits="userSpaceOnUse">
<stop stop-color="#BFBFBF"/>
<stop offset="1" stop-color="#F7F5F7"/>
</linearGradient>
<linearGradient id="paint45_linear_245_568" x1="235.361" y1="861.827" x2="631.243" y2="336.475" gradientUnits="userSpaceOnUse">
<stop stop-color="#BFBFBF"/>
<stop offset="1" stop-color="#F7F5F7"/>
</linearGradient>
<linearGradient id="paint46_linear_245_568" x1="233.846" y1="853.687" x2="631.578" y2="344.614" gradientUnits="userSpaceOnUse">
<stop stop-color="#BFBFBF"/>
<stop offset="1" stop-color="#F7F5F7"/>
</linearGradient>
<linearGradient id="paint47_linear_245_568" x1="232.555" y1="845.597" x2="631.692" y2="352.704" gradientUnits="userSpaceOnUse">
<stop stop-color="#BFBFBF"/>
<stop offset="1" stop-color="#F7F5F7"/>
</linearGradient>
<linearGradient id="paint48_linear_245_568" x1="231.482" y1="837.562" x2="631.583" y2="360.739" gradientUnits="userSpaceOnUse">
<stop stop-color="#BFBFBF"/>
<stop offset="1" stop-color="#F7F5F7"/>
</linearGradient>
<linearGradient id="paint49_linear_245_568" x1="230.63" y1="829.586" x2="631.258" y2="368.715" gradientUnits="userSpaceOnUse">
<stop stop-color="#BFBFBF"/>
<stop offset="1" stop-color="#F7F5F7"/>
</linearGradient>
<linearGradient id="paint50_linear_245_568" x1="229.993" y1="821.674" x2="630.716" y2="376.627" gradientUnits="userSpaceOnUse">
<stop stop-color="#BFBFBF"/>
<stop offset="1" stop-color="#F7F5F7"/>
</linearGradient>
<linearGradient id="paint51_linear_245_568" x1="229.571" y1="813.833" x2="629.96" y2="384.468" gradientUnits="userSpaceOnUse">
<stop stop-color="#BFBFBF"/>
<stop offset="1" stop-color="#F7F5F7"/>
</linearGradient>
<linearGradient id="paint52_linear_245_568" x1="229.358" y1="806.067" x2="628.991" y2="392.235" gradientUnits="userSpaceOnUse">
<stop stop-color="#BFBFBF"/>
<stop offset="1" stop-color="#F7F5F7"/>
</linearGradient>
<linearGradient id="paint53_linear_245_568" x1="229.357" y1="798.38" x2="627.816" y2="399.921" gradientUnits="userSpaceOnUse">
<stop stop-color="#BFBFBF"/>
<stop offset="1" stop-color="#F7F5F7"/>
</linearGradient>
<linearGradient id="paint54_linear_245_568" x1="229.561" y1="790.779" x2="626.434" y2="407.523" gradientUnits="userSpaceOnUse">
<stop stop-color="#BFBFBF"/>
<stop offset="1" stop-color="#F7F5F7"/>
</linearGradient>
<linearGradient id="paint55_linear_245_568" x1="229.968" y1="783.266" x2="624.847" y2="415.035" gradientUnits="userSpaceOnUse">
<stop stop-color="#BFBFBF"/>
<stop offset="1" stop-color="#F7F5F7"/>
</linearGradient>
<linearGradient id="paint56_linear_245_568" x1="230.576" y1="775.849" x2="623.061" y2="422.453" gradientUnits="userSpaceOnUse">
<stop stop-color="#BFBFBF"/>
<stop offset="1" stop-color="#F7F5F7"/>
</linearGradient>
<linearGradient id="paint57_linear_245_568" x1="231.381" y1="768.53" x2="621.078" y2="429.771" gradientUnits="userSpaceOnUse">
<stop stop-color="#BFBFBF"/>
<stop offset="1" stop-color="#F7F5F7"/>
</linearGradient>
<linearGradient id="paint58_linear_245_568" x1="232.379" y1="761.315" x2="618.899" y2="436.986" gradientUnits="userSpaceOnUse">
<stop stop-color="#BFBFBF"/>
<stop offset="1" stop-color="#F7F5F7"/>
</linearGradient>
<linearGradient id="paint59_linear_245_568" x1="233.569" y1="754.208" x2="616.529" y2="444.094" gradientUnits="userSpaceOnUse">
<stop stop-color="#BFBFBF"/>
<stop offset="1" stop-color="#F7F5F7"/>
</linearGradient>
<linearGradient id="paint60_linear_245_568" x1="234.948" y1="747.213" x2="613.972" y2="451.087" gradientUnits="userSpaceOnUse">
<stop stop-color="#BFBFBF"/>
<stop offset="1" stop-color="#F7F5F7"/>
</linearGradient>
<linearGradient id="paint61_linear_245_568" x1="236.51" y1="740.337" x2="611.23" y2="457.965" gradientUnits="userSpaceOnUse">
<stop stop-color="#BFBFBF"/>
<stop offset="1" stop-color="#F7F5F7"/>
</linearGradient>
<linearGradient id="paint62_linear_245_568" x1="238.255" y1="733.58" x2="608.31" y2="464.72" gradientUnits="userSpaceOnUse">
<stop stop-color="#BFBFBF"/>
<stop offset="1" stop-color="#F7F5F7"/>
</linearGradient>
<linearGradient id="paint63_linear_245_568" x1="240.176" y1="726.95" x2="605.21" y2="471.351" gradientUnits="userSpaceOnUse">
<stop stop-color="#BFBFBF"/>
<stop offset="1" stop-color="#F7F5F7"/>
</linearGradient>
<linearGradient id="paint64_linear_245_568" x1="242.269" y1="720.449" x2="601.936" y2="477.851" gradientUnits="userSpaceOnUse">
<stop stop-color="#BFBFBF"/>
<stop offset="1" stop-color="#F7F5F7"/>
</linearGradient>
<linearGradient id="paint65_linear_245_568" x1="244.533" y1="714.083" x2="598.492" y2="484.219" gradientUnits="userSpaceOnUse">
<stop stop-color="#BFBFBF"/>
<stop offset="1" stop-color="#F7F5F7"/>
</linearGradient>
<linearGradient id="paint66_linear_245_568" x1="246.964" y1="707.853" x2="594.883" y2="490.449" gradientUnits="userSpaceOnUse">
<stop stop-color="#BFBFBF"/>
<stop offset="1" stop-color="#F7F5F7"/>
</linearGradient>
<linearGradient id="paint67_linear_245_568" x1="249.556" y1="701.765" x2="591.113" y2="496.537" gradientUnits="userSpaceOnUse">
<stop stop-color="#BFBFBF"/>
<stop offset="1" stop-color="#F7F5F7"/>
</linearGradient>
<linearGradient id="paint68_linear_245_568" x1="252.307" y1="695.821" x2="587.184" y2="502.479" gradientUnits="userSpaceOnUse">
<stop stop-color="#BFBFBF"/>
<stop offset="1" stop-color="#F7F5F7"/>
</linearGradient>
<linearGradient id="paint69_linear_245_568" x1="255.211" y1="690.027" x2="583.101" y2="508.274" gradientUnits="userSpaceOnUse">
<stop stop-color="#BFBFBF"/>
<stop offset="1" stop-color="#F7F5F7"/>
</linearGradient>
<linearGradient id="paint70_linear_245_568" x1="258.264" y1="684.385" x2="578.868" y2="513.917" gradientUnits="userSpaceOnUse">
<stop stop-color="#BFBFBF"/>
<stop offset="1" stop-color="#F7F5F7"/>
</linearGradient>
<linearGradient id="paint71_linear_245_568" x1="261.464" y1="678.898" x2="574.49" y2="519.403" gradientUnits="userSpaceOnUse">
<stop stop-color="#BFBFBF"/>
<stop offset="1" stop-color="#F7F5F7"/>
</linearGradient>
<linearGradient id="paint72_linear_245_568" x1="264.803" y1="673.571" x2="569.971" y2="524.731" gradientUnits="userSpaceOnUse">
<stop stop-color="#BFBFBF"/>
<stop offset="1" stop-color="#F7F5F7"/>
</linearGradient>
<linearGradient id="paint73_linear_245_568" x1="268.281" y1="668.406" x2="565.316" y2="529.896" gradientUnits="userSpaceOnUse">
<stop stop-color="#BFBFBF"/>
<stop offset="1" stop-color="#F7F5F7"/>
</linearGradient>
<linearGradient id="paint74_linear_245_568" x1="271.889" y1="663.406" x2="560.526" y2="534.896" gradientUnits="userSpaceOnUse">
<stop stop-color="#BFBFBF"/>
<stop offset="1" stop-color="#F7F5F7"/>
</linearGradient>
<linearGradient id="paint75_linear_245_568" x1="275.626" y1="658.574" x2="555.611" y2="539.727" gradientUnits="userSpaceOnUse">
<stop stop-color="#BFBFBF"/>
<stop offset="1" stop-color="#F7F5F7"/>
</linearGradient>
<linearGradient id="paint76_linear_245_568" x1="279.486" y1="653.913" x2="550.573" y2="544.387" gradientUnits="userSpaceOnUse">
<stop stop-color="#BFBFBF"/>
<stop offset="1" stop-color="#F7F5F7"/>
</linearGradient>
<linearGradient id="paint77_linear_245_568" x1="283.465" y1="649.428" x2="545.418" y2="548.874" gradientUnits="userSpaceOnUse">
<stop stop-color="#BFBFBF"/>
<stop offset="1" stop-color="#F7F5F7"/>
</linearGradient>
<linearGradient id="paint78_linear_245_568" x1="287.556" y1="645.118" x2="540.146" y2="553.183" gradientUnits="userSpaceOnUse">
<stop stop-color="#BFBFBF"/>
<stop offset="1" stop-color="#F7F5F7"/>
</linearGradient>
<linearGradient id="paint79_linear_245_568" x1="291.757" y1="640.988" x2="534.767" y2="557.313" gradientUnits="userSpaceOnUse">
<stop stop-color="#BFBFBF"/>
<stop offset="1" stop-color="#F7F5F7"/>
</linearGradient>
<linearGradient id="paint80_linear_245_568" x1="296.062" y1="637.039" x2="529.284" y2="561.261" gradientUnits="userSpaceOnUse">
<stop stop-color="#BFBFBF"/>
<stop offset="1" stop-color="#F7F5F7"/>
</linearGradient>
<linearGradient id="paint81_linear_245_568" x1="300.466" y1="633.275" x2="523.702" y2="565.025" gradientUnits="userSpaceOnUse">
<stop stop-color="#BFBFBF"/>
<stop offset="1" stop-color="#F7F5F7"/>
</linearGradient>
<linearGradient id="paint82_linear_245_568" x1="304.963" y1="629.697" x2="518.024" y2="568.603" gradientUnits="userSpaceOnUse">
<stop stop-color="#BFBFBF"/>
<stop offset="1" stop-color="#F7F5F7"/>
</linearGradient>
<linearGradient id="paint83_linear_245_568" x1="309.55" y1="626.308" x2="512.259" y2="571.992" gradientUnits="userSpaceOnUse">
<stop stop-color="#BFBFBF"/>
<stop offset="1" stop-color="#F7F5F7"/>
</linearGradient>
<linearGradient id="paint84_linear_245_568" x1="314.221" y1="623.109" x2="506.409" y2="575.192" gradientUnits="userSpaceOnUse">
<stop stop-color="#BFBFBF"/>
<stop offset="1" stop-color="#F7F5F7"/>
</linearGradient>
<linearGradient id="paint85_linear_245_568" x1="318.971" y1="620.103" x2="500.48" y2="578.198" gradientUnits="userSpaceOnUse">
<stop stop-color="#BFBFBF"/>
<stop offset="1" stop-color="#F7F5F7"/>
</linearGradient>
<linearGradient id="paint86_linear_245_568" x1="323.794" y1="617.29" x2="494.476" y2="581.011" gradientUnits="userSpaceOnUse">
<stop stop-color="#BFBFBF"/>
<stop offset="1" stop-color="#F7F5F7"/>
</linearGradient>
<linearGradient id="paint87_linear_245_568" x1="328.687" y1="614.674" x2="488.404" y2="583.628" gradientUnits="userSpaceOnUse">
<stop stop-color="#BFBFBF"/>
<stop offset="1" stop-color="#F7F5F7"/>
</linearGradient>
<linearGradient id="paint88_linear_245_568" x1="333.643" y1="612.254" x2="482.269" y2="586.048" gradientUnits="userSpaceOnUse">
<stop stop-color="#BFBFBF"/>
<stop offset="1" stop-color="#F7F5F7"/>
</linearGradient>
<linearGradient id="paint89_linear_245_568" x1="338.659" y1="610.033" x2="476.076" y2="588.268" gradientUnits="userSpaceOnUse">
<stop stop-color="#BFBFBF"/>
<stop offset="1" stop-color="#F7F5F7"/>
</linearGradient>
<linearGradient id="paint90_linear_245_568" x1="343.727" y1="608.012" x2="469.83" y2="590.289" gradientUnits="userSpaceOnUse">
<stop stop-color="#BFBFBF"/>
<stop offset="1" stop-color="#F7F5F7"/>
</linearGradient>
<linearGradient id="paint91_linear_245_568" x1="348.843" y1="606.192" x2="463.536" y2="592.109" gradientUnits="userSpaceOnUse">
<stop stop-color="#BFBFBF"/>
<stop offset="1" stop-color="#F7F5F7"/>
</linearGradient>
<linearGradient id="paint92_linear_245_568" x1="354.002" y1="604.574" x2="457.199" y2="593.727" gradientUnits="userSpaceOnUse">
<stop stop-color="#BFBFBF"/>
<stop offset="1" stop-color="#F7F5F7"/>
</linearGradient>
<linearGradient id="paint93_linear_245_568" x1="359.197" y1="603.159" x2="450.824" y2="595.142" gradientUnits="userSpaceOnUse">
<stop stop-color="#BFBFBF"/>
<stop offset="1" stop-color="#F7F5F7"/>
</linearGradient>
<linearGradient id="paint94_linear_245_568" x1="364.424" y1="601.948" x2="444.417" y2="596.354" gradientUnits="userSpaceOnUse">
<stop stop-color="#BFBFBF"/>
<stop offset="1" stop-color="#F7F5F7"/>
</linearGradient>
<linearGradient id="paint95_linear_245_568" x1="369.677" y1="600.94" x2="437.985" y2="597.36" gradientUnits="userSpaceOnUse">
<stop stop-color="#BFBFBF"/>
<stop offset="1" stop-color="#F7F5F7"/>
</linearGradient>
<linearGradient id="paint96_linear_245_568" x1="374.953" y1="600.138" x2="431.532" y2="598.162" gradientUnits="userSpaceOnUse">
<stop stop-color="#BFBFBF"/>
<stop offset="1" stop-color="#F7F5F7"/>
</linearGradient>
<linearGradient id="paint97_linear_245_568" x1="380.243" y1="599.541" x2="425.061" y2="598.759" gradientUnits="userSpaceOnUse">
<stop stop-color="#BFBFBF"/>
<stop offset="1" stop-color="#F7F5F7"/>
</linearGradient>
<linearGradient id="paint98_linear_245_568" x1="385.545" y1="599.151" x2="418.581" y2="599.151" gradientUnits="userSpaceOnUse">
<stop stop-color="#BFBFBF"/>
<stop offset="1" stop-color="#F7F5F7"/>
</linearGradient>
<clipPath id="clip0_245_568">
<rect width="1189" height="657" fill="white"/>
</clipPath>
</defs>
</svg>
