<svg width="1229" height="747" viewBox="0 0 1229 747" fill="none" xmlns="http://www.w3.org/2000/svg">
<path opacity="0.010101" d="M1053.55 -150.771L998.072 -164.382C942.591 -177.994 831.628 -205.217 747.221 -43.4917C662.813 118.233 604.96 468.906 499.899 483.671C394.837 498.437 242.567 177.295 143.407 234.049C44.2462 290.803 -1.80439 725.452 -24.8297 942.777L-47.855 1160.1" stroke="url(#paint0_linear_187_337)" stroke-width="2"/>
<path opacity="0.020202" d="M1058.76 -134.869L1004.04 -149.297C949.315 -163.726 839.871 -192.584 753.449 -33.9377C667.027 124.708 603.628 470.858 499.3 483.668C394.972 496.478 249.715 175.948 150.503 230.425C51.2905 284.903 -1.87636 714.387 -28.4598 929.13L-55.0432 1143.87" stroke="url(#paint1_linear_187_337)" stroke-width="2"/>
<path opacity="0.030303" d="M1063.58 -118.961L1009.63 -134.185C955.675 -149.409 847.772 -179.856 759.418 -24.3096C671.064 131.237 602.258 472.779 498.699 483.663C395.141 494.548 256.828 174.775 157.614 226.992C58.399 279.208 -1.71807 703.414 -31.7766 915.517L-61.8351 1127.62" stroke="url(#paint2_linear_187_337)" stroke-width="2"/>
<path opacity="0.040404" d="M1068.02 -103.054L1014.85 -119.05C961.677 -135.047 855.337 -167.039 765.132 -14.6104C674.927 137.819 600.857 474.669 498.102 483.659C395.348 492.649 263.909 173.778 164.741 223.75C65.5716 273.723 -1.3277 692.539 -34.7774 901.946L-68.227 1111.35" stroke="url(#paint3_linear_187_337)" stroke-width="2"/>
<path opacity="0.050505" d="M1072.07 -87.1558L1019.69 -103.902C967.315 -120.648 862.559 -154.141 770.585 -4.84692C678.61 144.447 599.418 476.528 497.502 483.655C395.586 490.782 270.948 172.954 171.872 220.7C72.797 268.446 -0.714937 681.766 -37.4709 888.426L-74.2268 1095.09" stroke="url(#paint4_linear_187_337)" stroke-width="2"/>
<path opacity="0.0606061" d="M1075.75 -71.2771L1024.17 -88.7506C972.595 -106.224 869.442 -141.171 775.78 4.97332C682.119 151.118 597.947 478.355 496.904 483.65C395.86 488.946 277.944 172.3 179.01 217.838C80.0753 263.376 0.122026 671.098 -39.8546 874.959L-79.8312 1078.82" stroke="url(#paint5_linear_187_337)" stroke-width="2"/>
<path opacity="0.0707071" d="M1079.05 -55.4252L1028.28 -73.6032C977.517 -91.7812 875.986 -128.137 780.718 14.845C685.45 157.827 596.445 480.148 496.306 483.645C396.167 487.142 284.895 171.815 186.148 215.165C87.4008 258.515 1.17896 660.541 -41.932 861.554L-85.0429 1062.57" stroke="url(#paint6_linear_187_337)" stroke-width="2"/>
<path opacity="0.0808081" d="M1081.97 -39.6071L1032.02 -58.4666C982.079 -77.3261 882.188 -115.045 785.396 24.7635C688.603 164.572 594.91 481.909 495.707 483.64C396.505 485.372 291.794 171.499 193.28 212.681C94.7662 253.863 2.44989 650.1 -43.7082 848.219L-89.8664 1046.34" stroke="url(#paint7_linear_187_337)" stroke-width="2"/>
<path opacity="0.0909091" d="M1084.52 -23.8321L1035.4 -43.3501C986.286 -62.868 888.051 -101.904 789.816 34.7219C691.581 171.348 593.346 483.635 495.11 483.635C396.875 483.635 298.64 171.348 200.405 210.384C102.17 249.42 3.93464 639.779 -45.1829 834.959L-94.3005 1030.14" stroke="url(#paint8_linear_187_337)" stroke-width="2"/>
<path opacity="0.10101" d="M1086.7 -8.10966L1038.42 -28.263C990.138 -48.4164 893.574 -88.7231 793.977 44.7126C694.38 178.148 591.751 485.327 494.513 483.629C397.275 481.932 305.428 171.359 207.516 208.271C109.604 245.184 5.62709 629.581 -46.3616 821.779L-98.3502 1013.98" stroke="url(#paint9_linear_187_337)" stroke-width="2"/>
<path opacity="0.111111" d="M1088.51 7.55441L1041.07 -13.2112C993.635 -33.9768 898.756 -75.508 797.879 54.7322C697.002 184.972 590.126 486.984 493.914 483.624C397.702 480.264 312.154 171.533 214.609 206.345C117.065 241.157 7.52314 619.511 -47.2476 808.688L-102.018 997.865" stroke="url(#paint10_linear_187_337)" stroke-width="2"/>
<path opacity="0.121212" d="M1089.96 23.1513L1043.37 1.79665C996.783 -19.558 903.602 -62.2673 801.525 64.7738C699.449 191.815 588.475 488.606 493.318 483.619C398.16 478.632 318.818 171.867 221.684 204.602C124.549 237.337 9.62257 609.573 -47.8409 795.691L-105.304 981.809" stroke="url(#paint11_linear_187_337)" stroke-width="2"/>
<path opacity="0.131313" d="M1091.05 38.6724L1045.31 16.752C999.579 -5.16845 908.109 -49.0093 804.913 74.8308C701.717 198.671 586.796 490.192 492.72 483.613C398.644 477.035 325.413 172.357 228.731 203.041C132.05 233.725 11.9172 599.771 -48.149 782.794L-108.215 965.817" stroke="url(#paint12_linear_187_337)" stroke-width="2"/>
<path opacity="0.141414" d="M1091.78 54.1098L1046.9 31.6468C1002.03 9.18387 912.279 -35.742 808.044 84.8972C703.81 205.536 585.09 491.741 492.122 483.607C399.154 475.473 331.937 173.002 235.749 201.66C139.562 230.319 14.405 590.108 -48.1737 770.002L-110.752 949.896" stroke="url(#paint13_linear_187_337)" stroke-width="2"/>
<path opacity="0.151515" d="M1092.15 69.4573L1048.14 46.4751C1004.13 23.4929 916.115 -22.4715 810.922 94.9687C705.729 212.409 583.361 493.254 491.526 483.601C399.691 473.949 338.388 173.8 242.736 200.46C147.084 227.12 17.0837 580.589 -47.9167 757.323L-112.917 934.058" stroke="url(#paint14_linear_187_337)" stroke-width="2"/>
<path opacity="0.161616" d="M1092.18 84.7052L1049.04 61.227C1005.9 37.7489 919.617 -9.20747 813.545 105.037C707.473 219.282 581.608 494.729 490.93 483.595C400.252 472.461 344.762 174.747 249.686 199.436C154.61 224.124 19.9473 571.216 -47.3838 744.761L-114.715 918.307" stroke="url(#paint15_linear_187_337)" stroke-width="2"/>
<path opacity="0.171717" d="M1091.85 99.8481L1049.59 75.8973C1007.32 51.9464 922.787 4.04474 815.915 115.1C709.043 226.155 579.83 496.167 490.334 483.589C400.837 471.011 351.055 175.843 256.594 198.589C162.133 221.335 22.9917 561.994 -46.5788 732.324L-116.149 902.654" stroke="url(#paint16_linear_187_337)" stroke-width="2"/>
<path opacity="0.181818" d="M1091.18 114.877L1049.79 90.4765C1008.41 66.0762 925.626 17.2756 818.033 125.148C710.439 233.021 578.031 497.567 489.737 483.582C401.444 469.598 357.265 177.084 263.458 197.916C169.65 218.748 26.2128 552.926 -45.5057 720.015L-117.224 887.104" stroke="url(#paint17_linear_187_337)" stroke-width="2"/>
<path opacity="0.191919" d="M1090.18 129.785L1049.67 104.959C1009.16 80.1324 928.137 30.4794 819.9 135.179C711.663 239.878 576.21 498.929 489.141 483.576C402.073 468.224 363.389 178.468 270.273 197.416C177.156 216.364 29.6066 544.016 -44.1682 707.842L-117.943 871.668" stroke="url(#paint18_linear_187_337)" stroke-width="2"/>
<path opacity="0.20202" d="M1088.83 144.565L1049.21 119.336C1009.58 94.1061 930.319 43.647 821.517 145.184C712.714 246.72 574.367 500.252 488.544 483.57C402.721 466.887 369.423 179.991 277.034 197.085C184.645 214.18 33.167 535.265 -42.5722 695.808L-118.311 856.351" stroke="url(#paint19_linear_187_337)" stroke-width="2"/>
<path opacity="0.212121" d="M1087.16 159.21L1048.42 133.6C1009.67 107.991 932.18 56.772 822.889 155.158C713.598 253.545 572.508 501.536 487.95 483.563C403.392 465.59 375.367 181.651 283.742 196.924C192.118 212.196 36.8943 526.679 -40.7175 683.92L-118.329 841.162" stroke="url(#paint20_linear_187_337)" stroke-width="2"/>
<path opacity="0.222222" d="M1085.16 173.713L1047.3 147.746C1009.44 121.78 933.717 69.8471 824.014 165.098C714.311 260.348 570.628 502.782 487.354 483.556C404.079 464.331 381.214 183.447 290.389 196.929C199.564 210.411 40.7785 518.259 -38.614 672.183L-118.007 826.107" stroke="url(#paint21_linear_187_337)" stroke-width="2"/>
<path opacity="0.232323" d="M1082.84 188.067L1045.86 161.766C1008.89 135.466 934.934 82.8655 824.894 174.996C714.855 267.127 568.73 503.988 486.758 483.55C404.785 463.112 386.964 185.374 296.972 197.098C206.981 208.823 44.8177 510.009 -36.2636 660.603L-117.345 811.196" stroke="url(#paint22_linear_187_337)" stroke-width="2"/>
<path opacity="0.242424" d="M1080.2 202.264L1044.11 175.653C1008.02 149.041 935.835 95.8185 825.534 184.847C715.234 273.875 566.817 505.154 486.163 483.543C405.508 461.931 392.615 187.429 303.49 197.429C214.365 207.429 49.0083 501.931 -33.6702 649.182L-116.349 796.433" stroke="url(#paint23_linear_187_337)" stroke-width="2"/>
<path opacity="0.252525" d="M1077.26 216.299L1042.05 189.399C1006.84 162.5 936.424 108.701 825.937 194.646C715.449 280.591 564.891 506.281 485.57 483.536C406.249 460.791 398.166 189.611 309.94 197.921C221.714 206.23 53.3465 494.029 -30.8374 637.928L-115.021 781.827" stroke="url(#paint24_linear_187_337)" stroke-width="2"/>
<path opacity="0.262626" d="M1074 230.165L1039.67 202.999C1005.35 175.834 936.699 121.504 826.099 204.387C715.498 287.27 562.947 507.367 484.974 483.528C407.002 459.69 403.608 191.916 316.313 198.569C229.018 205.222 57.8227 486.303 -27.7752 626.844L-113.373 767.384" stroke="url(#paint25_linear_187_337)" stroke-width="2"/>
<path opacity="0.272727" d="M1070.44 243.856L1037 216.448C1003.55 189.039 936.667 134.223 826.025 214.066C715.384 293.91 560.989 508.414 484.379 483.522C407.769 458.63 408.943 194.341 322.61 199.374C236.276 204.406 62.4354 478.759 -24.4852 615.936L-111.406 753.113" stroke="url(#paint26_linear_187_337)" stroke-width="2"/>
<path opacity="0.282828" d="M1066.59 257.365L1034.02 229.736C1001.46 202.107 936.331 146.849 825.721 223.677C715.112 300.506 559.021 509.421 483.786 483.515C408.55 457.609 414.17 196.883 328.828 200.33C243.486 203.777 67.1812 471.397 -20.9711 605.207L-109.123 739.017" stroke="url(#paint27_linear_187_337)" stroke-width="2"/>
<path opacity="0.292929" d="M1062.44 270.686L1030.75 242.858C999.067 215.031 935.692 159.375 825.186 233.214C714.679 307.053 557.04 510.386 483.191 483.507C409.342 456.629 419.284 199.538 334.961 201.436C250.639 203.334 72.0525 464.22 -17.2407 594.663L-106.534 725.105" stroke="url(#paint28_linear_187_337)" stroke-width="2"/>
<path opacity="0.30303" d="M1058.01 283.814L1027.2 255.81C996.385 227.806 934.757 171.798 824.423 242.674C714.089 313.551 555.048 511.312 482.597 483.501C410.146 455.689 424.284 202.305 341.009 202.69C257.734 203.076 77.0463 457.23 -13.2976 584.307L-103.641 711.384" stroke="url(#paint29_linear_187_337)" stroke-width="2"/>
<path opacity="0.313131" d="M1053.3 296.741L1023.36 268.582C993.415 240.424 933.528 184.107 823.436 252.05C713.344 319.993 553.048 512.197 482.004 483.493C410.96 454.789 429.168 205.179 346.967 204.088C264.767 202.998 82.1574 450.428 -9.14725 574.143L-100.452 697.859" stroke="url(#paint30_linear_187_337)" stroke-width="2"/>
<path opacity="0.323232" d="M1048.32 309.463L1019.24 281.172C990.164 252.881 932.008 196.298 822.227 261.338C712.445 326.378 551.038 513.041 481.41 483.486C411.782 453.931 433.933 208.157 352.833 205.629C271.733 203.101 87.3806 443.818 -4.7954 564.177L-96.9714 684.536" stroke="url(#paint31_linear_187_337)" stroke-width="2"/>
<path opacity="0.333333" d="M1043.07 321.974L1014.85 293.572C986.637 265.169 930.204 208.364 820.801 270.533C711.397 332.702 549.023 513.845 480.819 483.478C412.615 453.112 438.58 211.236 358.605 207.308C278.63 203.381 92.713 437.401 -0.245313 554.411L-93.2036 671.421" stroke="url(#paint32_linear_187_337)" stroke-width="2"/>
<path opacity="0.343434" d="M1037.56 334.27L1010.19 305.777C982.835 277.285 928.114 220.3 819.155 279.631C710.196 338.962 546.997 514.608 480.224 483.471C413.45 452.334 443.102 214.414 364.275 209.125C285.448 203.836 98.1439 431.178 4.4916 544.85L-89.1607 658.521" stroke="url(#paint33_linear_187_337)" stroke-width="2"/>
<path opacity="0.353535" d="M1031.79 346.342L1005.28 317.781C978.768 289.22 925.749 232.097 817.299 288.625C708.849 345.153 544.968 515.331 479.631 483.464C414.294 451.597 447.501 217.685 369.846 211.073C292.191 204.462 103.675 425.151 9.41608 535.496L-84.8423 645.841" stroke="url(#paint34_linear_187_337)" stroke-width="2"/>
<path opacity="0.363636" d="M1025.77 358.189L1000.11 329.58C974.44 300.971 923.111 243.752 815.234 297.513C707.358 351.273 542.935 516.013 479.04 483.457C415.144 450.9 451.776 221.048 375.314 213.153C298.853 205.259 109.298 419.323 14.5208 526.354L-80.2566 633.386" stroke="url(#paint35_linear_187_337)" stroke-width="2"/>
<path opacity="0.373737" d="M1019.51 369.803L994.683 341.167C969.856 312.53 920.203 255.257 812.963 306.288C705.724 357.319 540.898 516.654 478.448 483.449C415.997 450.244 455.923 224.498 380.675 215.36C305.428 206.222 115.008 413.692 19.7986 517.427L-75.4113 621.162" stroke="url(#paint36_linear_187_337)" stroke-width="2"/>
<path opacity="0.383838" d="M1013.01 381.182L989.017 352.538C965.022 323.895 917.031 266.608 810.49 314.949C703.949 363.289 538.858 517.256 477.856 483.442C416.854 449.628 459.941 228.033 385.927 217.691C311.914 207.35 120.801 408.263 25.2445 508.719L-70.312 609.175" stroke="url(#paint37_linear_187_337)" stroke-width="2"/>
<path opacity="0.393939" d="M1006.28 392.318L983.113 363.688C959.941 335.058 913.598 277.798 807.816 323.487C702.035 369.177 536.815 517.817 477.263 483.434C417.711 449.052 463.827 231.648 391.067 220.143C318.306 208.639 126.67 403.034 30.8517 500.231L-64.9666 597.428" stroke="url(#paint38_linear_187_337)" stroke-width="2"/>
<path opacity="0.40404" d="M999.335 403.208L976.979 374.612C954.623 346.015 909.912 288.821 804.949 331.902C699.987 374.982 534.773 518.337 476.673 483.427C418.572 448.516 467.584 235.341 396.094 222.713C324.604 210.086 132.613 398.007 36.6169 491.968L-59.3788 585.928" stroke="url(#paint39_linear_187_337)" stroke-width="2"/>
<path opacity="0.414141" d="M992.168 413.85L970.62 385.306C949.072 356.762 905.975 299.674 801.89 340.188C697.805 380.702 532.731 518.819 476.081 483.42C419.432 448.022 471.207 239.108 401.004 225.399C330.801 211.69 138.622 393.185 42.5317 483.933L-53.5582 574.68" stroke="url(#paint40_linear_187_337)" stroke-width="2"/>
<path opacity="0.424242" d="M984.79 424.235L964.04 395.764C943.291 367.292 901.792 310.348 798.641 348.34C695.491 386.332 530.688 519.259 475.489 483.413C420.29 447.566 474.694 242.945 405.794 228.195C336.894 213.445 144.691 388.566 48.5895 476.126L-47.5121 563.686" stroke="url(#paint41_linear_187_337)" stroke-width="2"/>
<path opacity="0.434343" d="M977.21 434.363L957.251 405.982C937.291 377.602 897.371 320.84 795.211 356.355C693.051 391.87 528.649 519.66 474.899 483.405C421.148 447.149 478.047 246.848 410.465 231.099C342.883 215.349 150.819 384.151 54.7875 468.552L-41.2443 552.953" stroke="url(#paint42_linear_187_337)" stroke-width="2"/>
<path opacity="0.444444" d="M969.433 444.228L950.253 415.958C931.073 387.687 892.714 331.146 791.598 364.23C690.483 397.314 526.611 520.022 474.306 483.398C422.001 446.773 481.262 250.816 415.011 234.108C348.76 217.4 156.997 379.942 61.1156 461.213L-34.766 542.484" stroke="url(#paint43_linear_187_337)" stroke-width="2"/>
<path opacity="0.454545" d="M961.468 453.827L943.058 425.685C924.648 397.543 887.829 341.258 787.812 371.959C687.794 402.659 524.579 520.344 473.716 483.39C422.852 446.436 484.341 254.842 419.434 237.217C354.526 219.593 163.223 375.938 67.5712 454.11L-28.0805 532.283" stroke="url(#paint44_linear_187_337)" stroke-width="2"/>
<path opacity="0.464646" d="M953.322 463.157L935.672 435.162C918.022 407.166 882.722 351.175 783.855 379.54C684.988 407.906 522.553 520.628 473.127 483.383C423.701 446.138 487.283 258.925 423.731 240.426C360.179 221.927 169.492 372.141 74.1485 447.248L-21.195 522.355" stroke="url(#paint45_linear_187_337)" stroke-width="2"/>
<path opacity="0.474747" d="M945 472.214L928.099 444.382C911.198 416.551 877.395 360.889 779.728 386.969C682.062 413.05 520.53 520.873 472.536 483.376C424.541 445.878 490.084 263.06 427.897 243.728C365.711 224.396 175.795 368.549 80.8372 440.626L-14.1206 512.703" stroke="url(#paint46_linear_187_337)" stroke-width="2"/>
<path opacity="0.484848" d="M936.51 480.994L920.347 453.345C904.183 425.696 871.856 370.397 775.439 394.243C679.022 418.089 518.514 521.08 471.945 483.369C425.376 445.658 492.745 267.245 431.933 247.121C371.122 226.998 182.13 365.165 87.6335 434.248L-6.86249 503.331" stroke="url(#paint47_linear_187_337)" stroke-width="2"/>
<path opacity="0.494949" d="M927.861 489.495L912.423 462.045C896.986 434.595 866.111 379.694 770.991 401.357C675.872 423.02 516.507 521.248 471.355 483.362C426.204 445.475 495.265 271.474 435.837 250.602C376.409 229.729 188.491 361.986 94.5317 428.114L0.572585 494.242" stroke="url(#paint48_linear_187_337)" stroke-width="2"/>
<path opacity="0.50505" d="M919.06 497.715L904.337 470.48C889.613 443.245 860.167 388.776 766.391 408.309C672.615 427.843 514.509 521.379 470.767 483.355C427.025 445.33 497.646 275.745 439.609 254.166C381.571 232.587 194.875 359.013 101.526 422.226L8.17771 485.439" stroke="url(#paint49_linear_187_337)" stroke-width="2"/>
<path opacity="0.515152" d="M910.112 505.649L896.09 478.646C882.069 451.644 854.026 397.639 761.639 415.096C669.251 432.553 512.518 521.472 470.177 483.347C427.835 445.223 499.884 280.054 443.243 257.81C386.603 235.566 201.273 356.246 108.607 416.586L15.9424 476.926" stroke="url(#paint50_linear_187_337)" stroke-width="2"/>
<path opacity="0.525253" d="M901.027 513.296L887.695 486.542C874.362 459.787 847.698 406.278 756.742 421.714C665.786 437.149 510.539 521.528 469.588 483.34C428.636 445.152 501.981 284.398 446.742 261.531C391.504 238.664 207.683 353.685 115.772 411.195L23.8618 468.706" stroke="url(#paint51_linear_187_337)" stroke-width="2"/>
<path opacity="0.535354" d="M891.81 520.654L879.154 494.163C866.498 467.673 841.186 414.692 751.704 428.161C662.222 441.63 508.57 521.548 468.998 483.334C429.426 445.12 503.933 288.772 450.101 265.325C396.269 241.877 214.098 351.329 123.012 406.055L31.9258 460.781" stroke="url(#paint52_linear_187_337)" stroke-width="2"/>
<path opacity="0.545455" d="M882.472 527.719L870.479 501.507C858.486 475.296 834.499 422.873 746.531 434.432C658.564 445.991 506.614 521.531 468.41 483.327C430.205 445.122 505.745 293.173 453.323 269.186C400.9 245.2 220.515 349.176 130.322 401.164L40.1297 453.152" stroke="url(#paint53_linear_187_337)" stroke-width="2"/>
<path opacity="0.555556" d="M873.018 534.491L861.674 508.574C850.33 482.656 827.642 430.822 741.227 440.528C654.812 450.233 504.671 521.479 467.821 483.32C430.972 445.162 507.414 297.598 456.403 273.115C405.392 248.632 226.928 347.229 137.696 396.527L48.4637 445.826" stroke="url(#paint54_linear_187_337)" stroke-width="2"/>
<path opacity="0.565657" d="M863.455 540.966L852.746 515.358C842.037 489.749 820.62 438.532 735.796 446.442C650.971 454.353 502.741 521.391 467.232 483.313C431.724 445.236 508.939 302.042 459.341 277.104C409.743 252.166 233.331 345.483 145.125 392.141L56.9196 438.8" stroke="url(#paint55_linear_187_337)" stroke-width="2"/>
<path opacity="0.575758" d="M853.793 547.145L843.705 521.859C833.617 496.573 813.442 446.002 730.244 452.176C647.046 458.349 500.826 521.269 466.645 483.307C432.464 445.346 510.323 306.503 462.137 281.152C413.951 255.8 239.721 343.94 152.606 388.01L65.4914 432.079" stroke="url(#paint56_linear_187_337)" stroke-width="2"/>
<path opacity="0.585859" d="M844.038 553.025L834.556 528.075C825.075 503.126 806.112 453.227 724.574 457.724C643.037 462.22 498.925 521.111 466.056 483.301C433.188 445.49 511.563 310.976 464.789 285.253C418.015 259.53 246.092 342.597 160.131 384.131L74.1696 425.664" stroke="url(#paint57_linear_187_337)" stroke-width="2"/>
<path opacity="0.59596" d="M834.197 558.604L825.307 534.004C816.417 509.405 798.637 460.205 718.793 463.084C638.948 465.963 497.04 520.92 465.468 483.294C433.896 445.668 512.66 315.458 467.296 289.405C421.931 263.351 252.439 341.454 167.693 380.505L82.9464 419.557" stroke="url(#paint58_linear_187_337)" stroke-width="2"/>
<path opacity="0.606061" d="M824.28 563.883L815.966 539.646C807.652 515.409 791.025 466.935 712.905 468.257C634.785 469.579 495.172 520.696 464.879 483.288C434.587 445.88 513.615 319.946 469.657 293.604C425.7 267.262 258.757 340.511 175.286 377.135L91.8144 413.76" stroke="url(#paint59_linear_187_337)" stroke-width="2"/>
<path opacity="0.616162" d="M814.293 568.858L806.54 544.996C798.787 521.134 783.282 473.411 706.915 473.237C630.549 473.063 493.322 520.438 464.292 483.281C435.262 446.124 514.428 324.435 471.873 297.844C429.318 271.254 265.042 339.763 182.904 374.017L100.766 408.271" stroke="url(#paint60_linear_187_337)" stroke-width="2"/>
<path opacity="0.626263" d="M804.244 573.531L797.036 550.056C789.829 526.582 775.413 479.633 700.829 478.024C626.244 476.416 491.49 520.149 463.704 483.275C435.918 446.402 515.1 328.922 473.943 302.125C432.785 275.327 271.289 339.211 190.541 371.154L109.793 403.096" stroke="url(#paint61_linear_187_337)" stroke-width="2"/>
<path opacity="0.636364" d="M794.143 577.9L787.465 554.824C780.787 531.748 767.43 485.596 694.653 482.616C621.877 479.636 489.68 519.827 463.119 483.269C436.558 446.711 515.633 333.404 475.867 306.439C436.102 279.475 277.496 338.854 198.193 368.543L118.89 398.232" stroke="url(#paint62_linear_187_337)" stroke-width="2"/>
<path opacity="0.646465" d="M783.994 581.965L777.829 559.299C771.664 536.633 759.334 491.301 688.389 487.012C617.445 482.722 487.887 519.474 462.531 483.263C437.176 447.052 516.023 337.877 477.643 310.786C439.262 283.695 283.653 338.688 205.848 366.185L128.044 393.682" stroke="url(#paint63_linear_187_337)" stroke-width="2"/>
<path opacity="0.656566" d="M773.805 585.726L768.137 563.481C762.468 541.235 751.132 496.745 682.043 491.209C612.954 485.673 486.113 519.091 461.943 483.258C437.773 447.424 516.273 342.337 479.269 315.16C442.265 287.983 289.756 338.714 213.502 364.08L137.248 389.446" stroke="url(#paint64_linear_187_337)" stroke-width="2"/>
<path opacity="0.666667" d="M763.585 589.183L758.397 567.369C753.209 545.555 742.833 501.926 675.622 495.207C608.41 488.488 484.362 518.679 461.356 483.253C438.35 447.826 516.385 346.783 480.749 319.558C445.112 292.334 295.804 338.929 221.15 362.227L146.496 385.524" stroke="url(#paint65_linear_187_337)" stroke-width="2"/>
<path opacity="0.676768" d="M753.343 592.335L748.619 570.962C743.894 549.588 734.445 506.841 669.13 499.003C603.814 491.165 482.633 518.236 460.769 483.247C438.905 448.257 516.359 351.208 482.081 323.976C447.802 296.744 301.791 339.33 228.786 360.623L155.781 381.916" stroke="url(#paint66_linear_187_337)" stroke-width="2"/>
<path opacity="0.686869" d="M743.086 595.184L738.808 574.26C734.529 553.337 725.973 511.49 662.573 502.597C599.172 493.704 480.927 517.765 460.183 483.242C439.439 448.718 516.196 355.61 483.265 328.409C450.333 301.209 307.713 339.916 236.403 359.269L165.093 378.623" stroke="url(#paint67_linear_187_337)" stroke-width="2"/>
<path opacity="0.69697" d="M732.821 597.727L728.972 577.263C725.123 556.798 717.425 515.87 655.956 505.986C594.486 496.103 479.245 517.265 459.598 483.235C439.95 449.206 515.898 359.984 484.302 332.854C452.705 305.723 313.565 340.683 243.995 358.162L174.425 375.642" stroke="url(#paint68_linear_187_337)" stroke-width="2"/>
<path opacity="0.707071" d="M722.554 599.969L719.117 579.972C715.68 559.975 708.806 519.982 649.282 509.173C589.759 498.363 477.585 516.739 459.011 483.23C440.437 449.722 515.463 364.331 485.189 337.308C454.915 310.285 319.341 341.631 251.555 357.304L183.768 372.977" stroke="url(#paint69_linear_187_337)" stroke-width="2"/>
<path opacity="0.717172" d="M712.294 601.91L709.251 582.388C706.209 562.867 700.124 523.824 642.559 512.154C584.994 500.484 475.949 516.186 458.424 483.226C440.898 450.266 514.893 368.644 485.928 341.767C456.963 314.89 325.038 342.758 259.076 356.692L193.113 370.626" stroke="url(#paint70_linear_187_337)" stroke-width="2"/>
<path opacity="0.727273" d="M702.051 603.548L699.385 584.509C696.719 565.471 691.387 527.394 635.793 514.928C580.198 502.462 474.339 515.606 457.838 483.221C441.337 450.835 514.193 372.92 486.522 346.226C458.851 319.532 330.654 344.058 266.555 356.322L202.456 368.585" stroke="url(#paint71_linear_187_337)" stroke-width="2"/>
<path opacity="0.737374" d="M691.828 604.887L689.521 586.338C687.215 567.79 682.601 530.694 628.986 517.497C575.371 504.3 472.755 515.002 457.252 483.217C441.749 451.431 513.36 377.157 486.968 350.683C460.576 324.208 336.181 345.533 273.983 356.195L211.786 366.857" stroke="url(#paint72_linear_187_337)" stroke-width="2"/>
<path opacity="0.747475" d="M681.638 605.926L679.672 587.875C677.706 569.823 673.774 533.72 622.147 519.857C570.52 505.995 471.198 514.373 456.667 483.212C442.137 452.051 512.398 381.351 487.268 355.132C462.139 328.914 341.618 347.177 281.358 356.308L221.098 365.44" stroke="url(#paint73_linear_187_337)" stroke-width="2"/>
<path opacity="0.757576" d="M671.481 606.67L669.839 589.121C668.196 571.572 664.91 536.474 615.277 522.011C565.645 507.548 469.665 513.72 456.08 483.208C442.495 452.696 511.305 385.499 487.42 359.572C463.536 333.645 346.957 348.988 288.668 356.66L230.379 364.332" stroke="url(#paint74_linear_187_337)" stroke-width="2"/>
<path opacity="0.767677" d="M661.372 607.116L660.034 590.075C658.696 573.035 656.02 538.953 608.386 523.956C560.753 508.958 468.161 513.043 455.494 483.203C442.828 453.362 510.086 389.595 487.429 363.996C464.772 338.396 352.199 350.963 295.913 357.247L239.626 363.53" stroke="url(#paint75_linear_187_337)" stroke-width="2"/>
<path opacity="0.777778" d="M651.315 607.27L650.263 590.742C649.212 574.215 647.109 541.161 601.477 525.693C555.846 510.226 466.685 512.345 454.909 483.199C443.133 454.052 508.742 393.64 487.293 368.402C465.844 343.164 357.337 353.1 303.084 358.068L248.83 363.036" stroke="url(#paint76_linear_187_337)" stroke-width="2"/>
<path opacity="0.787879" d="M641.316 607.132L640.533 591.123C639.75 575.114 638.184 543.095 594.556 527.223C550.927 511.351 465.237 511.625 454.323 483.195C443.41 454.765 507.274 397.63 487.013 372.788C466.753 347.946 362.368 355.396 310.176 359.121L257.983 362.846" stroke="url(#paint77_linear_187_337)" stroke-width="2"/>
<path opacity="0.79798" d="M631.386 606.704L630.853 591.217C630.32 575.73 629.253 544.756 587.628 528.545C546.003 512.333 463.819 510.884 453.739 483.191C443.66 455.497 505.685 401.56 486.592 377.147C467.5 352.735 367.289 357.846 317.184 360.402L267.079 362.958" stroke="url(#paint78_linear_187_337)" stroke-width="2"/>
<path opacity="0.808081" d="M621.53 605.989L621.228 591.028C620.926 576.067 620.323 546.145 580.698 529.659C541.074 513.173 462.429 510.123 453.155 483.187C443.88 456.251 503.975 405.429 486.029 381.478C468.083 357.528 372.095 360.449 324.102 361.91L276.108 363.371" stroke="url(#paint79_linear_187_337)" stroke-width="2"/>
<path opacity="0.818182" d="M611.754 604.99L611.665 590.558C611.576 576.126 611.398 547.263 573.772 530.567C536.145 513.871 461.069 509.343 452.57 483.184C444.07 457.024 502.146 409.233 485.324 385.777C468.502 362.321 376.783 363.202 330.923 363.642L285.063 364.082" stroke="url(#paint80_linear_187_337)" stroke-width="2"/>
<path opacity="0.828283" d="M602.065 603.708L602.17 589.808C602.276 575.908 602.487 548.108 566.852 531.267C531.218 514.427 459.738 508.545 451.983 483.18C444.228 457.816 500.199 412.968 484.478 390.039C468.758 367.11 381.347 366.099 337.641 365.593L293.936 365.088" stroke="url(#paint81_linear_187_337)" stroke-width="2"/>
<path opacity="0.838384" d="M592.473 602.148L592.755 588.782C593.036 575.416 593.598 548.684 559.949 531.762C526.3 514.841 458.439 507.729 451.399 483.177C444.359 458.626 498.14 416.634 483.497 394.262C468.854 371.89 385.788 369.139 344.255 367.763L302.722 366.387" stroke="url(#paint82_linear_187_337)" stroke-width="2"/>
<path opacity="0.848485" d="M582.984 600.31L583.422 587.48C583.86 574.65 584.737 548.99 553.065 532.051C521.392 515.113 457.171 506.896 450.814 483.174C444.458 459.452 495.967 420.225 482.378 398.441C468.788 376.657 390.1 372.316 350.756 370.146L311.412 367.976" stroke="url(#paint83_linear_187_337)" stroke-width="2"/>
<path opacity="0.858586" d="M573.603 598.2L574.18 585.907C574.757 573.614 575.911 549.028 546.205 532.137C516.5 515.245 455.934 506.047 450.23 483.171C444.527 460.295 493.685 423.74 481.124 402.574C468.562 381.408 394.281 375.63 357.14 372.741L319.999 369.852" stroke="url(#paint84_linear_187_337)" stroke-width="2"/>
<path opacity="0.868687" d="M564.338 595.821L565.035 584.066C565.732 572.31 567.126 548.8 539.375 532.019C511.624 515.237 454.728 505.184 449.645 483.169C444.563 461.154 491.294 427.177 479.735 406.657C468.175 386.137 398.326 379.075 363.401 375.544L328.476 372.013" stroke="url(#paint85_linear_187_337)" stroke-width="2"/>
<path opacity="0.878788" d="M555.194 593.174L555.993 581.957C556.791 570.74 558.388 548.306 532.579 531.697C506.769 515.089 453.553 504.306 449.059 483.166C444.566 462.027 488.796 430.531 478.212 410.686C467.628 390.841 402.231 382.647 369.532 378.55L336.834 374.453" stroke="url(#paint86_linear_187_337)" stroke-width="2"/>
<path opacity="0.888889" d="M546.181 590.265L547.063 579.586C547.944 568.907 549.707 547.549 525.824 531.176C501.941 514.803 452.411 503.415 448.475 483.164C444.539 462.914 486.195 433.801 476.56 414.659C466.925 395.516 405.997 386.344 375.533 381.758L345.069 377.171" stroke="url(#paint87_linear_187_337)" stroke-width="2"/>
<path opacity="0.89899" d="M537.304 587.097L538.25 576.955C539.196 566.813 541.087 546.53 519.114 530.454C497.14 514.378 451.302 502.511 447.89 483.162C444.479 463.814 483.494 436.984 474.779 418.571C466.064 400.157 409.618 390.16 381.396 385.161L353.173 380.163" stroke="url(#paint88_linear_187_337)" stroke-width="2"/>
<path opacity="0.909091" d="M528.57 583.673L529.562 574.068C530.554 564.462 532.537 545.25 512.455 529.534C492.374 513.817 450.227 501.595 447.307 483.16C444.387 464.725 480.694 440.077 472.871 422.419C465.048 404.761 413.094 394.092 387.117 388.758L361.14 383.424" stroke="url(#paint89_linear_187_337)" stroke-width="2"/>
<path opacity="0.919192" d="M519.984 579.998L521.003 570.927C522.022 561.856 524.061 543.713 505.851 528.416C487.642 513.119 449.183 500.668 446.722 483.158C444.261 465.648 477.798 443.078 470.837 426.201C463.877 409.323 416.419 398.136 392.69 392.543L368.961 386.95" stroke="url(#paint90_linear_187_337)" stroke-width="2"/>
<path opacity="0.929293" d="M511.551 576.077L512.58 567.538C513.608 558.999 515.666 541.921 499.307 527.104C482.948 512.288 448.172 499.732 446.137 483.157C444.102 466.581 474.807 445.986 468.679 429.913C462.551 413.84 419.591 402.289 398.11 396.514L376.63 390.739" stroke="url(#paint91_linear_187_337)" stroke-width="2"/>
<path opacity="0.939394" d="M503.281 571.913L504.301 563.903C505.32 555.894 507.36 539.876 492.828 525.599C478.297 511.322 447.196 498.786 445.553 483.155C443.91 467.523 471.726 448.796 466.4 433.551C461.075 418.307 422.609 406.545 403.375 400.665L384.142 394.784" stroke="url(#paint92_linear_187_337)" stroke-width="2"/>
<path opacity="0.949495" d="M495.179 567.511L496.172 560.028C497.164 552.545 499.15 537.58 486.422 523.902C473.694 510.224 446.254 497.833 444.97 483.154C443.686 468.475 468.557 451.507 464.004 437.114C459.45 422.721 425.471 410.902 408.481 404.993L391.491 399.083" stroke="url(#paint93_linear_187_337)" stroke-width="2"/>
<path opacity="0.959596" d="M487.248 562.875L488.196 555.916C489.143 548.956 491.038 535.037 480.089 522.016C469.139 508.996 445.344 496.873 444.385 483.153C443.426 469.434 465.301 454.118 461.488 440.598C457.674 427.078 428.171 415.355 413.419 409.493L398.667 403.631" stroke="url(#paint94_linear_187_337)" stroke-width="2"/>
<path opacity="0.969697" d="M479.497 558.01L480.381 551.569C481.266 545.129 483.035 532.248 473.836 519.942C464.636 507.636 444.469 495.905 443.801 483.152C443.132 470.399 461.963 456.624 458.857 443.998C455.752 431.373 430.709 419.897 418.188 414.16L405.667 408.422" stroke="url(#paint95_linear_187_337)" stroke-width="2"/>
<path opacity="0.979798" d="M471.931 552.92L472.735 546.995C473.539 541.069 475.146 529.217 467.669 517.683C460.191 506.149 443.629 494.932 443.218 483.151C442.806 471.37 458.546 459.025 456.115 447.314C453.685 435.604 433.085 424.528 422.785 418.99L412.485 413.451" stroke="url(#paint96_linear_187_337)" stroke-width="2"/>
<path opacity="0.989899" d="M464.554 547.613L465.259 542.197C465.964 536.781 467.375 525.948 461.589 515.242C455.803 504.535 442.821 493.955 442.632 483.15C442.444 472.346 455.049 461.319 453.261 450.542C451.473 439.766 435.293 429.241 427.202 423.978L419.112 418.716" stroke="url(#paint97_linear_187_337)" stroke-width="2"/>
<path d="M457.373 542.092L457.963 537.18C458.552 532.268 459.731 522.445 455.605 512.621C451.479 502.797 442.048 492.974 442.048 483.15C442.048 473.327 451.479 463.503 450.3 453.68C449.121 443.856 437.333 434.033 431.439 429.121L425.545 424.209" stroke="url(#paint98_linear_187_337)" stroke-width="2"/>
<defs>
<linearGradient id="paint0_linear_187_337" x1="582.514" y1="1071.51" x2="417.137" y2="-105.209" gradientUnits="userSpaceOnUse">
<stop stop-color="#BFBFBF"/>
<stop offset="1" stop-color="#F7F5F7"/>
</linearGradient>
<linearGradient id="paint1_linear_187_337" x1="570.926" y1="1067.01" x2="427.547" y2="-100.711" gradientUnits="userSpaceOnUse">
<stop stop-color="#BFBFBF"/>
<stop offset="1" stop-color="#F7F5F7"/>
</linearGradient>
<linearGradient id="paint2_linear_187_337" x1="559.518" y1="1062.31" x2="437.773" y2="-96.0126" gradientUnits="userSpaceOnUse">
<stop stop-color="#BFBFBF"/>
<stop offset="1" stop-color="#F7F5F7"/>
</linearGradient>
<linearGradient id="paint3_linear_187_337" x1="548.3" y1="1057.42" x2="447.816" y2="-91.1149" gradientUnits="userSpaceOnUse">
<stop stop-color="#BFBFBF"/>
<stop offset="1" stop-color="#F7F5F7"/>
</linearGradient>
<linearGradient id="paint4_linear_187_337" x1="537.267" y1="1052.33" x2="457.666" y2="-86.0238" gradientUnits="userSpaceOnUse">
<stop stop-color="#BFBFBF"/>
<stop offset="1" stop-color="#F7F5F7"/>
</linearGradient>
<linearGradient id="paint5_linear_187_337" x1="526.43" y1="1047.05" x2="467.325" y2="-80.7461" gradientUnits="userSpaceOnUse">
<stop stop-color="#BFBFBF"/>
<stop offset="1" stop-color="#F7F5F7"/>
</linearGradient>
<linearGradient id="paint6_linear_187_337" x1="515.79" y1="1041.59" x2="476.788" y2="-75.286" gradientUnits="userSpaceOnUse">
<stop stop-color="#BFBFBF"/>
<stop offset="1" stop-color="#F7F5F7"/>
</linearGradient>
<linearGradient id="paint7_linear_187_337" x1="505.348" y1="1035.95" x2="486.05" y2="-69.6476" gradientUnits="userSpaceOnUse">
<stop stop-color="#BFBFBF"/>
<stop offset="1" stop-color="#F7F5F7"/>
</linearGradient>
<linearGradient id="paint8_linear_187_337" x1="495.11" y1="1030.14" x2="495.11" y2="-63.8373" gradientUnits="userSpaceOnUse">
<stop stop-color="#BFBFBF"/>
<stop offset="1" stop-color="#F7F5F7"/>
</linearGradient>
<linearGradient id="paint9_linear_187_337" x1="485.078" y1="1024.16" x2="503.965" y2="-57.8615" gradientUnits="userSpaceOnUse">
<stop stop-color="#BFBFBF"/>
<stop offset="1" stop-color="#F7F5F7"/>
</linearGradient>
<linearGradient id="paint10_linear_187_337" x1="475.252" y1="1018.02" x2="512.609" y2="-51.7235" gradientUnits="userSpaceOnUse">
<stop stop-color="#BFBFBF"/>
<stop offset="1" stop-color="#F7F5F7"/>
</linearGradient>
<linearGradient id="paint11_linear_187_337" x1="465.641" y1="1011.73" x2="521.044" y2="-45.4295" gradientUnits="userSpaceOnUse">
<stop stop-color="#BFBFBF"/>
<stop offset="1" stop-color="#F7F5F7"/>
</linearGradient>
<linearGradient id="paint12_linear_187_337" x1="456.241" y1="1005.29" x2="529.264" y2="-38.9858" gradientUnits="userSpaceOnUse">
<stop stop-color="#BFBFBF"/>
<stop offset="1" stop-color="#F7F5F7"/>
</linearGradient>
<linearGradient id="paint13_linear_187_337" x1="447.057" y1="998.698" x2="537.267" y2="-32.3979" gradientUnits="userSpaceOnUse">
<stop stop-color="#BFBFBF"/>
<stop offset="1" stop-color="#F7F5F7"/>
</linearGradient>
<linearGradient id="paint14_linear_187_337" x1="438.094" y1="991.971" x2="545.053" y2="-25.67" gradientUnits="userSpaceOnUse">
<stop stop-color="#BFBFBF"/>
<stop offset="1" stop-color="#F7F5F7"/>
</linearGradient>
<linearGradient id="paint15_linear_187_337" x1="429.352" y1="985.11" x2="552.617" y2="-18.8097" gradientUnits="userSpaceOnUse">
<stop stop-color="#BFBFBF"/>
<stop offset="1" stop-color="#F7F5F7"/>
</linearGradient>
<linearGradient id="paint16_linear_187_337" x1="420.832" y1="978.121" x2="559.959" y2="-11.8203" gradientUnits="userSpaceOnUse">
<stop stop-color="#BFBFBF"/>
<stop offset="1" stop-color="#F7F5F7"/>
</linearGradient>
<linearGradient id="paint17_linear_187_337" x1="412.536" y1="971.01" x2="567.075" y2="-4.70977" gradientUnits="userSpaceOnUse">
<stop stop-color="#BFBFBF"/>
<stop offset="1" stop-color="#F7F5F7"/>
</linearGradient>
<linearGradient id="paint18_linear_187_337" x1="404.468" y1="963.783" x2="573.965" y2="2.51817" gradientUnits="userSpaceOnUse">
<stop stop-color="#BFBFBF"/>
<stop offset="1" stop-color="#F7F5F7"/>
</linearGradient>
<linearGradient id="paint19_linear_187_337" x1="396.627" y1="956.445" x2="580.625" y2="9.85605" gradientUnits="userSpaceOnUse">
<stop stop-color="#BFBFBF"/>
<stop offset="1" stop-color="#F7F5F7"/>
</linearGradient>
<linearGradient id="paint20_linear_187_337" x1="389.018" y1="949.002" x2="587.057" y2="17.2988" gradientUnits="userSpaceOnUse">
<stop stop-color="#BFBFBF"/>
<stop offset="1" stop-color="#F7F5F7"/>
</linearGradient>
<linearGradient id="paint21_linear_187_337" x1="381.638" y1="941.459" x2="593.256" y2="24.841" gradientUnits="userSpaceOnUse">
<stop stop-color="#BFBFBF"/>
<stop offset="1" stop-color="#F7F5F7"/>
</linearGradient>
<linearGradient id="paint22_linear_187_337" x1="374.492" y1="933.825" x2="599.223" y2="32.477" gradientUnits="userSpaceOnUse">
<stop stop-color="#BFBFBF"/>
<stop offset="1" stop-color="#F7F5F7"/>
</linearGradient>
<linearGradient id="paint23_linear_187_337" x1="367.58" y1="926.101" x2="604.956" y2="40.1995" gradientUnits="userSpaceOnUse">
<stop stop-color="#BFBFBF"/>
<stop offset="1" stop-color="#F7F5F7"/>
</linearGradient>
<linearGradient id="paint24_linear_187_337" x1="360.904" y1="918.297" x2="610.457" y2="48.0042" gradientUnits="userSpaceOnUse">
<stop stop-color="#BFBFBF"/>
<stop offset="1" stop-color="#F7F5F7"/>
</linearGradient>
<linearGradient id="paint25_linear_187_337" x1="354.462" y1="910.416" x2="615.718" y2="55.8841" gradientUnits="userSpaceOnUse">
<stop stop-color="#BFBFBF"/>
<stop offset="1" stop-color="#F7F5F7"/>
</linearGradient>
<linearGradient id="paint26_linear_187_337" x1="348.256" y1="902.466" x2="620.744" y2="63.8355" gradientUnits="userSpaceOnUse">
<stop stop-color="#BFBFBF"/>
<stop offset="1" stop-color="#F7F5F7"/>
</linearGradient>
<linearGradient id="paint27_linear_187_337" x1="342.289" y1="894.451" x2="625.533" y2="71.85" gradientUnits="userSpaceOnUse">
<stop stop-color="#BFBFBF"/>
<stop offset="1" stop-color="#F7F5F7"/>
</linearGradient>
<linearGradient id="paint28_linear_187_337" x1="336.558" y1="886.378" x2="630.084" y2="79.9226" gradientUnits="userSpaceOnUse">
<stop stop-color="#BFBFBF"/>
<stop offset="1" stop-color="#F7F5F7"/>
</linearGradient>
<linearGradient id="paint29_linear_187_337" x1="331.066" y1="878.253" x2="634.397" y2="88.0486" gradientUnits="userSpaceOnUse">
<stop stop-color="#BFBFBF"/>
<stop offset="1" stop-color="#F7F5F7"/>
</linearGradient>
<linearGradient id="paint30_linear_187_337" x1="325.812" y1="870.08" x2="638.472" y2="96.2201" gradientUnits="userSpaceOnUse">
<stop stop-color="#BFBFBF"/>
<stop offset="1" stop-color="#F7F5F7"/>
</linearGradient>
<linearGradient id="paint31_linear_187_337" x1="320.797" y1="861.868" x2="642.308" y2="104.433" gradientUnits="userSpaceOnUse">
<stop stop-color="#BFBFBF"/>
<stop offset="1" stop-color="#F7F5F7"/>
</linearGradient>
<linearGradient id="paint32_linear_187_337" x1="316.021" y1="853.62" x2="645.909" y2="112.681" gradientUnits="userSpaceOnUse">
<stop stop-color="#BFBFBF"/>
<stop offset="1" stop-color="#F7F5F7"/>
</linearGradient>
<linearGradient id="paint33_linear_187_337" x1="311.48" y1="845.343" x2="649.267" y2="120.958" gradientUnits="userSpaceOnUse">
<stop stop-color="#BFBFBF"/>
<stop offset="1" stop-color="#F7F5F7"/>
</linearGradient>
<linearGradient id="paint34_linear_187_337" x1="307.179" y1="837.042" x2="652.389" y2="129.258" gradientUnits="userSpaceOnUse">
<stop stop-color="#BFBFBF"/>
<stop offset="1" stop-color="#F7F5F7"/>
</linearGradient>
<linearGradient id="paint35_linear_187_337" x1="303.117" y1="828.725" x2="655.275" y2="137.576" gradientUnits="userSpaceOnUse">
<stop stop-color="#BFBFBF"/>
<stop offset="1" stop-color="#F7F5F7"/>
</linearGradient>
<linearGradient id="paint36_linear_187_337" x1="299.29" y1="820.395" x2="657.923" y2="145.906" gradientUnits="userSpaceOnUse">
<stop stop-color="#BFBFBF"/>
<stop offset="1" stop-color="#F7F5F7"/>
</linearGradient>
<linearGradient id="paint37_linear_187_337" x1="295.7" y1="812.059" x2="660.334" y2="154.242" gradientUnits="userSpaceOnUse">
<stop stop-color="#BFBFBF"/>
<stop offset="1" stop-color="#F7F5F7"/>
</linearGradient>
<linearGradient id="paint38_linear_187_337" x1="292.345" y1="803.722" x2="662.51" y2="162.578" gradientUnits="userSpaceOnUse">
<stop stop-color="#BFBFBF"/>
<stop offset="1" stop-color="#F7F5F7"/>
</linearGradient>
<linearGradient id="paint39_linear_187_337" x1="289.226" y1="795.391" x2="664.452" y2="170.909" gradientUnits="userSpaceOnUse">
<stop stop-color="#BFBFBF"/>
<stop offset="1" stop-color="#F7F5F7"/>
</linearGradient>
<linearGradient id="paint40_linear_187_337" x1="286.339" y1="787.072" x2="666.16" y2="179.23" gradientUnits="userSpaceOnUse">
<stop stop-color="#BFBFBF"/>
<stop offset="1" stop-color="#F7F5F7"/>
</linearGradient>
<linearGradient id="paint41_linear_187_337" x1="283.683" y1="778.767" x2="667.635" y2="187.534" gradientUnits="userSpaceOnUse">
<stop stop-color="#BFBFBF"/>
<stop offset="1" stop-color="#F7F5F7"/>
</linearGradient>
<linearGradient id="paint42_linear_187_337" x1="281.261" y1="770.485" x2="668.88" y2="195.815" gradientUnits="userSpaceOnUse">
<stop stop-color="#BFBFBF"/>
<stop offset="1" stop-color="#F7F5F7"/>
</linearGradient>
<linearGradient id="paint43_linear_187_337" x1="279.065" y1="762.231" x2="669.894" y2="204.07" gradientUnits="userSpaceOnUse">
<stop stop-color="#BFBFBF"/>
<stop offset="1" stop-color="#F7F5F7"/>
</linearGradient>
<linearGradient id="paint44_linear_187_337" x1="277.099" y1="754.009" x2="670.68" y2="212.291" gradientUnits="userSpaceOnUse">
<stop stop-color="#BFBFBF"/>
<stop offset="1" stop-color="#F7F5F7"/>
</linearGradient>
<linearGradient id="paint45_linear_187_337" x1="275.361" y1="745.827" x2="671.243" y2="220.475" gradientUnits="userSpaceOnUse">
<stop stop-color="#BFBFBF"/>
<stop offset="1" stop-color="#F7F5F7"/>
</linearGradient>
<linearGradient id="paint46_linear_187_337" x1="273.846" y1="737.687" x2="671.578" y2="228.613" gradientUnits="userSpaceOnUse">
<stop stop-color="#BFBFBF"/>
<stop offset="1" stop-color="#F7F5F7"/>
</linearGradient>
<linearGradient id="paint47_linear_187_337" x1="272.553" y1="729.597" x2="671.69" y2="236.704" gradientUnits="userSpaceOnUse">
<stop stop-color="#BFBFBF"/>
<stop offset="1" stop-color="#F7F5F7"/>
</linearGradient>
<linearGradient id="paint48_linear_187_337" x1="271.482" y1="721.561" x2="671.583" y2="244.739" gradientUnits="userSpaceOnUse">
<stop stop-color="#BFBFBF"/>
<stop offset="1" stop-color="#F7F5F7"/>
</linearGradient>
<linearGradient id="paint49_linear_187_337" x1="270.63" y1="713.586" x2="671.258" y2="252.715" gradientUnits="userSpaceOnUse">
<stop stop-color="#BFBFBF"/>
<stop offset="1" stop-color="#F7F5F7"/>
</linearGradient>
<linearGradient id="paint50_linear_187_337" x1="269.993" y1="705.674" x2="670.716" y2="260.626" gradientUnits="userSpaceOnUse">
<stop stop-color="#BFBFBF"/>
<stop offset="1" stop-color="#F7F5F7"/>
</linearGradient>
<linearGradient id="paint51_linear_187_337" x1="269.571" y1="697.833" x2="669.96" y2="268.468" gradientUnits="userSpaceOnUse">
<stop stop-color="#BFBFBF"/>
<stop offset="1" stop-color="#F7F5F7"/>
</linearGradient>
<linearGradient id="paint52_linear_187_337" x1="269.358" y1="690.067" x2="668.991" y2="276.235" gradientUnits="userSpaceOnUse">
<stop stop-color="#BFBFBF"/>
<stop offset="1" stop-color="#F7F5F7"/>
</linearGradient>
<linearGradient id="paint53_linear_187_337" x1="269.357" y1="682.38" x2="667.816" y2="283.92" gradientUnits="userSpaceOnUse">
<stop stop-color="#BFBFBF"/>
<stop offset="1" stop-color="#F7F5F7"/>
</linearGradient>
<linearGradient id="paint54_linear_187_337" x1="269.561" y1="674.778" x2="666.434" y2="291.523" gradientUnits="userSpaceOnUse">
<stop stop-color="#BFBFBF"/>
<stop offset="1" stop-color="#F7F5F7"/>
</linearGradient>
<linearGradient id="paint55_linear_187_337" x1="269.968" y1="667.266" x2="664.847" y2="299.034" gradientUnits="userSpaceOnUse">
<stop stop-color="#BFBFBF"/>
<stop offset="1" stop-color="#F7F5F7"/>
</linearGradient>
<linearGradient id="paint56_linear_187_337" x1="270.576" y1="659.848" x2="663.061" y2="306.453" gradientUnits="userSpaceOnUse">
<stop stop-color="#BFBFBF"/>
<stop offset="1" stop-color="#F7F5F7"/>
</linearGradient>
<linearGradient id="paint57_linear_187_337" x1="271.381" y1="652.53" x2="661.078" y2="313.771" gradientUnits="userSpaceOnUse">
<stop stop-color="#BFBFBF"/>
<stop offset="1" stop-color="#F7F5F7"/>
</linearGradient>
<linearGradient id="paint58_linear_187_337" x1="272.379" y1="645.314" x2="658.899" y2="320.986" gradientUnits="userSpaceOnUse">
<stop stop-color="#BFBFBF"/>
<stop offset="1" stop-color="#F7F5F7"/>
</linearGradient>
<linearGradient id="paint59_linear_187_337" x1="273.569" y1="638.208" x2="656.529" y2="328.094" gradientUnits="userSpaceOnUse">
<stop stop-color="#BFBFBF"/>
<stop offset="1" stop-color="#F7F5F7"/>
</linearGradient>
<linearGradient id="paint60_linear_187_337" x1="274.948" y1="631.213" x2="653.972" y2="335.087" gradientUnits="userSpaceOnUse">
<stop stop-color="#BFBFBF"/>
<stop offset="1" stop-color="#F7F5F7"/>
</linearGradient>
<linearGradient id="paint61_linear_187_337" x1="276.51" y1="624.336" x2="651.23" y2="341.964" gradientUnits="userSpaceOnUse">
<stop stop-color="#BFBFBF"/>
<stop offset="1" stop-color="#F7F5F7"/>
</linearGradient>
<linearGradient id="paint62_linear_187_337" x1="278.255" y1="617.58" x2="648.31" y2="348.72" gradientUnits="userSpaceOnUse">
<stop stop-color="#BFBFBF"/>
<stop offset="1" stop-color="#F7F5F7"/>
</linearGradient>
<linearGradient id="paint63_linear_187_337" x1="280.176" y1="610.95" x2="645.21" y2="355.35" gradientUnits="userSpaceOnUse">
<stop stop-color="#BFBFBF"/>
<stop offset="1" stop-color="#F7F5F7"/>
</linearGradient>
<linearGradient id="paint64_linear_187_337" x1="282.269" y1="604.449" x2="641.936" y2="361.851" gradientUnits="userSpaceOnUse">
<stop stop-color="#BFBFBF"/>
<stop offset="1" stop-color="#F7F5F7"/>
</linearGradient>
<linearGradient id="paint65_linear_187_337" x1="284.533" y1="598.083" x2="638.492" y2="368.219" gradientUnits="userSpaceOnUse">
<stop stop-color="#BFBFBF"/>
<stop offset="1" stop-color="#F7F5F7"/>
</linearGradient>
<linearGradient id="paint66_linear_187_337" x1="286.964" y1="591.853" x2="634.883" y2="374.448" gradientUnits="userSpaceOnUse">
<stop stop-color="#BFBFBF"/>
<stop offset="1" stop-color="#F7F5F7"/>
</linearGradient>
<linearGradient id="paint67_linear_187_337" x1="289.556" y1="585.765" x2="631.113" y2="380.537" gradientUnits="userSpaceOnUse">
<stop stop-color="#BFBFBF"/>
<stop offset="1" stop-color="#F7F5F7"/>
</linearGradient>
<linearGradient id="paint68_linear_187_337" x1="292.307" y1="579.82" x2="627.184" y2="386.479" gradientUnits="userSpaceOnUse">
<stop stop-color="#BFBFBF"/>
<stop offset="1" stop-color="#F7F5F7"/>
</linearGradient>
<linearGradient id="paint69_linear_187_337" x1="295.211" y1="574.026" x2="623.101" y2="392.274" gradientUnits="userSpaceOnUse">
<stop stop-color="#BFBFBF"/>
<stop offset="1" stop-color="#F7F5F7"/>
</linearGradient>
<linearGradient id="paint70_linear_187_337" x1="298.264" y1="568.385" x2="618.868" y2="397.917" gradientUnits="userSpaceOnUse">
<stop stop-color="#BFBFBF"/>
<stop offset="1" stop-color="#F7F5F7"/>
</linearGradient>
<linearGradient id="paint71_linear_187_337" x1="301.464" y1="562.898" x2="614.49" y2="403.403" gradientUnits="userSpaceOnUse">
<stop stop-color="#BFBFBF"/>
<stop offset="1" stop-color="#F7F5F7"/>
</linearGradient>
<linearGradient id="paint72_linear_187_337" x1="304.803" y1="557.571" x2="609.971" y2="408.73" gradientUnits="userSpaceOnUse">
<stop stop-color="#BFBFBF"/>
<stop offset="1" stop-color="#F7F5F7"/>
</linearGradient>
<linearGradient id="paint73_linear_187_337" x1="308.281" y1="552.405" x2="605.316" y2="413.896" gradientUnits="userSpaceOnUse">
<stop stop-color="#BFBFBF"/>
<stop offset="1" stop-color="#F7F5F7"/>
</linearGradient>
<linearGradient id="paint74_linear_187_337" x1="311.889" y1="547.406" x2="600.526" y2="418.896" gradientUnits="userSpaceOnUse">
<stop stop-color="#BFBFBF"/>
<stop offset="1" stop-color="#F7F5F7"/>
</linearGradient>
<linearGradient id="paint75_linear_187_337" x1="315.626" y1="542.574" x2="595.611" y2="423.727" gradientUnits="userSpaceOnUse">
<stop stop-color="#BFBFBF"/>
<stop offset="1" stop-color="#F7F5F7"/>
</linearGradient>
<linearGradient id="paint76_linear_187_337" x1="319.486" y1="537.913" x2="590.573" y2="428.387" gradientUnits="userSpaceOnUse">
<stop stop-color="#BFBFBF"/>
<stop offset="1" stop-color="#F7F5F7"/>
</linearGradient>
<linearGradient id="paint77_linear_187_337" x1="323.463" y1="533.427" x2="585.416" y2="432.873" gradientUnits="userSpaceOnUse">
<stop stop-color="#BFBFBF"/>
<stop offset="1" stop-color="#F7F5F7"/>
</linearGradient>
<linearGradient id="paint78_linear_187_337" x1="327.556" y1="529.118" x2="580.146" y2="437.182" gradientUnits="userSpaceOnUse">
<stop stop-color="#BFBFBF"/>
<stop offset="1" stop-color="#F7F5F7"/>
</linearGradient>
<linearGradient id="paint79_linear_187_337" x1="331.757" y1="524.988" x2="574.767" y2="441.312" gradientUnits="userSpaceOnUse">
<stop stop-color="#BFBFBF"/>
<stop offset="1" stop-color="#F7F5F7"/>
</linearGradient>
<linearGradient id="paint80_linear_187_337" x1="336.062" y1="521.039" x2="569.284" y2="445.261" gradientUnits="userSpaceOnUse">
<stop stop-color="#BFBFBF"/>
<stop offset="1" stop-color="#F7F5F7"/>
</linearGradient>
<linearGradient id="paint81_linear_187_337" x1="340.464" y1="517.275" x2="563.7" y2="449.025" gradientUnits="userSpaceOnUse">
<stop stop-color="#BFBFBF"/>
<stop offset="1" stop-color="#F7F5F7"/>
</linearGradient>
<linearGradient id="paint82_linear_187_337" x1="344.963" y1="513.697" x2="558.024" y2="452.603" gradientUnits="userSpaceOnUse">
<stop stop-color="#BFBFBF"/>
<stop offset="1" stop-color="#F7F5F7"/>
</linearGradient>
<linearGradient id="paint83_linear_187_337" x1="349.55" y1="510.308" x2="552.259" y2="455.992" gradientUnits="userSpaceOnUse">
<stop stop-color="#BFBFBF"/>
<stop offset="1" stop-color="#F7F5F7"/>
</linearGradient>
<linearGradient id="paint84_linear_187_337" x1="354.221" y1="507.109" x2="546.409" y2="459.191" gradientUnits="userSpaceOnUse">
<stop stop-color="#BFBFBF"/>
<stop offset="1" stop-color="#F7F5F7"/>
</linearGradient>
<linearGradient id="paint85_linear_187_337" x1="358.971" y1="504.103" x2="540.48" y2="462.198" gradientUnits="userSpaceOnUse">
<stop stop-color="#BFBFBF"/>
<stop offset="1" stop-color="#F7F5F7"/>
</linearGradient>
<linearGradient id="paint86_linear_187_337" x1="363.794" y1="501.29" x2="534.476" y2="465.01" gradientUnits="userSpaceOnUse">
<stop stop-color="#BFBFBF"/>
<stop offset="1" stop-color="#F7F5F7"/>
</linearGradient>
<linearGradient id="paint87_linear_187_337" x1="368.687" y1="498.674" x2="528.404" y2="467.628" gradientUnits="userSpaceOnUse">
<stop stop-color="#BFBFBF"/>
<stop offset="1" stop-color="#F7F5F7"/>
</linearGradient>
<linearGradient id="paint88_linear_187_337" x1="373.643" y1="496.254" x2="522.269" y2="470.047" gradientUnits="userSpaceOnUse">
<stop stop-color="#BFBFBF"/>
<stop offset="1" stop-color="#F7F5F7"/>
</linearGradient>
<linearGradient id="paint89_linear_187_337" x1="378.659" y1="494.033" x2="516.076" y2="472.268" gradientUnits="userSpaceOnUse">
<stop stop-color="#BFBFBF"/>
<stop offset="1" stop-color="#F7F5F7"/>
</linearGradient>
<linearGradient id="paint90_linear_187_337" x1="383.727" y1="492.012" x2="509.83" y2="474.289" gradientUnits="userSpaceOnUse">
<stop stop-color="#BFBFBF"/>
<stop offset="1" stop-color="#F7F5F7"/>
</linearGradient>
<linearGradient id="paint91_linear_187_337" x1="388.841" y1="490.192" x2="503.534" y2="476.109" gradientUnits="userSpaceOnUse">
<stop stop-color="#BFBFBF"/>
<stop offset="1" stop-color="#F7F5F7"/>
</linearGradient>
<linearGradient id="paint92_linear_187_337" x1="394" y1="488.573" x2="497.197" y2="477.727" gradientUnits="userSpaceOnUse">
<stop stop-color="#BFBFBF"/>
<stop offset="1" stop-color="#F7F5F7"/>
</linearGradient>
<linearGradient id="paint93_linear_187_337" x1="399.197" y1="487.159" x2="490.824" y2="479.142" gradientUnits="userSpaceOnUse">
<stop stop-color="#BFBFBF"/>
<stop offset="1" stop-color="#F7F5F7"/>
</linearGradient>
<linearGradient id="paint94_linear_187_337" x1="404.424" y1="485.948" x2="484.417" y2="480.354" gradientUnits="userSpaceOnUse">
<stop stop-color="#BFBFBF"/>
<stop offset="1" stop-color="#F7F5F7"/>
</linearGradient>
<linearGradient id="paint95_linear_187_337" x1="409.677" y1="484.94" x2="477.985" y2="481.36" gradientUnits="userSpaceOnUse">
<stop stop-color="#BFBFBF"/>
<stop offset="1" stop-color="#F7F5F7"/>
</linearGradient>
<linearGradient id="paint96_linear_187_337" x1="414.953" y1="484.138" x2="471.532" y2="482.162" gradientUnits="userSpaceOnUse">
<stop stop-color="#BFBFBF"/>
<stop offset="1" stop-color="#F7F5F7"/>
</linearGradient>
<linearGradient id="paint97_linear_187_337" x1="420.243" y1="483.541" x2="465.061" y2="482.759" gradientUnits="userSpaceOnUse">
<stop stop-color="#BFBFBF"/>
<stop offset="1" stop-color="#F7F5F7"/>
</linearGradient>
<linearGradient id="paint98_linear_187_337" x1="425.545" y1="483.15" x2="458.581" y2="483.15" gradientUnits="userSpaceOnUse">
<stop stop-color="#BFBFBF"/>
<stop offset="1" stop-color="#F7F5F7"/>
</linearGradient>
</defs>
</svg>
