<svg width="1413" height="564" viewBox="0 0 1413 564" fill="none" xmlns="http://www.w3.org/2000/svg">
<g clip-path="url(#clip0_245_569)">
<path opacity="0.010101" d="M1237.55 -205.77L1182.07 -219.382C1126.59 -232.993 1015.63 -260.216 931.221 -98.4914C846.813 63.2334 788.96 413.906 683.899 428.671C578.837 443.437 426.567 122.295 327.407 179.049C228.246 235.803 182.196 670.452 159.17 887.777L136.145 1105.1" stroke="url(#paint0_linear_245_569)" stroke-width="2"/>
<path opacity="0.020202" d="M1242.76 -189.868L1188.04 -204.297C1133.31 -218.726 1023.87 -247.584 937.449 -88.9375C851.027 69.7086 787.628 415.858 683.3 428.668C578.972 441.478 433.715 120.948 334.503 175.426C235.291 229.903 182.124 659.388 155.54 874.13L128.957 1088.87" stroke="url(#paint1_linear_245_569)" stroke-width="2"/>
<path opacity="0.030303" d="M1247.58 -173.961L1193.63 -189.185C1139.68 -204.409 1031.77 -234.856 943.418 -79.3093C855.064 76.2375 786.258 417.779 682.699 428.663C579.141 439.548 440.828 119.775 341.614 171.992C242.399 224.209 182.282 648.414 152.223 860.517L122.165 1072.62" stroke="url(#paint2_linear_245_569)" stroke-width="2"/>
<path opacity="0.040404" d="M1252.02 -158.054L1198.85 -174.05C1145.68 -190.047 1039.34 -222.039 949.132 -69.6104C858.927 82.8185 784.857 419.669 682.102 428.659C579.348 437.649 447.909 118.778 348.741 168.75C249.572 218.723 182.672 637.539 149.223 846.946L115.773 1056.35" stroke="url(#paint3_linear_245_569)" stroke-width="2"/>
<path opacity="0.050505" d="M1256.07 -142.156L1203.69 -158.902C1151.32 -175.648 1046.56 -209.141 954.585 -59.8467C862.61 89.4476 783.418 421.529 681.502 428.655C579.586 435.782 454.948 117.954 355.872 165.7C256.797 213.446 183.285 626.766 146.529 833.426L109.773 1040.09" stroke="url(#paint4_linear_245_569)" stroke-width="2"/>
<path opacity="0.0606061" d="M1259.75 -126.277L1208.17 -143.75C1156.6 -161.224 1053.44 -196.171 959.78 -50.0264C866.119 96.1183 781.947 423.355 680.904 428.65C579.86 433.946 461.944 117.3 363.01 162.838C264.075 208.376 184.122 616.098 144.145 819.959L104.169 1023.82" stroke="url(#paint5_linear_245_569)" stroke-width="2"/>
<path opacity="0.0707071" d="M1263.05 -110.425L1212.28 -128.603C1161.52 -146.781 1059.99 -183.137 964.718 -40.1547C869.45 102.828 780.445 425.148 680.306 428.645C580.167 432.142 468.895 116.815 370.148 160.165C271.401 203.515 185.179 605.541 142.068 806.554L98.9571 1007.57" stroke="url(#paint6_linear_245_569)" stroke-width="2"/>
<path opacity="0.0808081" d="M1265.97 -94.6069L1216.02 -113.466C1166.08 -132.326 1066.19 -170.045 969.396 -30.2362C872.603 109.572 778.91 426.909 679.707 428.64C580.505 430.372 475.794 116.499 377.28 157.681C278.766 198.863 186.45 595.101 140.292 793.219L94.1336 991.338" stroke="url(#paint7_linear_245_569)" stroke-width="2"/>
<path opacity="0.0909091" d="M1268.52 -78.8318L1219.4 -98.3498C1170.29 -117.868 1072.05 -156.904 973.816 -20.2779C875.581 116.348 777.346 428.636 679.11 428.636C580.875 428.636 482.64 116.348 384.405 155.384C286.17 194.42 187.935 584.78 138.817 779.959L89.6995 975.139" stroke="url(#paint8_linear_245_569)" stroke-width="2"/>
<path opacity="0.10101" d="M1270.7 -63.1094L1222.42 -83.2628C1174.14 -103.416 1077.57 -143.723 977.977 -10.2871C878.38 123.149 775.751 430.327 678.513 428.63C581.275 426.932 489.428 116.359 391.516 153.272C293.604 190.184 189.627 574.581 137.638 766.78L85.6498 958.978" stroke="url(#paint9_linear_245_569)" stroke-width="2"/>
<path opacity="0.111111" d="M1272.51 -47.4453L1225.07 -68.2109C1177.63 -88.9766 1082.76 -130.508 981.879 -0.26757C881.002 129.973 774.126 431.984 677.914 428.624C581.702 425.265 496.154 116.533 398.609 151.345C301.065 186.157 191.523 564.511 136.752 753.688L81.9816 942.866" stroke="url(#paint10_linear_245_569)" stroke-width="2"/>
<path opacity="0.121212" d="M1273.96 -31.8485L1227.37 -53.2031C1180.78 -74.5577 1087.6 -117.267 985.525 9.77399C883.449 136.815 772.475 433.606 677.318 428.619C582.16 423.632 502.818 116.867 405.684 149.602C308.549 182.338 193.623 554.574 136.159 740.691L78.6956 926.809" stroke="url(#paint11_linear_245_569)" stroke-width="2"/>
<path opacity="0.131313" d="M1275.05 -16.3273L1229.31 -38.2478C1183.58 -60.1682 1092.11 -104.009 988.913 19.831C885.717 143.671 770.796 435.192 676.72 428.614C582.644 422.035 509.413 117.357 412.731 148.041C316.05 178.725 195.917 544.771 135.851 727.794L75.7847 910.817" stroke="url(#paint12_linear_245_569)" stroke-width="2"/>
<path opacity="0.141414" d="M1275.78 -0.889728L1230.9 -23.3527C1186.03 -45.8156 1096.28 -90.7416 992.044 29.8976C887.81 150.537 769.09 436.741 676.122 428.607C583.154 420.474 515.937 118.002 419.749 146.661C323.562 175.319 198.405 535.108 135.826 715.003L73.2477 894.897" stroke="url(#paint13_linear_245_569)" stroke-width="2"/>
<path opacity="0.151515" d="M1276.15 14.4575L1232.14 -8.52467C1188.13 -31.5069 1100.12 -77.4713 994.922 39.9689C889.729 157.409 767.361 438.254 675.526 428.602C583.691 418.949 522.388 118.8 426.736 145.46C331.084 172.12 201.084 525.589 136.083 702.324L71.0829 879.058" stroke="url(#paint14_linear_245_569)" stroke-width="2"/>
<path opacity="0.161616" d="M1276.18 29.7052L1233.04 6.22701C1189.9 -17.2511 1103.62 -64.2075 997.545 50.0375C891.473 164.282 765.608 439.729 674.93 428.595C584.252 417.461 528.762 119.747 433.686 144.436C338.61 169.124 203.947 516.216 136.616 689.761L69.2851 863.307" stroke="url(#paint15_linear_245_569)" stroke-width="2"/>
<path opacity="0.171717" d="M1275.85 44.8484L1233.59 20.8975C1191.32 -3.05332 1106.79 -50.955 999.915 60.1001C893.043 171.155 763.83 441.167 674.334 428.589C584.837 416.011 535.055 120.843 440.594 143.589C346.133 166.335 206.992 506.994 137.421 677.324L67.8507 847.654" stroke="url(#paint16_linear_245_569)" stroke-width="2"/>
<path opacity="0.181818" d="M1275.18 59.877L1233.79 35.4767C1192.41 11.0764 1109.63 -37.7241 1002.03 70.1485C894.439 178.021 762.031 442.567 673.737 428.583C585.444 414.598 541.265 122.084 447.458 142.916C353.65 163.748 210.213 497.926 138.494 665.015L66.7759 832.104" stroke="url(#paint17_linear_245_569)" stroke-width="2"/>
<path opacity="0.191919" d="M1274.18 74.7856L1233.67 49.9591C1193.16 25.1326 1112.14 -24.5203 1003.9 80.1788C895.663 184.878 760.21 443.929 673.141 428.577C586.073 413.224 547.389 123.468 454.273 142.416C361.156 161.364 213.607 489.016 139.832 652.842L66.0571 816.668" stroke="url(#paint18_linear_245_569)" stroke-width="2"/>
<path opacity="0.20202" d="M1272.83 89.5652L1233.21 64.3357C1193.58 39.1061 1114.32 -11.353 1005.52 90.1835C896.714 191.72 758.367 445.252 672.544 428.57C586.721 411.887 553.423 124.991 461.034 142.085C368.645 159.18 217.167 480.265 141.428 640.808L65.6886 801.351" stroke="url(#paint19_linear_245_569)" stroke-width="2"/>
<path opacity="0.212121" d="M1271.16 104.21L1232.42 78.6007C1193.67 52.9912 1116.18 1.77224 1006.89 100.159C897.598 198.545 756.508 446.537 671.95 428.563C587.392 410.59 559.367 126.652 467.742 141.924C376.118 157.196 220.894 471.679 143.282 628.92L65.6707 786.162" stroke="url(#paint20_linear_245_569)" stroke-width="2"/>
<path opacity="0.222222" d="M1269.16 118.713L1231.3 92.7467C1193.44 66.7803 1117.72 14.8476 1008.01 110.098C898.311 205.349 754.628 447.782 671.354 428.557C588.079 409.331 565.214 128.447 474.389 141.929C383.564 155.411 224.779 463.259 145.386 617.184L65.9935 771.108" stroke="url(#paint21_linear_245_569)" stroke-width="2"/>
<path opacity="0.232323" d="M1266.84 133.067L1229.86 106.766C1192.89 80.466 1118.93 27.8655 1008.89 119.996C898.855 212.127 752.73 448.988 670.758 428.55C588.785 408.112 570.964 130.374 480.972 142.098C390.981 153.823 228.818 455.009 147.736 605.603L66.655 756.196" stroke="url(#paint22_linear_245_569)" stroke-width="2"/>
<path opacity="0.242424" d="M1264.2 147.264L1228.11 120.653C1192.02 94.0414 1119.83 40.8187 1009.53 129.847C899.234 218.875 750.817 450.154 670.163 428.543C589.508 406.932 576.615 132.43 487.49 142.43C398.365 152.43 233.008 446.931 150.33 594.182L67.6513 741.433" stroke="url(#paint23_linear_245_569)" stroke-width="2"/>
<path opacity="0.252525" d="M1261.26 161.299L1226.05 134.399C1190.84 107.5 1120.42 53.7006 1009.94 139.646C899.449 225.591 748.891 451.281 669.57 428.536C590.249 405.791 582.166 134.611 493.94 142.921C405.714 151.23 237.346 439.029 153.163 582.928L68.9787 726.827" stroke="url(#paint24_linear_245_569)" stroke-width="2"/>
<path opacity="0.262626" d="M1258 175.165L1223.67 148C1189.35 120.834 1120.7 66.5038 1010.1 149.387C899.498 232.27 746.947 452.367 668.974 428.529C591.002 404.69 587.608 136.916 500.313 143.569C413.018 150.223 241.823 431.303 156.225 571.844L70.627 712.384" stroke="url(#paint25_linear_245_569)" stroke-width="2"/>
<path opacity="0.272727" d="M1254.44 188.856L1221 161.448C1187.55 134.04 1120.67 79.223 1010.03 159.067C899.384 238.91 744.989 453.415 668.379 428.522C591.769 403.63 592.943 139.342 506.61 144.374C420.276 149.406 246.435 423.76 159.515 560.936L72.5943 698.113" stroke="url(#paint26_linear_245_569)" stroke-width="2"/>
<path opacity="0.282828" d="M1250.59 202.366L1218.02 174.736C1185.46 147.107 1120.33 91.8491 1009.72 168.678C899.112 245.506 743.021 454.421 667.786 428.515C592.55 402.61 598.17 141.884 512.828 145.33C427.486 148.777 251.181 416.398 163.029 550.208L74.8767 684.018" stroke="url(#paint27_linear_245_569)" stroke-width="2"/>
<path opacity="0.292929" d="M1246.44 215.686L1214.75 187.858C1183.07 160.031 1119.69 104.376 1009.19 178.215C898.679 252.053 741.04 455.386 667.191 428.508C593.342 401.629 603.284 144.539 518.961 146.436C434.639 148.334 256.053 409.22 166.759 539.663L77.4661 670.106" stroke="url(#paint28_linear_245_569)" stroke-width="2"/>
<path opacity="0.30303" d="M1242.01 228.814L1211.2 200.81C1180.38 172.806 1118.76 116.798 1008.42 187.674C898.089 258.551 739.048 456.312 666.597 428.501C594.146 400.689 608.284 147.305 525.009 147.69C441.734 148.076 261.046 402.23 170.702 529.307L80.3585 656.384" stroke="url(#paint29_linear_245_569)" stroke-width="2"/>
<path opacity="0.313131" d="M1237.3 241.741L1207.36 213.583C1177.41 185.424 1117.53 129.107 1007.44 197.051C897.344 264.994 737.048 457.197 666.004 428.494C594.96 399.79 613.168 150.179 530.967 149.089C448.767 147.999 266.157 395.429 174.853 519.144L83.5481 642.859" stroke="url(#paint30_linear_245_569)" stroke-width="2"/>
<path opacity="0.323232" d="M1232.32 254.464L1203.24 226.172C1174.16 197.881 1116.01 141.299 1006.23 206.339C896.445 271.379 735.038 458.042 665.41 428.486C595.782 398.931 617.933 153.158 536.833 150.63C455.733 148.101 271.381 388.819 179.205 509.178L87.0286 629.536" stroke="url(#paint31_linear_245_569)" stroke-width="2"/>
<path opacity="0.333333" d="M1227.07 266.974L1198.85 238.572C1170.64 210.169 1114.2 153.364 1004.8 215.533C895.397 277.702 733.023 458.845 664.819 428.478C596.615 398.112 622.58 156.236 542.605 152.308C462.63 148.381 276.713 382.401 183.755 499.411L90.7964 616.421" stroke="url(#paint32_linear_245_569)" stroke-width="2"/>
<path opacity="0.343434" d="M1221.56 279.27L1194.19 250.777C1166.83 222.285 1112.11 165.3 1003.15 224.631C894.196 283.962 730.997 459.608 664.224 428.471C597.45 397.334 627.102 159.414 548.275 154.125C469.448 148.836 282.144 376.178 188.492 489.85L94.8393 603.521" stroke="url(#paint33_linear_245_569)" stroke-width="2"/>
<path opacity="0.353535" d="M1215.79 291.343L1189.28 262.782C1162.77 234.22 1109.75 177.098 1001.3 233.625C892.849 290.153 728.968 460.331 663.631 428.464C598.294 396.597 631.501 162.685 553.846 156.074C476.191 149.463 287.675 370.152 193.416 480.496L99.1577 590.841" stroke="url(#paint34_linear_245_569)" stroke-width="2"/>
<path opacity="0.363636" d="M1209.77 303.189L1184.11 274.58C1158.44 245.971 1107.11 188.752 999.234 242.513C891.358 296.274 726.935 461.013 663.04 428.457C599.144 395.9 635.776 166.048 559.314 158.154C482.853 150.259 293.298 364.323 198.521 471.355L103.743 578.386" stroke="url(#paint35_linear_245_569)" stroke-width="2"/>
<path opacity="0.373737" d="M1203.51 314.804L1178.68 286.167C1153.86 257.531 1104.2 200.258 996.963 251.289C889.724 302.32 724.898 461.655 662.448 428.449C599.997 395.244 639.923 169.498 564.675 160.36C489.428 151.222 299.008 358.692 203.799 462.427L108.589 566.163" stroke="url(#paint36_linear_245_569)" stroke-width="2"/>
<path opacity="0.383838" d="M1197.01 326.182L1173.02 297.538C1149.02 268.895 1101.03 211.608 994.49 259.949C887.949 308.289 722.858 462.256 661.856 428.442C600.854 394.628 643.941 173.033 569.927 162.692C495.914 152.35 304.801 353.263 209.245 453.719L113.688 554.175" stroke="url(#paint37_linear_245_569)" stroke-width="2"/>
<path opacity="0.393939" d="M1190.28 337.318L1167.11 308.688C1143.94 280.058 1097.6 222.798 991.816 268.487C886.035 314.177 720.815 462.817 661.263 428.434C601.711 394.052 647.827 176.648 575.067 165.143C502.306 153.639 310.67 348.034 214.852 445.231L119.033 542.428" stroke="url(#paint38_linear_245_569)" stroke-width="2"/>
<path opacity="0.40404" d="M1183.34 348.209L1160.98 319.612C1138.62 291.015 1093.91 233.821 988.949 276.902C883.987 319.983 718.773 463.338 660.673 428.427C602.572 393.517 651.584 180.341 580.094 167.714C508.604 155.086 316.613 343.008 220.617 436.968L124.621 530.929" stroke="url(#paint39_linear_245_569)" stroke-width="2"/>
<path opacity="0.414141" d="M1176.17 358.85L1154.62 330.306C1133.07 301.762 1089.97 244.674 985.89 285.188C881.805 325.702 716.731 463.819 660.081 428.42C603.432 393.022 655.207 184.108 585.004 170.399C514.801 156.69 322.622 338.185 226.532 428.933L130.442 519.68" stroke="url(#paint40_linear_245_569)" stroke-width="2"/>
<path opacity="0.424242" d="M1168.79 369.236L1148.04 340.764C1127.29 312.292 1085.79 255.349 982.641 293.341C879.491 331.333 714.688 464.26 659.489 428.413C604.29 392.566 658.694 187.945 589.794 173.195C520.894 158.445 328.691 333.566 232.59 421.127L136.488 508.687" stroke="url(#paint41_linear_245_569)" stroke-width="2"/>
<path opacity="0.434343" d="M1161.21 379.363L1141.25 350.982C1121.29 322.602 1081.37 265.841 979.211 301.355C877.051 336.87 712.649 464.66 658.899 428.405C605.148 392.15 662.047 191.848 594.465 176.099C526.883 160.349 334.819 329.151 238.788 413.552L142.756 497.953" stroke="url(#paint42_linear_245_569)" stroke-width="2"/>
<path opacity="0.444444" d="M1153.43 389.228L1134.25 360.958C1115.07 332.687 1076.71 276.146 975.598 309.23C874.483 342.314 710.611 465.022 658.306 428.398C606.001 391.773 665.262 195.816 599.011 179.108C532.76 162.4 340.997 324.942 245.116 406.213L149.234 487.484" stroke="url(#paint43_linear_245_569)" stroke-width="2"/>
<path opacity="0.454545" d="M1145.47 398.827L1127.06 370.685C1108.65 342.543 1071.83 286.259 971.814 316.959C871.796 347.66 708.581 465.345 657.718 428.39C606.854 391.436 668.343 199.842 603.436 182.218C538.528 164.593 347.225 320.938 251.573 399.111L155.921 477.283" stroke="url(#paint44_linear_245_569)" stroke-width="2"/>
<path opacity="0.464646" d="M1137.32 408.157L1119.67 380.162C1102.02 352.166 1066.72 296.175 967.855 324.54C868.988 352.906 706.553 465.628 657.127 428.383C607.701 391.138 671.283 203.925 607.731 185.426C544.179 166.927 353.492 317.141 258.148 392.248L162.805 467.355" stroke="url(#paint45_linear_245_569)" stroke-width="2"/>
<path opacity="0.474747" d="M1129 417.214L1112.1 389.383C1095.2 361.551 1061.4 305.889 963.728 331.969C866.062 358.05 704.53 465.873 656.536 428.376C608.541 390.879 674.084 208.06 611.897 188.728C549.711 169.396 359.795 313.55 264.837 385.626L169.879 457.703" stroke="url(#paint46_linear_245_569)" stroke-width="2"/>
<path opacity="0.484848" d="M1120.51 425.995L1104.35 398.345C1088.19 370.696 1055.86 315.397 959.441 339.243C863.024 363.089 702.516 466.08 655.947 428.369C609.378 390.658 676.747 212.245 615.935 192.122C555.124 171.998 366.131 310.165 271.635 379.248L177.139 448.331" stroke="url(#paint47_linear_245_569)" stroke-width="2"/>
<path opacity="0.494949" d="M1111.86 434.496L1096.42 407.045C1080.99 379.595 1050.11 324.694 954.991 346.357C859.872 368.021 700.507 466.248 655.355 428.362C610.204 390.475 679.265 216.474 619.837 195.602C560.409 174.73 372.491 306.986 278.532 373.114L184.573 439.242" stroke="url(#paint48_linear_245_569)" stroke-width="2"/>
<path opacity="0.50505" d="M1103.06 442.715L1088.34 415.48C1073.61 388.246 1044.17 333.776 950.391 353.31C856.615 372.843 698.509 466.379 654.767 428.355C611.025 390.33 681.646 220.745 623.609 199.166C565.571 177.587 378.875 304.013 285.526 367.226L192.178 430.44" stroke="url(#paint49_linear_245_569)" stroke-width="2"/>
<path opacity="0.515152" d="M1094.11 450.649L1080.09 423.647C1066.07 396.644 1038.03 342.639 945.639 360.096C853.251 377.553 696.518 466.472 654.177 428.348C611.835 390.223 683.884 225.055 627.243 202.81C570.603 180.566 385.273 301.246 292.607 361.586L199.942 421.927" stroke="url(#paint50_linear_245_569)" stroke-width="2"/>
<path opacity="0.525253" d="M1085.03 458.296L1071.69 431.542C1058.36 404.787 1031.7 351.279 940.742 366.714C849.786 382.149 694.539 466.528 653.588 428.341C612.636 390.153 685.981 229.398 630.742 206.531C575.504 183.664 391.683 298.685 299.772 356.195L207.862 413.706" stroke="url(#paint51_linear_245_569)" stroke-width="2"/>
<path opacity="0.535354" d="M1075.81 465.654L1063.15 439.164C1050.5 412.673 1025.19 359.692 935.704 373.161C846.222 386.63 692.57 466.549 652.998 428.334C613.426 390.12 687.933 233.773 634.101 210.325C580.269 186.877 398.098 296.329 307.012 351.055L215.926 405.781" stroke="url(#paint52_linear_245_569)" stroke-width="2"/>
<path opacity="0.545455" d="M1066.47 472.719L1054.48 446.508C1042.49 420.296 1018.5 367.874 930.531 379.432C842.564 390.991 690.614 466.531 652.41 428.327C614.205 390.122 689.745 238.173 637.323 214.187C584.9 190.2 404.515 294.177 314.322 346.165L224.13 398.153" stroke="url(#paint53_linear_245_569)" stroke-width="2"/>
<path opacity="0.555556" d="M1057.02 479.491L1045.67 453.574C1034.33 427.657 1011.64 375.822 925.227 385.528C838.812 395.234 688.671 466.479 651.821 428.321C614.972 390.162 691.414 242.598 640.403 218.115C589.392 193.632 410.928 292.229 321.696 341.527L232.464 390.826" stroke="url(#paint54_linear_245_569)" stroke-width="2"/>
<path opacity="0.565657" d="M1047.46 485.966L1036.75 460.358C1026.04 434.749 1004.62 383.532 919.796 391.443C834.971 399.353 686.741 466.391 651.232 428.313C615.724 390.236 692.939 247.042 643.341 222.104C593.743 197.166 417.331 290.483 329.125 337.141L240.92 383.8" stroke="url(#paint55_linear_245_569)" stroke-width="2"/>
<path opacity="0.575758" d="M1037.79 492.146L1027.71 466.86C1017.62 441.574 997.442 391.002 914.244 397.176C831.046 403.35 684.826 466.269 650.645 428.308C616.464 390.346 694.323 251.504 646.137 226.152C597.951 200.801 423.721 288.94 336.606 333.01L249.491 377.08" stroke="url(#paint56_linear_245_569)" stroke-width="2"/>
<path opacity="0.585859" d="M1028.04 498.025L1018.56 473.075C1009.07 448.126 990.112 398.227 908.574 402.724C827.037 407.22 682.925 466.111 650.056 428.301C617.188 390.49 695.563 255.976 648.789 230.253C602.015 204.53 430.092 287.597 344.131 329.131L258.17 370.664" stroke="url(#paint57_linear_245_569)" stroke-width="2"/>
<path opacity="0.59596" d="M1018.2 503.604L1009.31 479.005C1000.42 454.405 982.637 405.206 902.793 408.085C822.948 410.964 681.04 465.921 649.468 428.294C617.896 390.668 696.66 260.459 651.296 234.405C605.931 208.352 436.439 286.455 351.693 325.506L266.946 364.557" stroke="url(#paint58_linear_245_569)" stroke-width="2"/>
<path opacity="0.606061" d="M1008.28 508.883L999.966 484.646C991.652 460.409 975.025 411.935 896.905 413.257C818.785 414.579 679.172 465.696 648.879 428.288C618.587 390.88 697.615 264.946 653.657 238.604C609.7 212.262 442.757 285.511 359.286 322.135L275.814 358.76" stroke="url(#paint59_linear_245_569)" stroke-width="2"/>
<path opacity="0.616162" d="M998.293 513.858L990.54 489.996C982.787 466.134 967.282 418.411 890.915 418.237C814.549 418.063 677.322 465.438 648.292 428.281C619.262 391.124 698.428 269.435 655.873 242.845C613.318 216.254 449.042 284.763 366.904 319.017L284.766 353.272" stroke="url(#paint60_linear_245_569)" stroke-width="2"/>
<path opacity="0.626263" d="M988.244 518.531L981.036 495.057C973.829 471.582 959.413 424.633 884.829 423.025C810.244 421.416 675.49 465.149 647.704 428.276C619.918 391.402 699.1 273.923 657.943 247.125C616.785 220.327 455.289 284.212 374.541 316.154L293.793 348.096" stroke="url(#paint61_linear_245_569)" stroke-width="2"/>
<path opacity="0.636364" d="M978.143 522.9L971.465 499.824C964.787 476.748 951.43 430.597 878.653 427.616C805.877 424.636 673.68 464.827 647.119 428.269C620.558 391.711 699.633 278.404 659.867 251.44C620.102 224.475 461.496 283.854 382.193 313.543L302.89 343.232" stroke="url(#paint62_linear_245_569)" stroke-width="2"/>
<path opacity="0.646465" d="M967.994 526.965L961.829 504.299C955.664 481.633 943.334 436.302 872.389 432.012C801.445 427.722 671.887 464.475 646.531 428.263C621.176 392.052 700.023 282.877 661.643 255.786C623.262 228.696 467.653 283.689 389.848 311.186L312.044 338.682" stroke="url(#paint63_linear_245_569)" stroke-width="2"/>
<path opacity="0.656566" d="M957.805 530.726L952.137 508.481C946.468 486.236 935.132 441.745 866.043 436.209C796.954 430.673 670.113 464.092 645.943 428.258C621.773 392.424 700.273 287.338 663.269 260.16C626.265 232.983 473.756 283.715 397.502 309.08L321.248 334.446" stroke="url(#paint64_linear_245_569)" stroke-width="2"/>
<path opacity="0.666667" d="M947.585 534.183L942.397 512.369C937.209 490.555 926.833 446.926 859.622 440.207C792.41 433.488 668.362 463.679 645.356 428.253C622.35 392.826 700.385 291.783 664.749 264.559C629.112 237.334 479.804 283.929 405.15 307.227L330.496 330.524" stroke="url(#paint65_linear_245_569)" stroke-width="2"/>
<path opacity="0.676768" d="M937.343 537.335L932.619 515.962C927.894 494.588 918.445 451.841 853.13 444.003C787.814 436.166 666.633 463.237 644.769 428.247C622.905 393.258 700.359 296.208 666.081 268.976C631.802 241.744 485.791 284.33 412.786 305.623L339.781 326.916" stroke="url(#paint66_linear_245_569)" stroke-width="2"/>
<path opacity="0.686869" d="M927.086 540.184L922.808 519.26C918.529 498.337 909.973 456.49 846.573 447.598C783.172 438.705 664.927 462.766 644.183 428.242C623.439 393.718 700.196 300.61 667.265 273.41C634.333 246.209 491.713 284.916 420.403 304.27L349.093 323.623" stroke="url(#paint67_linear_245_569)" stroke-width="2"/>
<path opacity="0.69697" d="M916.821 542.727L912.972 522.263C909.123 501.799 901.425 460.87 839.956 450.987C778.486 441.103 663.245 462.265 643.598 428.235C623.95 394.206 699.898 304.985 668.302 277.854C636.705 250.723 497.565 285.683 427.995 303.163L358.425 320.643" stroke="url(#paint68_linear_245_569)" stroke-width="2"/>
<path opacity="0.707071" d="M906.554 544.97L903.117 524.973C899.68 504.976 892.806 464.982 833.282 454.173C773.759 443.364 661.585 461.739 643.011 428.231C624.437 394.723 699.463 309.331 669.189 282.308C638.915 255.286 503.341 286.632 435.555 302.305L367.768 317.978" stroke="url(#paint69_linear_245_569)" stroke-width="2"/>
<path opacity="0.717172" d="M896.294 546.91L893.251 527.388C890.209 507.867 884.124 468.824 826.559 457.154C768.994 445.484 659.949 461.186 642.424 428.226C624.898 395.266 698.893 313.644 669.928 286.767C640.963 259.89 509.038 287.758 443.076 301.692L377.113 315.626" stroke="url(#paint70_linear_245_569)" stroke-width="2"/>
<path opacity="0.727273" d="M886.051 548.548L883.385 529.51C880.719 510.471 875.387 472.395 819.793 459.928C764.198 447.462 658.339 460.606 641.838 428.221C625.337 395.836 698.193 317.92 670.522 291.226C642.851 264.532 514.654 289.059 450.555 301.322L386.456 313.585" stroke="url(#paint71_linear_245_569)" stroke-width="2"/>
<path opacity="0.737374" d="M875.828 549.887L873.521 531.339C871.215 512.79 866.601 475.694 812.986 462.497C759.371 449.3 656.755 460.002 641.252 428.217C625.749 396.431 697.36 322.158 670.968 295.683C644.576 269.209 520.181 290.533 457.983 301.195L395.786 311.858" stroke="url(#paint72_linear_245_569)" stroke-width="2"/>
<path opacity="0.747475" d="M865.638 550.927L863.672 532.875C861.706 514.824 857.774 478.72 806.147 464.858C754.52 450.995 655.198 459.373 640.667 428.212C626.137 397.051 696.398 326.351 671.268 300.133C646.139 273.914 525.618 292.177 465.358 301.309L405.098 310.44" stroke="url(#paint73_linear_245_569)" stroke-width="2"/>
<path opacity="0.757576" d="M855.481 551.67L853.839 534.121C852.196 516.572 848.91 481.474 799.277 467.011C749.645 452.548 653.665 458.721 640.08 428.208C626.495 397.696 695.305 330.499 671.42 304.572C647.536 278.645 530.957 293.989 472.668 301.66L414.379 309.332" stroke="url(#paint74_linear_245_569)" stroke-width="2"/>
<path opacity="0.767677" d="M845.372 552.116L844.034 535.076C842.696 518.035 840.02 483.954 792.386 468.956C744.753 453.958 652.161 458.044 639.494 428.203C626.828 398.362 694.086 334.596 671.429 308.996C648.772 283.396 536.199 295.963 479.913 302.247L423.626 308.53" stroke="url(#paint75_linear_245_569)" stroke-width="2"/>
<path opacity="0.777778" d="M835.315 552.27L834.263 535.743C833.212 519.215 831.109 486.161 785.477 470.693C739.846 455.226 650.685 457.345 638.909 428.199C627.133 399.053 692.742 338.641 671.293 313.403C649.844 288.165 541.337 298.1 487.084 303.068L432.83 308.036" stroke="url(#paint76_linear_245_569)" stroke-width="2"/>
<path opacity="0.787879" d="M825.318 552.132L824.535 536.123C823.752 520.114 822.186 488.096 778.558 472.224C734.929 456.352 649.239 456.626 638.325 428.195C627.412 399.765 691.276 342.631 671.015 317.788C650.755 292.946 546.37 300.396 494.178 304.121L441.985 307.846" stroke="url(#paint77_linear_245_569)" stroke-width="2"/>
<path opacity="0.79798" d="M815.386 551.704L814.853 536.217C814.32 520.73 813.253 489.757 771.628 473.545C730.003 457.333 647.819 455.884 637.739 428.191C627.66 400.498 689.685 346.56 670.592 322.148C651.5 297.735 551.289 302.847 501.184 305.402L451.079 307.958" stroke="url(#paint78_linear_245_569)" stroke-width="2"/>
<path opacity="0.808081" d="M805.53 550.989L805.228 536.028C804.926 521.067 804.323 491.146 764.698 474.66C725.074 458.174 646.429 455.123 637.155 428.187C627.88 401.251 687.975 350.429 670.029 326.479C652.083 302.528 556.095 305.45 508.102 306.91L460.108 308.371" stroke="url(#paint79_linear_245_569)" stroke-width="2"/>
<path opacity="0.818182" d="M795.754 549.99L795.665 535.558C795.576 521.126 795.398 492.263 757.772 475.567C720.145 458.871 645.069 454.343 636.57 428.184C628.07 402.024 686.146 354.233 669.324 330.777C652.502 307.321 560.783 308.202 514.923 308.642L469.063 309.082" stroke="url(#paint80_linear_245_569)" stroke-width="2"/>
<path opacity="0.828283" d="M786.067 548.708L786.172 534.808C786.278 520.908 786.489 493.108 750.854 476.267C715.22 459.427 643.74 453.545 635.985 428.18C628.23 402.816 684.201 357.968 668.48 335.039C652.76 312.11 565.349 311.099 521.643 310.593L477.937 310.088" stroke="url(#paint81_linear_245_569)" stroke-width="2"/>
<path opacity="0.838384" d="M776.473 547.148L776.755 533.782C777.036 520.416 777.598 493.684 743.949 476.762C710.3 459.841 642.439 452.729 635.399 428.177C628.359 403.626 682.14 361.634 667.497 339.262C652.854 316.89 569.788 314.139 528.255 312.763L486.722 311.387" stroke="url(#paint82_linear_245_569)" stroke-width="2"/>
<path opacity="0.848485" d="M766.984 545.31L767.422 532.48C767.86 519.65 768.737 493.99 737.065 477.051C705.392 460.113 641.171 451.896 634.814 428.174C628.458 404.452 679.967 365.225 666.378 343.441C652.788 321.657 574.1 317.317 534.756 315.146L495.412 312.976" stroke="url(#paint83_linear_245_569)" stroke-width="2"/>
<path opacity="0.858586" d="M757.603 543.201L758.18 530.908C758.757 518.615 759.911 494.029 730.205 477.137C700.5 460.245 639.934 451.048 634.23 428.172C628.527 405.296 677.685 368.741 665.124 347.575C652.562 326.408 578.281 320.631 541.14 317.742L503.999 314.853" stroke="url(#paint84_linear_245_569)" stroke-width="2"/>
<path opacity="0.868687" d="M748.338 540.821L749.035 529.066C749.732 517.31 751.126 493.8 723.375 477.019C695.624 460.237 638.728 450.184 633.645 428.169C628.563 406.154 675.294 372.177 663.735 351.657C652.175 331.137 582.326 324.075 547.401 320.544L512.476 317.013" stroke="url(#paint85_linear_245_569)" stroke-width="2"/>
<path opacity="0.878788" d="M739.194 538.174L739.993 526.957C740.791 515.74 742.388 493.306 716.579 476.698C690.769 460.089 637.553 449.306 633.059 428.166C628.566 407.027 672.796 375.531 662.212 355.686C651.628 335.841 586.231 327.647 553.532 323.55L520.834 319.453" stroke="url(#paint86_linear_245_569)" stroke-width="2"/>
<path opacity="0.888889" d="M730.181 535.265L731.063 524.586C731.944 513.907 733.707 492.549 709.824 476.176C685.941 459.803 636.411 448.415 632.475 428.164C628.539 407.914 670.195 378.801 660.56 359.659C650.925 340.516 589.997 331.344 559.533 326.758L529.069 322.171" stroke="url(#paint87_linear_245_569)" stroke-width="2"/>
<path opacity="0.89899" d="M721.304 532.097L722.25 521.955C723.196 511.814 725.087 491.53 703.114 475.454C681.14 459.379 635.302 447.511 631.89 428.163C628.479 408.814 667.494 381.985 658.779 363.571C650.064 345.158 593.618 335.16 565.396 330.162L537.173 325.163" stroke="url(#paint88_linear_245_569)" stroke-width="2"/>
<path opacity="0.909091" d="M712.57 528.674L713.562 519.068C714.554 509.462 716.537 490.251 696.455 474.534C676.374 458.817 634.227 446.595 631.307 428.16C628.387 409.726 664.694 385.078 656.871 367.419C649.048 349.761 597.094 339.093 571.117 333.758L545.14 328.424" stroke="url(#paint89_linear_245_569)" stroke-width="2"/>
<path opacity="0.919192" d="M703.984 524.999L705.003 515.927C706.022 506.856 708.061 488.713 689.851 473.417C671.642 458.12 633.183 445.669 630.722 428.158C628.261 410.648 661.798 388.079 654.837 371.201C647.877 354.323 600.419 343.137 576.69 337.543L552.961 331.95" stroke="url(#paint90_linear_245_569)" stroke-width="2"/>
<path opacity="0.929293" d="M695.553 521.077L696.582 512.538C697.61 503.999 699.668 486.921 683.309 472.104C666.95 457.288 632.174 444.732 630.139 428.157C628.104 411.581 658.809 390.986 652.681 374.913C646.553 358.84 603.593 347.289 582.112 341.514L560.632 335.739" stroke="url(#paint91_linear_245_569)" stroke-width="2"/>
<path opacity="0.939394" d="M687.283 516.913L688.302 508.904C689.322 500.894 691.362 484.876 676.83 470.599C662.299 456.322 631.198 443.787 629.555 428.155C627.912 412.524 655.728 393.796 650.402 378.551C645.077 363.307 606.611 351.546 587.377 345.665L568.144 339.784" stroke="url(#paint92_linear_245_569)" stroke-width="2"/>
<path opacity="0.949495" d="M679.179 512.511L680.172 505.028C681.164 497.545 683.15 482.58 670.422 468.902C657.694 455.224 630.254 442.833 628.97 428.154C627.686 413.475 652.557 396.507 648.004 382.114C643.45 367.721 609.471 355.902 592.481 349.993L575.491 344.083" stroke="url(#paint93_linear_245_569)" stroke-width="2"/>
<path opacity="0.959596" d="M671.248 507.875L672.196 500.916C673.143 493.956 675.038 480.037 664.089 467.017C653.139 453.996 629.344 441.873 628.385 428.154C627.426 414.434 649.301 399.118 645.488 385.598C641.674 372.078 612.171 360.355 597.419 354.493L582.667 348.632" stroke="url(#paint94_linear_245_569)" stroke-width="2"/>
<path opacity="0.969697" d="M663.497 503.01L664.381 496.569C665.266 490.129 667.035 477.248 657.836 464.942C648.636 452.636 628.469 440.905 627.801 428.152C627.132 415.399 645.963 401.624 642.857 388.998C639.752 376.373 614.709 364.897 602.188 359.16L589.667 353.422" stroke="url(#paint95_linear_245_569)" stroke-width="2"/>
<path opacity="0.979798" d="M655.931 497.921L656.735 491.995C657.539 486.069 659.146 474.218 651.669 462.683C644.191 451.149 627.629 439.932 627.218 428.151C626.806 416.37 642.546 404.025 640.115 392.314C637.685 380.604 617.085 369.528 606.785 363.99L596.485 358.452" stroke="url(#paint96_linear_245_569)" stroke-width="2"/>
<path opacity="0.989899" d="M648.554 492.613L649.259 487.197C649.964 481.781 651.375 470.949 645.589 460.242C639.803 449.536 626.821 438.955 626.632 428.151C626.444 417.346 639.049 406.319 637.261 395.542C635.473 384.766 619.293 374.241 611.202 368.979L603.112 363.716" stroke="url(#paint97_linear_245_569)" stroke-width="2"/>
<path d="M641.373 487.092L641.963 482.18C642.552 477.268 643.731 467.445 639.605 457.621C635.479 447.798 626.048 437.974 626.048 428.151C626.048 418.327 635.479 408.504 634.3 398.68C633.121 388.857 621.333 379.033 615.439 374.121L609.545 369.21" stroke="url(#paint98_linear_245_569)" stroke-width="2"/>
</g>
<defs>
<linearGradient id="paint0_linear_245_569" x1="766.514" y1="1016.51" x2="601.137" y2="-160.209" gradientUnits="userSpaceOnUse">
<stop stop-color="#BFBFBF"/>
<stop offset="1" stop-color="#F7F5F7"/>
</linearGradient>
<linearGradient id="paint1_linear_245_569" x1="754.926" y1="1012.01" x2="611.547" y2="-155.711" gradientUnits="userSpaceOnUse">
<stop stop-color="#BFBFBF"/>
<stop offset="1" stop-color="#F7F5F7"/>
</linearGradient>
<linearGradient id="paint2_linear_245_569" x1="743.518" y1="1007.31" x2="621.773" y2="-151.012" gradientUnits="userSpaceOnUse">
<stop stop-color="#BFBFBF"/>
<stop offset="1" stop-color="#F7F5F7"/>
</linearGradient>
<linearGradient id="paint3_linear_245_569" x1="732.3" y1="1002.42" x2="631.816" y2="-146.115" gradientUnits="userSpaceOnUse">
<stop stop-color="#BFBFBF"/>
<stop offset="1" stop-color="#F7F5F7"/>
</linearGradient>
<linearGradient id="paint4_linear_245_569" x1="721.267" y1="997.326" x2="641.666" y2="-141.024" gradientUnits="userSpaceOnUse">
<stop stop-color="#BFBFBF"/>
<stop offset="1" stop-color="#F7F5F7"/>
</linearGradient>
<linearGradient id="paint5_linear_245_569" x1="710.43" y1="992.047" x2="651.325" y2="-135.746" gradientUnits="userSpaceOnUse">
<stop stop-color="#BFBFBF"/>
<stop offset="1" stop-color="#F7F5F7"/>
</linearGradient>
<linearGradient id="paint6_linear_245_569" x1="699.79" y1="986.586" x2="660.788" y2="-130.286" gradientUnits="userSpaceOnUse">
<stop stop-color="#BFBFBF"/>
<stop offset="1" stop-color="#F7F5F7"/>
</linearGradient>
<linearGradient id="paint7_linear_245_569" x1="689.348" y1="980.949" x2="670.05" y2="-124.647" gradientUnits="userSpaceOnUse">
<stop stop-color="#BFBFBF"/>
<stop offset="1" stop-color="#F7F5F7"/>
</linearGradient>
<linearGradient id="paint8_linear_245_569" x1="679.11" y1="975.139" x2="679.11" y2="-118.837" gradientUnits="userSpaceOnUse">
<stop stop-color="#BFBFBF"/>
<stop offset="1" stop-color="#F7F5F7"/>
</linearGradient>
<linearGradient id="paint9_linear_245_569" x1="669.078" y1="969.162" x2="687.965" y2="-112.861" gradientUnits="userSpaceOnUse">
<stop stop-color="#BFBFBF"/>
<stop offset="1" stop-color="#F7F5F7"/>
</linearGradient>
<linearGradient id="paint10_linear_245_569" x1="659.252" y1="963.024" x2="696.609" y2="-106.723" gradientUnits="userSpaceOnUse">
<stop stop-color="#BFBFBF"/>
<stop offset="1" stop-color="#F7F5F7"/>
</linearGradient>
<linearGradient id="paint11_linear_245_569" x1="649.641" y1="956.731" x2="705.044" y2="-100.429" gradientUnits="userSpaceOnUse">
<stop stop-color="#BFBFBF"/>
<stop offset="1" stop-color="#F7F5F7"/>
</linearGradient>
<linearGradient id="paint12_linear_245_569" x1="640.241" y1="950.288" x2="713.264" y2="-93.9856" gradientUnits="userSpaceOnUse">
<stop stop-color="#BFBFBF"/>
<stop offset="1" stop-color="#F7F5F7"/>
</linearGradient>
<linearGradient id="paint13_linear_245_569" x1="631.057" y1="943.699" x2="721.267" y2="-87.3975" gradientUnits="userSpaceOnUse">
<stop stop-color="#BFBFBF"/>
<stop offset="1" stop-color="#F7F5F7"/>
</linearGradient>
<linearGradient id="paint14_linear_245_569" x1="622.094" y1="936.972" x2="729.053" y2="-80.6698" gradientUnits="userSpaceOnUse">
<stop stop-color="#BFBFBF"/>
<stop offset="1" stop-color="#F7F5F7"/>
</linearGradient>
<linearGradient id="paint15_linear_245_569" x1="613.352" y1="930.11" x2="736.617" y2="-73.8097" gradientUnits="userSpaceOnUse">
<stop stop-color="#BFBFBF"/>
<stop offset="1" stop-color="#F7F5F7"/>
</linearGradient>
<linearGradient id="paint16_linear_245_569" x1="604.832" y1="923.122" x2="743.959" y2="-66.8201" gradientUnits="userSpaceOnUse">
<stop stop-color="#BFBFBF"/>
<stop offset="1" stop-color="#F7F5F7"/>
</linearGradient>
<linearGradient id="paint17_linear_245_569" x1="596.536" y1="916.01" x2="751.075" y2="-59.7095" gradientUnits="userSpaceOnUse">
<stop stop-color="#BFBFBF"/>
<stop offset="1" stop-color="#F7F5F7"/>
</linearGradient>
<linearGradient id="paint18_linear_245_569" x1="588.468" y1="908.783" x2="757.965" y2="-52.4816" gradientUnits="userSpaceOnUse">
<stop stop-color="#BFBFBF"/>
<stop offset="1" stop-color="#F7F5F7"/>
</linearGradient>
<linearGradient id="paint19_linear_245_569" x1="580.627" y1="901.445" x2="764.625" y2="-45.1439" gradientUnits="userSpaceOnUse">
<stop stop-color="#BFBFBF"/>
<stop offset="1" stop-color="#F7F5F7"/>
</linearGradient>
<linearGradient id="paint20_linear_245_569" x1="573.018" y1="894.002" x2="771.057" y2="-37.7009" gradientUnits="userSpaceOnUse">
<stop stop-color="#BFBFBF"/>
<stop offset="1" stop-color="#F7F5F7"/>
</linearGradient>
<linearGradient id="paint21_linear_245_569" x1="565.638" y1="886.46" x2="777.256" y2="-30.1585" gradientUnits="userSpaceOnUse">
<stop stop-color="#BFBFBF"/>
<stop offset="1" stop-color="#F7F5F7"/>
</linearGradient>
<linearGradient id="paint22_linear_245_569" x1="558.492" y1="878.825" x2="783.223" y2="-22.523" gradientUnits="userSpaceOnUse">
<stop stop-color="#BFBFBF"/>
<stop offset="1" stop-color="#F7F5F7"/>
</linearGradient>
<linearGradient id="paint23_linear_245_569" x1="551.58" y1="871.101" x2="788.956" y2="-14.8003" gradientUnits="userSpaceOnUse">
<stop stop-color="#BFBFBF"/>
<stop offset="1" stop-color="#F7F5F7"/>
</linearGradient>
<linearGradient id="paint24_linear_245_569" x1="544.904" y1="863.297" x2="794.457" y2="-6.99576" gradientUnits="userSpaceOnUse">
<stop stop-color="#BFBFBF"/>
<stop offset="1" stop-color="#F7F5F7"/>
</linearGradient>
<linearGradient id="paint25_linear_245_569" x1="538.462" y1="855.416" x2="799.718" y2="0.88431" gradientUnits="userSpaceOnUse">
<stop stop-color="#BFBFBF"/>
<stop offset="1" stop-color="#F7F5F7"/>
</linearGradient>
<linearGradient id="paint26_linear_245_569" x1="532.256" y1="847.466" x2="804.744" y2="8.83572" gradientUnits="userSpaceOnUse">
<stop stop-color="#BFBFBF"/>
<stop offset="1" stop-color="#F7F5F7"/>
</linearGradient>
<linearGradient id="paint27_linear_245_569" x1="526.289" y1="839.452" x2="809.533" y2="16.8505" gradientUnits="userSpaceOnUse">
<stop stop-color="#BFBFBF"/>
<stop offset="1" stop-color="#F7F5F7"/>
</linearGradient>
<linearGradient id="paint28_linear_245_569" x1="520.558" y1="831.378" x2="814.084" y2="24.9228" gradientUnits="userSpaceOnUse">
<stop stop-color="#BFBFBF"/>
<stop offset="1" stop-color="#F7F5F7"/>
</linearGradient>
<linearGradient id="paint29_linear_245_569" x1="515.066" y1="823.253" x2="818.397" y2="33.0486" gradientUnits="userSpaceOnUse">
<stop stop-color="#BFBFBF"/>
<stop offset="1" stop-color="#F7F5F7"/>
</linearGradient>
<linearGradient id="paint30_linear_245_569" x1="509.812" y1="815.081" x2="822.472" y2="41.2206" gradientUnits="userSpaceOnUse">
<stop stop-color="#BFBFBF"/>
<stop offset="1" stop-color="#F7F5F7"/>
</linearGradient>
<linearGradient id="paint31_linear_245_569" x1="504.797" y1="806.868" x2="826.308" y2="49.4335" gradientUnits="userSpaceOnUse">
<stop stop-color="#BFBFBF"/>
<stop offset="1" stop-color="#F7F5F7"/>
</linearGradient>
<linearGradient id="paint32_linear_245_569" x1="500.021" y1="798.62" x2="829.909" y2="57.6806" gradientUnits="userSpaceOnUse">
<stop stop-color="#BFBFBF"/>
<stop offset="1" stop-color="#F7F5F7"/>
</linearGradient>
<linearGradient id="paint33_linear_245_569" x1="495.48" y1="790.343" x2="833.267" y2="65.9579" gradientUnits="userSpaceOnUse">
<stop stop-color="#BFBFBF"/>
<stop offset="1" stop-color="#F7F5F7"/>
</linearGradient>
<linearGradient id="paint34_linear_245_569" x1="491.179" y1="782.043" x2="836.389" y2="74.2584" gradientUnits="userSpaceOnUse">
<stop stop-color="#BFBFBF"/>
<stop offset="1" stop-color="#F7F5F7"/>
</linearGradient>
<linearGradient id="paint35_linear_245_569" x1="487.117" y1="773.725" x2="839.275" y2="82.5764" gradientUnits="userSpaceOnUse">
<stop stop-color="#BFBFBF"/>
<stop offset="1" stop-color="#F7F5F7"/>
</linearGradient>
<linearGradient id="paint36_linear_245_569" x1="483.29" y1="765.395" x2="841.923" y2="90.906" gradientUnits="userSpaceOnUse">
<stop stop-color="#BFBFBF"/>
<stop offset="1" stop-color="#F7F5F7"/>
</linearGradient>
<linearGradient id="paint37_linear_245_569" x1="479.7" y1="757.059" x2="844.334" y2="99.2423" gradientUnits="userSpaceOnUse">
<stop stop-color="#BFBFBF"/>
<stop offset="1" stop-color="#F7F5F7"/>
</linearGradient>
<linearGradient id="paint38_linear_245_569" x1="476.345" y1="748.722" x2="846.51" y2="107.578" gradientUnits="userSpaceOnUse">
<stop stop-color="#BFBFBF"/>
<stop offset="1" stop-color="#F7F5F7"/>
</linearGradient>
<linearGradient id="paint39_linear_245_569" x1="473.226" y1="740.391" x2="848.452" y2="115.91" gradientUnits="userSpaceOnUse">
<stop stop-color="#BFBFBF"/>
<stop offset="1" stop-color="#F7F5F7"/>
</linearGradient>
<linearGradient id="paint40_linear_245_569" x1="470.339" y1="732.072" x2="850.16" y2="124.23" gradientUnits="userSpaceOnUse">
<stop stop-color="#BFBFBF"/>
<stop offset="1" stop-color="#F7F5F7"/>
</linearGradient>
<linearGradient id="paint41_linear_245_569" x1="467.683" y1="723.768" x2="851.635" y2="132.535" gradientUnits="userSpaceOnUse">
<stop stop-color="#BFBFBF"/>
<stop offset="1" stop-color="#F7F5F7"/>
</linearGradient>
<linearGradient id="paint42_linear_245_569" x1="465.261" y1="715.485" x2="852.88" y2="140.816" gradientUnits="userSpaceOnUse">
<stop stop-color="#BFBFBF"/>
<stop offset="1" stop-color="#F7F5F7"/>
</linearGradient>
<linearGradient id="paint43_linear_245_569" x1="463.065" y1="707.231" x2="853.894" y2="149.07" gradientUnits="userSpaceOnUse">
<stop stop-color="#BFBFBF"/>
<stop offset="1" stop-color="#F7F5F7"/>
</linearGradient>
<linearGradient id="paint44_linear_245_569" x1="461.101" y1="699.009" x2="854.682" y2="157.291" gradientUnits="userSpaceOnUse">
<stop stop-color="#BFBFBF"/>
<stop offset="1" stop-color="#F7F5F7"/>
</linearGradient>
<linearGradient id="paint45_linear_245_569" x1="459.361" y1="690.827" x2="855.243" y2="165.475" gradientUnits="userSpaceOnUse">
<stop stop-color="#BFBFBF"/>
<stop offset="1" stop-color="#F7F5F7"/>
</linearGradient>
<linearGradient id="paint46_linear_245_569" x1="457.846" y1="682.687" x2="855.578" y2="173.614" gradientUnits="userSpaceOnUse">
<stop stop-color="#BFBFBF"/>
<stop offset="1" stop-color="#F7F5F7"/>
</linearGradient>
<linearGradient id="paint47_linear_245_569" x1="456.555" y1="674.597" x2="855.692" y2="181.704" gradientUnits="userSpaceOnUse">
<stop stop-color="#BFBFBF"/>
<stop offset="1" stop-color="#F7F5F7"/>
</linearGradient>
<linearGradient id="paint48_linear_245_569" x1="455.482" y1="666.562" x2="855.583" y2="189.739" gradientUnits="userSpaceOnUse">
<stop stop-color="#BFBFBF"/>
<stop offset="1" stop-color="#F7F5F7"/>
</linearGradient>
<linearGradient id="paint49_linear_245_569" x1="454.63" y1="658.586" x2="855.258" y2="197.715" gradientUnits="userSpaceOnUse">
<stop stop-color="#BFBFBF"/>
<stop offset="1" stop-color="#F7F5F7"/>
</linearGradient>
<linearGradient id="paint50_linear_245_569" x1="453.993" y1="650.674" x2="854.716" y2="205.627" gradientUnits="userSpaceOnUse">
<stop stop-color="#BFBFBF"/>
<stop offset="1" stop-color="#F7F5F7"/>
</linearGradient>
<linearGradient id="paint51_linear_245_569" x1="453.571" y1="642.833" x2="853.96" y2="213.468" gradientUnits="userSpaceOnUse">
<stop stop-color="#BFBFBF"/>
<stop offset="1" stop-color="#F7F5F7"/>
</linearGradient>
<linearGradient id="paint52_linear_245_569" x1="453.358" y1="635.067" x2="852.991" y2="221.235" gradientUnits="userSpaceOnUse">
<stop stop-color="#BFBFBF"/>
<stop offset="1" stop-color="#F7F5F7"/>
</linearGradient>
<linearGradient id="paint53_linear_245_569" x1="453.357" y1="627.38" x2="851.816" y2="228.921" gradientUnits="userSpaceOnUse">
<stop stop-color="#BFBFBF"/>
<stop offset="1" stop-color="#F7F5F7"/>
</linearGradient>
<linearGradient id="paint54_linear_245_569" x1="453.561" y1="619.779" x2="850.434" y2="236.523" gradientUnits="userSpaceOnUse">
<stop stop-color="#BFBFBF"/>
<stop offset="1" stop-color="#F7F5F7"/>
</linearGradient>
<linearGradient id="paint55_linear_245_569" x1="453.968" y1="612.266" x2="848.847" y2="244.035" gradientUnits="userSpaceOnUse">
<stop stop-color="#BFBFBF"/>
<stop offset="1" stop-color="#F7F5F7"/>
</linearGradient>
<linearGradient id="paint56_linear_245_569" x1="454.576" y1="604.849" x2="847.061" y2="251.453" gradientUnits="userSpaceOnUse">
<stop stop-color="#BFBFBF"/>
<stop offset="1" stop-color="#F7F5F7"/>
</linearGradient>
<linearGradient id="paint57_linear_245_569" x1="455.381" y1="597.53" x2="845.078" y2="258.771" gradientUnits="userSpaceOnUse">
<stop stop-color="#BFBFBF"/>
<stop offset="1" stop-color="#F7F5F7"/>
</linearGradient>
<linearGradient id="paint58_linear_245_569" x1="456.379" y1="590.315" x2="842.899" y2="265.986" gradientUnits="userSpaceOnUse">
<stop stop-color="#BFBFBF"/>
<stop offset="1" stop-color="#F7F5F7"/>
</linearGradient>
<linearGradient id="paint59_linear_245_569" x1="457.569" y1="583.208" x2="840.529" y2="273.094" gradientUnits="userSpaceOnUse">
<stop stop-color="#BFBFBF"/>
<stop offset="1" stop-color="#F7F5F7"/>
</linearGradient>
<linearGradient id="paint60_linear_245_569" x1="458.948" y1="576.213" x2="837.972" y2="280.087" gradientUnits="userSpaceOnUse">
<stop stop-color="#BFBFBF"/>
<stop offset="1" stop-color="#F7F5F7"/>
</linearGradient>
<linearGradient id="paint61_linear_245_569" x1="460.51" y1="569.337" x2="835.23" y2="286.965" gradientUnits="userSpaceOnUse">
<stop stop-color="#BFBFBF"/>
<stop offset="1" stop-color="#F7F5F7"/>
</linearGradient>
<linearGradient id="paint62_linear_245_569" x1="462.255" y1="562.58" x2="832.31" y2="293.72" gradientUnits="userSpaceOnUse">
<stop stop-color="#BFBFBF"/>
<stop offset="1" stop-color="#F7F5F7"/>
</linearGradient>
<linearGradient id="paint63_linear_245_569" x1="464.176" y1="555.95" x2="829.21" y2="300.351" gradientUnits="userSpaceOnUse">
<stop stop-color="#BFBFBF"/>
<stop offset="1" stop-color="#F7F5F7"/>
</linearGradient>
<linearGradient id="paint64_linear_245_569" x1="466.269" y1="549.449" x2="825.936" y2="306.851" gradientUnits="userSpaceOnUse">
<stop stop-color="#BFBFBF"/>
<stop offset="1" stop-color="#F7F5F7"/>
</linearGradient>
<linearGradient id="paint65_linear_245_569" x1="468.533" y1="543.083" x2="822.492" y2="313.219" gradientUnits="userSpaceOnUse">
<stop stop-color="#BFBFBF"/>
<stop offset="1" stop-color="#F7F5F7"/>
</linearGradient>
<linearGradient id="paint66_linear_245_569" x1="470.964" y1="536.853" x2="818.883" y2="319.449" gradientUnits="userSpaceOnUse">
<stop stop-color="#BFBFBF"/>
<stop offset="1" stop-color="#F7F5F7"/>
</linearGradient>
<linearGradient id="paint67_linear_245_569" x1="473.556" y1="530.765" x2="815.113" y2="325.537" gradientUnits="userSpaceOnUse">
<stop stop-color="#BFBFBF"/>
<stop offset="1" stop-color="#F7F5F7"/>
</linearGradient>
<linearGradient id="paint68_linear_245_569" x1="476.307" y1="524.821" x2="811.184" y2="331.479" gradientUnits="userSpaceOnUse">
<stop stop-color="#BFBFBF"/>
<stop offset="1" stop-color="#F7F5F7"/>
</linearGradient>
<linearGradient id="paint69_linear_245_569" x1="479.211" y1="519.027" x2="807.101" y2="337.274" gradientUnits="userSpaceOnUse">
<stop stop-color="#BFBFBF"/>
<stop offset="1" stop-color="#F7F5F7"/>
</linearGradient>
<linearGradient id="paint70_linear_245_569" x1="482.264" y1="513.385" x2="802.868" y2="342.917" gradientUnits="userSpaceOnUse">
<stop stop-color="#BFBFBF"/>
<stop offset="1" stop-color="#F7F5F7"/>
</linearGradient>
<linearGradient id="paint71_linear_245_569" x1="485.464" y1="507.898" x2="798.49" y2="348.403" gradientUnits="userSpaceOnUse">
<stop stop-color="#BFBFBF"/>
<stop offset="1" stop-color="#F7F5F7"/>
</linearGradient>
<linearGradient id="paint72_linear_245_569" x1="488.803" y1="502.571" x2="793.971" y2="353.731" gradientUnits="userSpaceOnUse">
<stop stop-color="#BFBFBF"/>
<stop offset="1" stop-color="#F7F5F7"/>
</linearGradient>
<linearGradient id="paint73_linear_245_569" x1="492.281" y1="497.406" x2="789.316" y2="358.896" gradientUnits="userSpaceOnUse">
<stop stop-color="#BFBFBF"/>
<stop offset="1" stop-color="#F7F5F7"/>
</linearGradient>
<linearGradient id="paint74_linear_245_569" x1="495.889" y1="492.406" x2="784.526" y2="363.896" gradientUnits="userSpaceOnUse">
<stop stop-color="#BFBFBF"/>
<stop offset="1" stop-color="#F7F5F7"/>
</linearGradient>
<linearGradient id="paint75_linear_245_569" x1="499.626" y1="487.574" x2="779.611" y2="368.727" gradientUnits="userSpaceOnUse">
<stop stop-color="#BFBFBF"/>
<stop offset="1" stop-color="#F7F5F7"/>
</linearGradient>
<linearGradient id="paint76_linear_245_569" x1="503.486" y1="482.913" x2="774.573" y2="373.387" gradientUnits="userSpaceOnUse">
<stop stop-color="#BFBFBF"/>
<stop offset="1" stop-color="#F7F5F7"/>
</linearGradient>
<linearGradient id="paint77_linear_245_569" x1="507.465" y1="478.428" x2="769.418" y2="377.874" gradientUnits="userSpaceOnUse">
<stop stop-color="#BFBFBF"/>
<stop offset="1" stop-color="#F7F5F7"/>
</linearGradient>
<linearGradient id="paint78_linear_245_569" x1="511.556" y1="474.118" x2="764.146" y2="382.183" gradientUnits="userSpaceOnUse">
<stop stop-color="#BFBFBF"/>
<stop offset="1" stop-color="#F7F5F7"/>
</linearGradient>
<linearGradient id="paint79_linear_245_569" x1="515.757" y1="469.988" x2="758.767" y2="386.313" gradientUnits="userSpaceOnUse">
<stop stop-color="#BFBFBF"/>
<stop offset="1" stop-color="#F7F5F7"/>
</linearGradient>
<linearGradient id="paint80_linear_245_569" x1="520.062" y1="466.039" x2="753.284" y2="390.261" gradientUnits="userSpaceOnUse">
<stop stop-color="#BFBFBF"/>
<stop offset="1" stop-color="#F7F5F7"/>
</linearGradient>
<linearGradient id="paint81_linear_245_569" x1="524.466" y1="462.275" x2="747.702" y2="394.025" gradientUnits="userSpaceOnUse">
<stop stop-color="#BFBFBF"/>
<stop offset="1" stop-color="#F7F5F7"/>
</linearGradient>
<linearGradient id="paint82_linear_245_569" x1="528.963" y1="458.697" x2="742.024" y2="397.603" gradientUnits="userSpaceOnUse">
<stop stop-color="#BFBFBF"/>
<stop offset="1" stop-color="#F7F5F7"/>
</linearGradient>
<linearGradient id="paint83_linear_245_569" x1="533.55" y1="455.308" x2="736.259" y2="400.992" gradientUnits="userSpaceOnUse">
<stop stop-color="#BFBFBF"/>
<stop offset="1" stop-color="#F7F5F7"/>
</linearGradient>
<linearGradient id="paint84_linear_245_569" x1="538.221" y1="452.109" x2="730.409" y2="404.192" gradientUnits="userSpaceOnUse">
<stop stop-color="#BFBFBF"/>
<stop offset="1" stop-color="#F7F5F7"/>
</linearGradient>
<linearGradient id="paint85_linear_245_569" x1="542.971" y1="449.103" x2="724.48" y2="407.198" gradientUnits="userSpaceOnUse">
<stop stop-color="#BFBFBF"/>
<stop offset="1" stop-color="#F7F5F7"/>
</linearGradient>
<linearGradient id="paint86_linear_245_569" x1="547.794" y1="446.29" x2="718.476" y2="410.011" gradientUnits="userSpaceOnUse">
<stop stop-color="#BFBFBF"/>
<stop offset="1" stop-color="#F7F5F7"/>
</linearGradient>
<linearGradient id="paint87_linear_245_569" x1="552.687" y1="443.674" x2="712.404" y2="412.628" gradientUnits="userSpaceOnUse">
<stop stop-color="#BFBFBF"/>
<stop offset="1" stop-color="#F7F5F7"/>
</linearGradient>
<linearGradient id="paint88_linear_245_569" x1="557.643" y1="441.254" x2="706.269" y2="415.048" gradientUnits="userSpaceOnUse">
<stop stop-color="#BFBFBF"/>
<stop offset="1" stop-color="#F7F5F7"/>
</linearGradient>
<linearGradient id="paint89_linear_245_569" x1="562.659" y1="439.033" x2="700.076" y2="417.268" gradientUnits="userSpaceOnUse">
<stop stop-color="#BFBFBF"/>
<stop offset="1" stop-color="#F7F5F7"/>
</linearGradient>
<linearGradient id="paint90_linear_245_569" x1="567.727" y1="437.012" x2="693.83" y2="419.289" gradientUnits="userSpaceOnUse">
<stop stop-color="#BFBFBF"/>
<stop offset="1" stop-color="#F7F5F7"/>
</linearGradient>
<linearGradient id="paint91_linear_245_569" x1="572.843" y1="435.192" x2="687.536" y2="421.109" gradientUnits="userSpaceOnUse">
<stop stop-color="#BFBFBF"/>
<stop offset="1" stop-color="#F7F5F7"/>
</linearGradient>
<linearGradient id="paint92_linear_245_569" x1="578.002" y1="433.574" x2="681.199" y2="422.727" gradientUnits="userSpaceOnUse">
<stop stop-color="#BFBFBF"/>
<stop offset="1" stop-color="#F7F5F7"/>
</linearGradient>
<linearGradient id="paint93_linear_245_569" x1="583.197" y1="432.159" x2="674.824" y2="424.142" gradientUnits="userSpaceOnUse">
<stop stop-color="#BFBFBF"/>
<stop offset="1" stop-color="#F7F5F7"/>
</linearGradient>
<linearGradient id="paint94_linear_245_569" x1="588.424" y1="430.948" x2="668.417" y2="425.354" gradientUnits="userSpaceOnUse">
<stop stop-color="#BFBFBF"/>
<stop offset="1" stop-color="#F7F5F7"/>
</linearGradient>
<linearGradient id="paint95_linear_245_569" x1="593.677" y1="429.94" x2="661.985" y2="426.36" gradientUnits="userSpaceOnUse">
<stop stop-color="#BFBFBF"/>
<stop offset="1" stop-color="#F7F5F7"/>
</linearGradient>
<linearGradient id="paint96_linear_245_569" x1="598.953" y1="429.138" x2="655.532" y2="427.162" gradientUnits="userSpaceOnUse">
<stop stop-color="#BFBFBF"/>
<stop offset="1" stop-color="#F7F5F7"/>
</linearGradient>
<linearGradient id="paint97_linear_245_569" x1="604.243" y1="428.541" x2="649.061" y2="427.759" gradientUnits="userSpaceOnUse">
<stop stop-color="#BFBFBF"/>
<stop offset="1" stop-color="#F7F5F7"/>
</linearGradient>
<linearGradient id="paint98_linear_245_569" x1="609.545" y1="428.151" x2="642.581" y2="428.151" gradientUnits="userSpaceOnUse">
<stop stop-color="#BFBFBF"/>
<stop offset="1" stop-color="#F7F5F7"/>
</linearGradient>
<clipPath id="clip0_245_569">
<rect width="1413" height="564" fill="white"/>
</clipPath>
</defs>
</svg>
